<svg width="24" height="24" viewBox="0 0 24 24" fill="none" xmlns="http://www.w3.org/2000/svg">
<path d="M8.59508 3.26429C8.42127 3.09788 8.19633 3 7.93047 3C7.39875 3 7 3.38171 7 3.89065C7 4.13531 7.10222 4.36043 7.26586 4.52679L14.7096 11.4951L7.26586 18.4634C7.10222 18.6298 7 18.8647 7 19.0996C7 19.6085 7.39875 20 7.93047 20C8.19633 20 8.42127 19.9021 8.59508 19.7358L16.6933 12.1508C16.8875 11.9942 17 11.7496 17 11.4951C17 11.2505 16.8875 11.0253 16.6933 10.8394L8.59508 3.26429Z" fill="#4B5563"/>
</svg>
