<svg width="167" height="125" viewBox="0 0 167 125" fill="none" xmlns="http://www.w3.org/2000/svg">
<path d="M164.04 116.339C152.342 96.1252 140.194 76.3611 128.047 56.148C125.795 52.1055 123.094 47.6136 120.847 42.6727C120.398 41.7737 119.943 40.8757 119.045 39.5283C118.595 39.0788 118.595 38.6298 118.146 37.7313C114.546 30.9939 110.946 24.2561 106.897 17.9672C106.897 17.5182 106.897 17.5182 106.448 17.5182C105.549 15.7217 104.645 14.3737 103.747 13.0263C98.3495 4.94091 91.1498 0 83.9502 0H83.0514C75.8518 0 68.6521 4.49192 63.2498 13.0263C62.8004 13.9247 61.4524 15.7217 60.5537 17.5182L60.1044 17.9677C55.6008 24.2555 52.4554 30.9939 48.8556 37.7313C47.9518 39.0793 47.0531 40.8757 46.1544 42.2232C43.0039 47.6136 39.8534 53.0035 37.6067 57.4954C25.9085 76.8106 14.2103 96.1252 2.96148 115.44C1.159 118.135 -3.33947 122.178 4.30955 123.975C16.4571 126.67 28.1552 123.975 37.1574 116.788C41.2065 113.643 44.8064 109.601 47.5025 105.109C51.1023 99.2697 54.2528 93.4303 57.4033 87.5909C65.0523 75.0136 72.7013 61.9874 80.7996 48.5121C81.6983 47.1641 82.6021 45.8166 83.5008 44.0202C84.3995 45.3677 85.2982 46.7151 86.202 48.5121C94.3003 61.9874 101.949 75.0136 109.598 87.5909C113.198 93.4303 115.894 99.2697 119.494 105.109C122.195 110.05 125.795 113.643 129.844 116.788C138.841 123.975 150.539 126.67 162.692 123.975C170.341 123.076 165.837 119.034 164.04 116.339Z" fill="#F3F4F6" fill-opacity="0.55"/>
<path d="M78.8376 74.985L57.9831 103.459C54.8758 107.464 57.9831 113.248 62.8631 113.248H104.134C109.019 113.248 112.121 107.464 109.019 103.459L88.1594 74.985C86.3816 71.871 81.0585 71.871 78.8376 74.985Z" fill="#F3F4F6" fill-opacity="0.55"/>
</svg>
