<svg width="123" height="22" viewBox="0 0 123 22" fill="none" xmlns="http://www.w3.org/2000/svg"><g clip-path="url(#clip0_7353_317504)"><path d="M90.8996 21.832C87.9923 22.0815 85.3259 21.8148 83.2787 19.9483C82.7283 19.4408 82.2208 18.8129 81.7649 18.0474C80.8962 16.5766 79.5199 15.9745 77.1373 15.9745C77.1373 15.9745 74.7892 15.9659 74.1355 15.9745C73.6796 15.9831 72.6732 15.8196 71.5292 18.3829C70.7723 20.0859 69.4477 21.1009 67.7532 21.6944C66.7813 22.0299 66.1448 21.7804 66.162 20.5676C66.205 17.9528 66.248 15.3208 66.1964 12.6887C66.162 11.3985 66.6608 11.0459 67.8908 11.0545C70.9099 11.0803 80.0274 11.0545 81.5757 11.0459C82.1434 11.0373 82.4874 11.0459 82.9347 11.0373C83.0465 11.0373 83.3476 10.9943 83.468 10.9771C84.3109 10.8308 85.3345 9.9621 85.2657 8.61168C85.2055 7.39028 84.4141 6.70217 83.468 6.51294C83.2873 6.47853 83.0981 6.46133 82.9003 6.45272C80.8101 6.40972 78.72 6.40972 76.6299 6.39252C75.4773 6.38391 74.3247 6.37531 73.1721 6.34951C71.9077 6.3237 70.9443 5.95384 70.2906 5.29154C69.6455 4.63783 69.3015 3.71748 69.2671 2.57349C69.2241 1.28329 69.8176 0.939229 70.7981 0.896222C70.8583 0.887621 70.9271 0.88762 70.9873 0.88762C72.7936 0.879019 74.5999 0.861816 76.3976 0.861816C77.0083 0.861816 82.367 0.879019 82.41 0.879019C86.7107 1.03384 89.661 2.14342 90.8222 6.22049C90.8824 6.41832 90.934 6.61615 90.977 6.83119C91.7425 10.4352 90.4265 13.4973 86.7795 15.0541C88.3708 16.9636 89.8502 18.7613 91.3469 20.5418C91.9576 21.2643 92.0694 21.7374 90.8996 21.832Z" fill="white"/><path d="M47.127 16.525C47.1184 16.5164 47.0066 16.5078 46.9636 16.5078H34.4743C34.0529 16.5078 33.7174 16.1551 33.7174 15.7164V6.61617C33.7174 5.03351 33.0981 3.60568 32.0918 2.57351C31.0854 1.54135 29.7006 0.89624 28.1695 0.89624C27.7481 0.89624 27.4126 1.2489 27.4126 1.67897V21.1267C27.4126 21.5568 27.7567 21.9095 28.1695 21.9095C28.1695 21.9095 39.618 22.0557 43.4714 21.9525C43.8843 21.9439 44.3057 21.8492 44.6498 21.7202C45.3293 21.488 45.897 21.0407 46.3873 20.5418C47.1872 19.7161 47.6947 18.5893 47.7377 17.3421V17.2819C47.7205 16.9292 47.4797 16.6024 47.127 16.525Z" fill="white"/><path d="M68.0027 4.66365C67.9253 4.27659 67.8049 3.90673 67.6415 3.57127C67.4092 3.07239 67.091 2.62512 66.7125 2.24666C66.3427 1.8768 65.9212 1.56715 65.4395 1.35211C64.9836 1.11127 64.6826 1.00806 64.1493 0.930645C64.0375 0.913443 63.5644 0.904842 63.4698 0.89624H60.3217H52.4944C52.4944 0.89624 49.2431 0.89624 49.1829 0.904842H45.3639C45.1832 0.904842 45.0198 0.982254 44.908 1.10267C44.7962 1.21449 44.7188 1.37792 44.7188 1.55855C44.7188 1.8682 44.7446 2.16925 44.8048 2.46169C44.8822 2.84876 45.0026 3.21862 45.166 3.55407C45.3983 4.05295 45.7165 4.50023 46.095 4.87869C46.4648 5.24855 46.8863 5.5582 47.368 5.77323C47.8239 6.01407 48.1249 6.11729 48.6582 6.1947C48.8302 6.2205 52.4858 6.22911 52.4858 6.22911C52.8987 6.25491 53.2341 6.60757 53.2341 7.02044V21.1009C53.2341 21.5396 53.5954 21.9009 54.0341 21.9009H58.782C59.2207 21.9009 59.582 21.5396 59.582 21.1009V7.02904C59.582 6.60757 59.9088 6.26351 60.3303 6.23771C60.3303 6.23771 63.6676 6.23771 63.8053 6.22911H67.4608C67.6415 6.22911 67.8049 6.15169 67.9167 6.03127C68.0285 5.91946 68.106 5.75603 68.106 5.5754C68.0887 5.26575 68.0629 4.9647 68.0027 4.66365Z" fill="white"/><path d="M121.495 20.2751C119.499 16.912 117.547 13.7466 114.106 8.0181C114.011 7.84608 111.388 3.28733 111.276 3.1067C110.399 1.70468 109.178 0.947754 107.982 0.947754H107.844C106.64 0.947754 105.436 1.73048 104.55 3.1067C104.438 3.28733 102.795 6.1516 102.142 7.25258C100.946 9.26531 96.4302 16.8775 94.4433 20.1117C94.1595 20.5675 93.4369 21.4707 94.6669 21.7717C96.6711 22.262 98.6322 21.7717 100.172 20.5417C100.834 20.0343 101.419 19.3547 101.901 18.5634C102.477 17.5915 103.036 16.5937 103.604 15.6217C104.877 13.4714 106.133 11.3038 107.492 9.01587C107.621 8.77503 107.775 8.53419 107.913 8.29335C108.051 8.53419 108.214 8.77503 108.335 9.01587C109.694 11.2952 110.984 13.4628 112.257 15.6045C112.824 16.5765 113.349 17.5829 113.917 18.5634C114.399 19.3634 114.992 20.0343 115.654 20.5417C117.194 21.7717 119.147 22.219 121.159 21.7717C122.424 21.4793 121.779 20.7396 121.495 20.2751Z" fill="white"/><path d="M24.5829 2.26388C24.6001 0.724225 23.8174 0.741428 22.7422 1.09409C20.5402 1.8252 19.121 3.74332 19.0264 6.27213C18.949 8.06982 18.992 9.86751 18.9748 11.6652C18.9576 15.2176 18.063 16.1637 14.5364 16.353C14.2698 16.3616 13.5301 16.4046 12.7646 16.4046C11.999 16.396 11.2593 16.3616 10.9927 16.353C7.4661 16.1551 6.57155 15.209 6.55435 11.6652C6.53715 9.86751 6.58016 8.06982 6.50274 6.27213C6.40813 3.74332 4.9889 1.8252 2.78694 1.09409C1.71177 0.741428 0.920437 0.724225 0.946241 2.26388C0.989248 5.57541 0.81722 8.90416 0.963444 12.2071C1.19568 17.2991 3.05358 19.9742 7.72414 21.1956C9.40142 21.6342 10.5282 21.8321 12.8076 21.8407C15.0697 21.8493 16.1191 21.7288 17.7964 21.2988C22.4669 20.0774 24.342 17.2991 24.5743 12.2071C24.7119 8.90416 24.5485 5.57541 24.5829 2.26388Z" fill="white"/><path d="M107.131 13.4285L103.604 18.271C103.105 18.9592 103.595 19.9225 104.447 19.9225H111.5C112.352 19.9225 112.842 18.9592 112.343 18.271L108.816 13.4285C108.404 12.8608 107.552 12.8608 107.131 13.4285Z" fill="#D82222"/></g><defs><clipPath id="clip0_7353_317504"><rect width="122.774" height="22" fill="white"/></clipPath></defs></svg>