<svg width="72" height="85" viewBox="0 0 72 85" fill="none" xmlns="http://www.w3.org/2000/svg">
<g clip-path="url(#clip0_8044_90566)">
<path d="M48.5042 20.8469H24.7144C20.18 20.8469 16.5684 24.6224 16.7918 29.1287L17.2192 37.7484C17.4918 43.2443 22.0494 47.5612 27.5795 47.5612H45.639C51.1691 47.5612 55.7267 43.2443 55.9992 37.7484L56.4267 29.1287C56.6502 24.6224 53.0386 20.8469 48.5042 20.8469Z" fill="#013252" stroke="#013252" stroke-width="3"/>
<path d="M48.8137 66.7856H23.1865C17.7947 66.7856 13.4238 71.1349 13.4238 76.4999V91.0714C13.4238 96.4364 17.7947 100.786 23.1865 100.786H48.8137C54.2055 100.786 58.5764 96.4364 58.5764 91.0714V76.4999C58.5764 71.1349 54.2055 66.7856 48.8137 66.7856Z" fill="white" stroke="#013252" stroke-width="2"/>
<path d="M42.7121 52.8214C42.7121 49.1329 39.7071 46.1428 36.0002 46.1428C32.2933 46.1428 29.2883 49.1329 29.2883 52.8214V64.9643C29.2883 68.6527 32.2933 71.6428 36.0002 71.6428C39.7071 71.6428 42.7121 68.6527 42.7121 64.9643V52.8214Z" fill="white" stroke="#013252" stroke-width="2"/>
<path d="M37.8305 20.2397H35.3898C27.9761 20.2397 21.9661 26.2199 21.9661 33.5969V50.5521C21.9661 52.4946 22.9001 54.3198 24.4789 55.4623L33.0212 61.6441C35.1609 63.1924 38.0594 63.1924 40.199 61.6441L48.7414 55.4623C50.3202 54.3198 51.2542 52.4946 51.2542 50.5521V33.5969C51.2542 26.2199 45.2442 20.2397 37.8305 20.2397Z" fill="white" stroke="#013252" stroke-width="2"/>
<path d="M30.5085 43.3112C30.5085 42.6406 29.9622 42.0969 29.2882 42.0969C28.6142 42.0969 28.0679 42.6406 28.0679 43.3112V45.7398C28.0679 46.4104 28.6142 46.9541 29.2882 46.9541C29.9622 46.9541 30.5085 46.4104 30.5085 45.7398V43.3112Z" fill="#013252"/>
<path d="M45.1526 43.3112C45.1526 42.6406 44.6062 42.0969 43.9323 42.0969C43.2583 42.0969 42.7119 42.6406 42.7119 43.3112V45.7398C42.7119 46.4104 43.2583 46.9541 43.9323 46.9541C44.6062 46.9541 45.1526 46.4104 45.1526 45.7398V43.3112Z" fill="#013252"/>
<path d="M26.8475 36.8864C26.1736 36.8864 25.6272 37.43 25.6272 38.1007C25.6272 38.7713 26.1736 39.3149 26.8475 39.3149H31.7289C32.4029 39.3149 32.9492 38.7713 32.9492 38.1007C32.9492 37.43 32.4029 36.8864 31.7289 36.8864H26.8475Z" fill="#013252"/>
<path d="M41.4916 37.2396C40.8176 37.2396 40.2712 37.7833 40.2712 38.4539C40.2712 39.1246 40.8176 39.6682 41.4916 39.6682H46.3729C47.0469 39.6682 47.5933 39.1246 47.5933 38.4539C47.5933 37.7833 47.0469 37.2396 46.3729 37.2396H41.4916Z" fill="#013252"/>
<path d="M34.1696 53.0255C33.4956 53.0255 32.9492 53.5692 32.9492 54.2398C32.9492 54.9104 33.4956 55.4541 34.1696 55.4541H39.0509C39.7249 55.4541 40.2713 54.9104 40.2713 54.2398C40.2713 53.5692 39.7249 53.0255 39.0509 53.0255H34.1696Z" fill="#013252"/>
<path d="M36.6101 48.1682C36.6101 48.1682 37.8304 48.1682 37.8304 47.7129C37.8304 47.2575 37.2203 44.5254 37.2203 44.5254" stroke="#013252" stroke-linecap="round"/>
<path d="M53.2133 21.4713L54.5371 20.0355L53.0084 18.818C45.8025 13.0786 37.4569 11.8668 30.5853 13.2989C23.8519 14.7021 18.0626 18.7896 16.6439 24.1557L18.4141 24.6192L16.6439 24.1557C16.5091 24.665 16.4746 25.1518 16.4746 25.5688V28.2396C16.4746 29.5185 17.09 30.7202 18.1299 31.4717C21.2367 33.7171 25.4248 33.7832 28.6017 31.6371L30.0554 30.6549C34.9842 27.3251 41.2642 26.6806 46.7725 28.9392L50.9321 30.6447C55.1727 32.3835 58.4758 26.7339 54.8606 23.9253L53.7341 25.3609L54.8606 23.9253C54.4242 23.5862 53.9638 23.3792 53.5868 23.2417L52.9569 24.9519L53.5868 23.2417C53.3849 23.168 53.1351 23.0592 52.9119 22.9192C52.6778 22.7725 52.5671 22.6505 52.5283 22.5883C52.5264 22.5853 52.5246 22.5833 52.5232 22.5816C52.5172 22.5748 52.5156 22.573 52.5251 22.5265C52.5483 22.4126 52.6672 22.0636 53.2133 21.4713Z" fill="#013252" stroke="#013252" stroke-width="3"/>
</g>
<defs>
<clipPath id="clip0_8044_90566">
<rect width="72" height="85" fill="white"/>
</clipPath>
</defs>
</svg>
