<svg width="1788" height="1345" viewBox="0 0 1788 1345" fill="none" xmlns="http://www.w3.org/2000/svg">
<path d="M1760.82 1236.55C1633.15 1021.37 1508.23 818.86 1288.1 452.354C1282.05 441.348 1114.2 149.684 1107.05 138.128C1050.92 48.4272 972.775 -5.41208e-05 896.282 -4.9865e-05L887.477 -4.93751e-05C810.434 -4.50887e-05 733.39 50.0781 676.709 138.128C669.554 149.684 564.445 332.937 522.622 403.377C446.129 532.149 157.217 1019.17 30.0951 1226.09C11.9349 1255.26 -34.2912 1313.04 44.403 1332.3C172.625 1363.67 298.096 1332.3 396.601 1253.6C438.975 1221.14 476.396 1177.66 507.213 1127.03C544.084 1064.85 579.854 1001.01 616.174 938.828C697.62 801.25 777.965 662.572 864.914 516.19C873.169 500.781 883.074 485.373 891.879 469.964C900.684 485.373 911.14 500.781 918.845 516.19C1005.79 662.022 1088.34 800.7 1169.79 937.727C1206.11 999.912 1239.68 1064.3 1276 1127.03C1306.81 1178.21 1344.78 1221.14 1387.16 1253.6C1485.66 1332.3 1610.58 1360.91 1739.36 1332.3C1820.25 1313.59 1778.98 1266.26 1760.82 1236.55Z" fill="#F3F4F6"/>
<path d="M841.824 798.496L616.197 1108.32C584.279 1152.35 615.647 1213.98 670.128 1213.98L1121.38 1213.98C1175.86 1213.98 1207.23 1152.35 1175.31 1108.32L949.685 798.496C923.27 762.176 868.789 762.176 841.824 798.496Z" fill="#F9FAFB"/>
</svg>
