<svg width="20" height="20" viewBox="0 0 20 20" fill="none" xmlns="http://www.w3.org/2000/svg">
<path d="M11.6665 5H14.1665C14.3875 5 14.5995 5.0878 14.7558 5.24408C14.912 5.40036 14.9998 5.61232 14.9998 5.83333V11.6667" stroke="white" stroke-width="1.5" stroke-linecap="round" stroke-linejoin="round"/>
<path d="M6.66683 5H4.16683C3.94582 5 3.73385 5.0878 3.57757 5.24408C3.42129 5.40036 3.3335 5.61232 3.3335 5.83333V16.6667C3.3335 16.8877 3.42129 17.0996 3.57757 17.2559C3.73385 17.4122 3.94582 17.5 4.16683 17.5H9.16683" stroke="white" stroke-width="1.8" stroke-linecap="round" stroke-linejoin="round"/>
<path d="M11.6665 15.8333L13.3332 17.5L16.6665 14.1667M10.8332 4.16667C10.8332 3.72464 10.6576 3.30072 10.345 2.98816C10.0325 2.67559 9.60853 2.5 9.1665 2.5C8.72448 2.5 8.30055 2.67559 7.98799 2.98816C7.67543 3.30072 7.49984 3.72464 7.49984 4.16667V4.16667C7.27882 4.16667 7.06686 4.25446 6.91058 4.41074C6.7543 4.56702 6.6665 4.77899 6.6665 5V6.66667H11.6665V5C11.6665 4.77899 11.5787 4.56702 11.4224 4.41074C11.2661 4.25446 11.0542 4.16667 10.8332 4.16667ZM6.6665 14.1667H9.1665H6.6665ZM6.6665 10.8333H11.6665H6.6665Z" stroke="white" stroke-width="2" stroke-linecap="round" stroke-linejoin="round"/>
</svg>
