<svg width="260" height="58" viewBox="0 0 260 58" fill="none" xmlns="http://www.w3.org/2000/svg">
<path d="M35.3125 43V44H37.2936L36.1171 42.4061L35.3125 43ZM25 43L24.1866 43.5818L24.4858 44H25V43ZM9.47266 21.291L10.286 20.7093L8.47266 18.174V21.291H9.47266ZM9.47266 43V44H10.4727V43H9.47266ZM0.390625 43H-0.609375V44H0.390625V43ZM0.390625 0.167969V-0.832031H-0.609375V0.167969H0.390625ZM9.47266 0.167969H10.4727V-0.832031H9.47266V0.167969ZM9.47266 20.9102H8.47266V23.9423L10.2765 21.5051L9.47266 20.9102ZM24.8242 0.167969V-0.832031H24.3202L24.0204 -0.426933L24.8242 0.167969ZM34.4922 0.167969L35.2886 0.772678L36.507 -0.832031H34.4922V0.167969ZM18.877 20.7344L18.0805 20.1297L17.6278 20.7259L18.0724 21.3283L18.877 20.7344ZM35.3125 42H25V44H35.3125V42ZM25.8134 42.4182L10.286 20.7093L8.65929 21.8728L24.1866 43.5818L25.8134 42.4182ZM8.47266 21.291V43H10.4727V21.291H8.47266ZM9.47266 42H0.390625V44H9.47266V42ZM1.39062 43V0.167969H-0.609375V43H1.39062ZM0.390625 1.16797H9.47266V-0.832031H0.390625V1.16797ZM8.47266 0.167969V20.9102H10.4727V0.167969H8.47266ZM10.2765 21.5051L25.628 0.762871L24.0204 -0.426933L8.66886 20.3153L10.2765 21.5051ZM24.8242 1.16797H34.4922V-0.832031H24.8242V1.16797ZM33.6957 -0.436741L18.0805 20.1297L19.6734 21.3391L35.2886 0.772678L33.6957 -0.436741ZM18.0724 21.3283L34.5079 43.5939L36.1171 42.4061L19.6815 20.1405L18.0724 21.3283ZM68.8023 33.8301L67.859 33.4982L67.8563 33.506L68.8023 33.8301ZM65.609 39.1914L64.8876 38.4989L64.8874 38.4991L65.609 39.1914ZM60.5699 42.4727L60.2178 41.5367L60.2147 41.5379L60.5699 42.4727ZM47.5914 42.4727L47.2299 43.405L47.2331 43.4062L47.5914 42.4727ZM42.5816 39.1914L41.8602 39.884L41.8697 39.8937L42.5816 39.1914ZM39.3004 33.8301L38.3598 34.1697L38.3626 34.1774L39.3004 33.8301ZM45.5992 11.5938L45.1179 10.7172L45.5992 11.5938ZM62.2691 11.5938L61.7847 12.4686L61.7878 12.4703L62.2691 11.5938ZM67.8648 17.3359L66.983 17.8076L66.9859 17.8129L67.8648 17.3359ZM57.9039 35.2949L57.3064 34.493L57.2988 34.4988L57.9039 35.2949ZM60.0719 31.9844L59.1194 31.6796L59.1158 31.6912L60.0719 31.9844ZM60.0719 21.1738L59.1169 21.4706L59.1194 21.4784L59.1219 21.4861L60.0719 21.1738ZM48.8512 19.2695L48.0176 18.7171L48.013 18.7242L48.8512 19.2695ZM68.9156 26.5645C68.9156 29.2101 68.5564 31.5162 67.859 33.4982L69.7457 34.162C70.5327 31.9252 70.9156 29.3876 70.9156 26.5645H68.9156ZM67.8563 33.506C67.1762 35.4913 66.1835 37.149 64.8876 38.4989L66.3304 39.8839C67.847 38.3042 68.9832 36.3876 69.7484 34.1542L67.8563 33.506ZM64.8874 38.4991C63.6095 39.831 62.0581 40.8443 60.2178 41.5367L60.9221 43.4086C63.027 42.6166 64.835 41.4425 66.3306 39.8837L64.8874 38.4991ZM60.2147 41.5379C58.3933 42.23 56.3095 42.5859 53.9488 42.5859V44.5859C56.51 44.5859 58.8403 44.1997 60.9251 43.4074L60.2147 41.5379ZM53.9488 42.5859C51.7529 42.5859 49.7568 42.2327 47.9498 41.5391L47.2331 43.4062C49.2932 44.197 51.5354 44.5859 53.9488 44.5859V42.5859ZM47.9529 41.5403C46.1691 40.8486 44.619 39.8327 43.2935 38.4891L41.8697 39.8937C43.3959 41.4407 45.1856 42.6123 47.2299 43.405L47.9529 41.5403ZM43.303 38.4989C42.0016 37.1432 40.9769 35.4774 40.2381 33.4828L38.3626 34.1774C39.1864 36.4015 40.3492 38.3099 41.8603 39.8839L43.303 38.4989ZM40.2409 33.4904C39.5261 31.5109 39.1578 29.2076 39.1578 26.5645H37.1578C37.1578 29.3901 37.5512 31.9305 38.3598 34.1697L40.2409 33.4904ZM39.1578 26.5645C39.1578 23.0464 39.7823 20.1357 40.9817 17.7914L39.2012 16.8805C37.8224 19.5752 37.1578 22.8168 37.1578 26.5645H39.1578ZM40.9817 17.7914C42.1836 15.4422 43.8806 13.6785 46.0806 12.4703L45.1179 10.7172C42.5522 12.1262 40.5774 14.1906 39.2012 16.8805L40.9817 17.7914ZM46.0806 12.4703C48.2874 11.2583 50.9563 10.6309 54.1246 10.6309V8.63086C50.6913 8.63086 47.6767 9.31199 45.1179 10.7172L46.0806 12.4703ZM54.1246 10.6309C57.0448 10.6309 59.5888 11.2526 61.7847 12.4686L62.7536 10.7189C60.2229 9.31766 57.3373 8.63086 54.1246 8.63086V10.6309ZM61.7878 12.4703C63.9918 13.6807 65.7219 15.4498 66.9831 17.8076L68.7466 16.8643C67.3125 14.183 65.3121 12.124 62.7505 10.7172L61.7878 12.4703ZM66.9859 17.8129C68.2552 20.152 68.9156 23.0546 68.9156 26.5645H70.9156C70.9156 22.8086 70.2089 19.559 68.7438 16.859L66.9859 17.8129ZM46.2691 26.5645C46.2691 28.7786 46.5098 30.6953 47.0198 32.2892L48.9247 31.6796C48.4972 30.3437 48.2691 28.6472 48.2691 26.5645H46.2691ZM47.0198 32.2892C47.5368 33.9048 48.3724 35.203 49.5721 36.0968L50.767 34.493C49.9744 33.9025 49.3452 32.9937 48.9247 31.6796L47.0198 32.2892ZM49.5721 36.0968C50.785 37.0005 52.3117 37.4082 54.066 37.4082V35.4082C52.6172 35.4082 51.5463 35.0737 50.767 34.493L49.5721 36.0968ZM54.066 37.4082C55.8029 37.4082 57.3137 36.9995 58.509 36.0911L57.2988 34.4988C56.541 35.0747 55.4932 35.4082 54.066 35.4082V37.4082ZM58.5014 36.0968C59.7045 35.2003 60.5311 33.8975 61.0279 32.2776L59.1158 31.6912C58.7142 33.0009 58.0955 33.9051 57.3064 34.493L58.5014 36.0968ZM61.0243 32.2892C61.5343 30.6953 61.775 28.7786 61.775 26.5645H59.775C59.775 28.6472 59.5469 30.3437 59.1195 31.6796L61.0243 32.2892ZM61.775 26.5645C61.775 24.3333 61.5349 22.422 61.0219 20.8615L59.1219 21.4861C59.5463 22.7772 59.775 24.4597 59.775 26.5645H61.775ZM61.0268 20.877C60.5286 19.274 59.6988 17.9886 58.4911 17.1125L57.3167 18.7313C58.1012 19.3004 58.7168 20.1831 59.1169 21.4706L61.0268 20.877ZM58.4911 17.1125C57.2793 16.2333 55.7565 15.8379 54.0074 15.8379V17.8379C55.4615 17.8379 56.5364 18.1652 57.3167 18.7313L58.4911 17.1125ZM54.0074 15.8379C51.3915 15.8379 49.3185 16.754 48.0176 18.7172L49.6848 19.8219C50.5323 18.5429 51.8968 17.8379 54.0074 17.8379V15.8379ZM48.013 18.7242C46.8031 20.5837 46.2691 23.2458 46.2691 26.5645H48.2691C48.2691 23.3988 48.7898 21.1975 49.6894 19.8149L48.013 18.7242ZM104.607 13.9375L103.822 14.557L103.824 14.5602L104.607 13.9375ZM106.423 35.9395L107.343 36.3317L107.344 36.3291L106.423 35.9395ZM101.97 41.6523L101.407 40.8256L101.97 41.6523ZM91.3645 43L91.024 43.9403L91.0312 43.9429L91.0385 43.9454L91.3645 43ZM88.4641 41.4473L87.8371 42.2263L87.8429 42.231L87.8488 42.2356L88.4641 41.4473ZM86.384 39.3965L87.1607 38.7667L86.8606 38.3965H86.384V39.3965ZM85.9152 39.3965V38.3965H84.6954L84.9347 39.5926L85.9152 39.3965ZM86.384 57.4141V58.4141H87.384V57.4141H86.384ZM77.4484 57.4141H76.4484V58.4141H77.4484V57.4141ZM77.4484 10.2461V9.24609H76.4484V10.2461H77.4484ZM84.7141 10.2461L85.6728 9.96178L85.4606 9.24609H84.7141V10.2461ZM85.9738 14.4941L85.0151 14.7785L85.2273 15.4941H85.9738V14.4941ZM86.384 14.4941V15.4941H86.9192L87.216 15.0488L86.384 14.4941ZM91.5402 10.3047L91.8845 11.2436L91.893 11.2404L91.5402 10.3047ZM89.0793 17.7461L89.6539 18.5645L89.0793 17.7461ZM87.0578 20.6465L86.109 20.3302L86.1049 20.3433L87.0578 20.6465ZM86.384 25.5391L85.3842 25.5193L85.384 25.5292V25.5391H86.384ZM86.9699 31.8672L86.0036 32.1249L86.007 32.1368L86.9699 31.8672ZM88.9914 35.207L88.3608 35.9832L88.3687 35.9895L88.9914 35.207ZM98.2492 31.8672L97.2921 31.5775L97.2896 31.5857L98.2492 31.8672ZM95.6711 10.6309C99.0597 10.6309 101.748 11.9288 103.822 14.557L105.392 13.318C102.934 10.204 99.6653 8.63086 95.6711 8.63086V10.6309ZM103.824 14.5602C105.912 17.1839 107.034 21.1333 107.034 26.5645H109.034C109.034 20.9018 107.871 16.4333 105.389 13.3148L103.824 14.5602ZM107.034 26.5645C107.034 30.1852 106.509 33.1687 105.502 35.5498L107.344 36.3291C108.485 33.632 109.034 30.3656 109.034 26.5645H107.034ZM105.503 35.5473C104.489 37.9255 103.115 39.6637 101.407 40.8256L102.532 42.4791C104.614 41.0629 106.208 38.9925 107.343 36.3316L105.503 35.5473ZM101.407 40.8256C99.6912 41.9933 97.7126 42.5859 95.4367 42.5859V44.5859C98.0827 44.5859 100.46 43.8895 102.532 42.4791L101.407 40.8256ZM95.4367 42.5859C93.9322 42.5859 92.6909 42.3996 91.6904 42.0546L91.0385 43.9454C92.3037 44.3817 93.7772 44.5859 95.4367 44.5859V42.5859ZM91.7049 42.0597C90.6532 41.679 89.7833 41.2084 89.0793 40.659L87.8488 42.2356C88.7464 42.9361 89.8101 43.5007 91.024 43.9403L91.7049 42.0597ZM89.0911 40.6683C88.3397 40.0635 87.6978 39.4291 87.1607 38.7667L85.6072 40.0263C86.242 40.8092 86.9869 41.542 87.8371 42.2263L89.0911 40.6683ZM86.384 38.3965H85.9152V40.3965H86.384V38.3965ZM84.9347 39.5926C85.084 40.3392 85.1963 41.1062 85.2713 41.8936L87.2623 41.704C87.181 40.8509 87.059 40.0162 86.8958 39.2004L84.9347 39.5926ZM85.2713 41.8936C85.3466 42.6841 85.384 43.4532 85.384 44.2012H87.384C87.384 43.3866 87.3433 42.5541 87.2623 41.704L85.2713 41.8936ZM85.384 44.2012V57.4141H87.384V44.2012H85.384ZM86.384 56.4141H77.4484V58.4141H86.384V56.4141ZM78.4484 57.4141V10.2461H76.4484V57.4141H78.4484ZM77.4484 11.2461H84.7141V9.24609H77.4484V11.2461ZM83.7553 10.5304L85.0151 14.7785L86.9326 14.2098L85.6728 9.96178L83.7553 10.5304ZM85.9738 15.4941H86.384V13.4941H85.9738V15.4941ZM87.216 15.0488C87.7512 14.2461 88.4059 13.5002 89.1849 12.8118L87.8605 11.3132C86.9598 12.1091 86.1887 12.9843 85.5519 13.9394L87.216 15.0488ZM89.1849 12.8118C89.9214 12.1609 90.8162 11.6353 91.8845 11.2436L91.196 9.36581C89.9205 9.83349 88.8036 10.4797 87.8605 11.3132L89.1849 12.8118ZM91.893 11.2404C92.9493 10.8421 94.2026 10.6309 95.6711 10.6309V8.63086C94.0146 8.63086 92.514 8.86882 91.1874 9.36899L91.893 11.2404ZM92.8 15.7793C91.1103 15.7793 89.6454 16.1267 88.5047 16.9277L89.6539 18.5645C90.3491 18.0764 91.3647 17.7793 92.8 17.7793V15.7793ZM88.5047 16.9277C87.377 17.7194 86.5919 18.882 86.1091 20.3303L88.0065 20.9627C88.3831 19.8328 88.9457 19.0618 89.6539 18.5645L88.5047 16.9277ZM86.1049 20.3433C85.6555 21.7556 85.4244 23.4902 85.3842 25.5193L87.3838 25.5589C87.4217 23.6426 87.6398 22.1155 88.0107 20.9497L86.1049 20.3433ZM85.384 25.5391V26.5059H87.384V25.5391H85.384ZM85.384 26.5059C85.384 28.671 85.5838 30.5504 86.0037 32.1249L87.9362 31.6095C87.5748 30.2543 87.384 28.5594 87.384 26.5059H85.384ZM86.007 32.1368C86.4583 33.7489 87.2255 35.0607 88.3608 35.9831L89.622 34.4309C88.8823 33.8299 88.3018 32.9152 87.9329 31.5976L86.007 32.1368ZM88.3687 35.9895C89.5567 36.935 91.1112 37.3496 92.9172 37.3496V35.3496C91.4029 35.3496 90.3402 35.0025 89.6142 34.4246L88.3687 35.9895ZM92.9172 37.3496C94.4804 37.3496 95.8495 36.9089 96.9413 35.9627L95.6314 34.4513C94.9654 35.0286 94.0883 35.3496 92.9172 35.3496V37.3496ZM96.9413 35.9627C98.0039 35.0417 98.7417 33.7411 99.2088 32.1487L97.2896 31.5857C96.8974 32.923 96.3266 33.8489 95.6314 34.4513L96.9413 35.9627ZM99.2064 32.1568C99.6924 30.5509 99.923 28.6405 99.923 26.4473H97.923C97.923 28.5118 97.7045 30.2147 97.2921 31.5775L99.2064 32.1568ZM99.923 26.4473C99.923 23.1715 99.4192 20.54 98.2809 18.6874L96.5769 19.7345C97.4308 21.1241 97.923 23.3168 97.923 26.4473H99.923ZM98.2809 18.6874C97.0824 16.7369 95.1964 15.7793 92.8 15.7793V17.7793C94.5833 17.7793 95.7832 18.4428 96.5769 19.7345L98.2809 18.6874ZM134.112 10.5684L133.821 11.525L133.829 11.5274L134.112 10.5684ZM139.093 13.4102L138.38 14.1119L138.385 14.1173L139.093 13.4102ZM139.21 23.0488L139.905 23.7676L139.911 23.7618L139.21 23.0488ZM134.464 25.5391L134.214 24.5706L133.464 24.7639V25.5391H134.464ZM134.464 25.832H133.464V26.6209L134.231 26.8045L134.464 25.832ZM138.214 27.1797L137.76 28.071L137.766 28.0741L138.214 27.1797ZM140.909 29.5234L140.077 30.0781L140.909 29.5234ZM140.177 38.4883L140.974 39.0916L140.978 39.0867L140.177 38.4883ZM134.874 42.1797L134.508 41.2491L134.505 41.2502L134.874 42.1797ZM120.782 43.3516L120.681 44.3465L120.683 44.3466L120.782 43.3516ZM116.534 42.6777L116.298 43.6496L116.305 43.6513L116.312 43.6529L116.534 42.6777ZM113.165 41.5645H112.165V42.2116L112.755 42.4767L113.165 41.5645ZM113.165 34.1816L113.586 33.2745L112.165 32.6156V34.1816H113.165ZM118.145 35.9102L117.887 36.8762L117.889 36.8769L118.145 35.9102ZM128.897 36.3496L128.723 35.3648L128.721 35.3653L128.897 36.3496ZM132.032 35.1777L132.615 35.9901L132.619 35.9873L132.032 35.1777ZM132.179 30.7539L131.517 31.5037L131.529 31.514L131.54 31.5239L132.179 30.7539ZM129.102 29.4648L128.893 30.4426L128.901 30.4444L128.909 30.446L129.102 29.4648ZM120.43 29.0254H119.43V30.0254H120.43V29.0254ZM120.43 22.8438V21.8438H119.43V22.8438H120.43ZM121.251 16.8086L121.437 17.7912L121.447 17.7892L121.251 16.8086ZM116.036 18.332L115.115 18.7212L115.5 19.6323L116.415 19.2574L116.036 18.332ZM113.399 12.0918L113.043 11.1575L112.075 11.5267L112.478 12.481L113.399 12.0918ZM119.552 10.334L119.751 11.3139L119.758 11.3125L119.552 10.334ZM127.491 10.6309C129.766 10.6309 131.873 10.9315 133.821 11.5249L134.404 9.6118C132.249 8.95522 129.943 8.63086 127.491 8.63086V10.6309ZM133.829 11.5274C135.747 12.0936 137.249 12.9638 138.38 14.1118L139.805 12.7085C138.397 11.2783 136.579 10.254 134.395 9.60929L133.829 11.5274ZM138.385 14.1173C139.444 15.1759 139.997 16.5506 139.997 18.332H141.997C141.997 16.09 141.28 14.1834 139.8 12.703L138.385 14.1173ZM139.997 18.332C139.997 20.0888 139.475 21.3857 138.509 22.3359L139.911 23.7618C141.328 22.3682 141.997 20.5206 141.997 18.332H139.997ZM138.515 22.33C137.473 23.3373 136.057 24.0962 134.214 24.5706L134.713 26.5075C136.815 25.9663 138.564 25.0651 139.905 23.7676L138.515 22.33ZM133.464 25.5391V25.832H135.464V25.5391H133.464ZM134.231 26.8045C135.552 27.1208 136.726 27.5448 137.76 28.071L138.667 26.2884C137.475 25.6817 136.149 25.2073 134.697 24.8595L134.231 26.8045ZM137.766 28.0741C138.753 28.5674 139.515 29.2353 140.077 30.0781L141.741 28.9687C140.975 27.8194 139.94 26.9248 138.661 26.2853L137.766 28.0741ZM140.077 30.0781C140.599 30.8612 140.905 31.9574 140.905 33.4492H142.905C142.905 31.6988 142.547 30.1779 141.741 28.9687L140.077 30.0781ZM140.905 33.4492C140.905 35.0365 140.407 36.5087 139.375 37.8899L140.978 39.0867C142.251 37.382 142.905 35.4947 142.905 33.4492H140.905ZM139.379 37.885C138.369 39.2199 136.776 40.3567 134.508 41.2491L135.24 43.1103C137.737 42.1276 139.679 40.8036 140.974 39.0915L139.379 37.885ZM134.505 41.2502C132.3 42.1249 129.4 42.5859 125.762 42.5859V44.5859C129.547 44.5859 132.721 44.1095 135.243 43.1092L134.505 41.2502ZM125.762 42.5859C124.034 42.5859 122.407 42.5091 120.882 42.3565L120.683 44.3466C122.282 44.5065 123.975 44.5859 125.762 44.5859V42.5859ZM120.883 42.3567C119.374 42.2038 117.999 41.9851 116.756 41.7026L116.312 43.6529C117.647 43.9563 119.104 44.1868 120.681 44.3465L120.883 42.3567ZM116.77 41.7059C115.525 41.4043 114.463 41.0511 113.574 40.6522L112.755 42.4767C113.781 42.9371 114.964 43.3262 116.298 43.6496L116.77 41.7059ZM114.165 41.5645V34.1816H112.165V41.5645H114.165ZM112.744 35.0888C114.159 35.7452 115.878 36.3391 117.887 36.8762L118.404 34.9441C116.468 34.4265 114.866 33.8681 113.586 33.2745L112.744 35.0888ZM117.889 36.8769C119.972 37.4282 122.178 37.7012 124.503 37.7012V35.7012C122.335 35.7012 120.303 35.4468 118.401 34.9435L117.889 36.8769ZM124.503 37.7012C126.171 37.7012 127.696 37.5807 129.074 37.3339L128.721 35.3653C127.482 35.5873 126.077 35.7012 124.503 35.7012V37.7012ZM129.071 37.3344C130.487 37.0846 131.69 36.6541 132.615 35.9901L131.449 34.3654C130.85 34.7951 129.964 35.1459 128.723 35.3648L129.071 37.3344ZM132.619 35.9873C133.651 35.2394 134.204 34.1908 134.204 32.9219H132.204C132.204 33.528 131.976 33.9833 131.445 34.3681L132.619 35.9873ZM134.204 32.9219C134.204 31.7417 133.727 30.7381 132.817 29.9839L131.54 31.5239C131.997 31.9026 132.204 32.3442 132.204 32.9219H134.204ZM132.84 30.0041C131.986 29.2508 130.763 28.773 129.296 28.4837L128.909 30.446C130.215 30.7036 131.042 31.0851 131.517 31.5037L132.84 30.0041ZM129.312 28.487C127.851 28.1739 126.036 28.0254 123.887 28.0254V30.0254C125.958 30.0254 127.62 30.1699 128.893 30.4426L129.312 28.487ZM123.887 28.0254H120.43V30.0254H123.887V28.0254ZM121.43 29.0254V22.8438H119.43V29.0254H121.43ZM120.43 23.8438H123.712V21.8438H120.43V23.8438ZM123.712 23.8438C126.716 23.8438 129.125 23.5988 130.885 23.0688L130.308 21.1538C128.825 21.6004 126.644 21.8438 123.712 21.8438V23.8438ZM130.885 23.0688C131.804 22.7921 132.596 22.3696 133.163 21.7411C133.748 21.0926 134.028 20.2959 134.028 19.416H132.028C132.028 19.8448 131.903 20.1516 131.678 20.4014C131.434 20.6714 131.01 20.9423 130.308 21.1538L130.885 23.0688ZM134.028 19.416C134.028 18.7175 133.854 18.0609 133.477 17.4842C133.103 16.9128 132.567 16.4768 131.929 16.1519L131.021 17.934C131.419 18.1365 131.659 18.3596 131.803 18.5793C131.943 18.7936 132.028 19.0599 132.028 19.416H134.028ZM131.929 16.1519C130.67 15.5105 128.757 15.252 126.348 15.252V17.252C128.706 17.252 130.21 17.5208 131.021 17.934L131.929 16.1519ZM126.348 15.252C124.727 15.252 122.961 15.4468 121.055 15.828L121.447 17.7892C123.252 17.4282 124.884 17.252 126.348 17.252V15.252ZM121.065 15.8261C119.148 16.1892 117.345 16.7152 115.657 17.4067L116.415 19.2574C117.969 18.6207 119.642 18.1311 121.437 17.7911L121.065 15.8261ZM116.957 17.9428L114.32 11.7026L112.478 12.481L115.115 18.7212L116.957 17.9428ZM113.756 13.0261C115.594 12.3249 117.592 11.7534 119.751 11.3139L119.352 9.35408C117.097 9.813 114.994 10.4134 113.043 11.1575L113.756 13.0261ZM119.758 11.3125C121.898 10.862 124.472 10.6309 127.491 10.6309V8.63086C124.378 8.63086 121.659 8.86848 119.346 9.35543L119.758 11.3125ZM157.7 10.2461H158.7V9.24609H157.7V10.2461ZM157.612 25.7148L156.613 25.6572L156.613 25.6664L156.612 25.6757L157.612 25.7148ZM157.026 33.2148L156.035 33.0827L157.861 33.7646L157.026 33.2148ZM172.143 10.2461V9.24609H171.604L171.308 9.69632L172.143 10.2461ZM182.895 10.2461H183.895V9.24609H182.895V10.2461ZM182.895 43V44H183.895V43H182.895ZM174.252 43H173.252V44H174.252V43ZM174.37 26.3887L175.368 26.4492L175.368 26.4483L174.37 26.3887ZM174.838 20.0898L175.836 20.1564L176.089 16.3668L174.003 19.5406L174.838 20.0898ZM159.78 43V44H160.319L160.615 43.5493L159.78 43ZM149.057 43H148.057V44H149.057V43ZM149.057 10.2461V9.24609H148.057V10.2461H149.057ZM156.7 10.2461V23.1953H158.7V10.2461H156.7ZM156.7 23.1953C156.7 23.8329 156.671 24.6519 156.613 25.6572L158.61 25.7724C158.669 24.7465 158.7 23.8858 158.7 23.1953H156.7ZM156.612 25.6757C156.574 26.6592 156.516 27.6628 156.439 28.6865L158.433 28.837C158.512 27.7903 158.571 26.7626 158.611 25.754L156.612 25.6757ZM156.439 28.6865C156.361 29.7167 156.283 30.6377 156.206 31.4501L158.197 31.6397C158.276 30.8115 158.355 29.8771 158.433 28.837L156.439 28.6865ZM156.206 31.4501C156.128 32.2725 156.071 32.8111 156.035 33.0827L158.017 33.347C158.059 33.0327 158.119 32.458 158.197 31.6397L156.206 31.4501ZM157.861 33.7646L172.978 10.7959L171.308 9.69632L156.19 32.6651L157.861 33.7646ZM172.143 11.2461H182.895V9.24609H172.143V11.2461ZM181.895 10.2461V43H183.895V10.2461H181.895ZM182.895 42H174.252V44H182.895V42ZM175.252 43V29.9336H173.252V43H175.252ZM175.252 29.9336C175.252 28.8831 175.291 27.722 175.368 26.4492L173.371 26.3282C173.292 27.6335 173.252 28.8357 173.252 29.9336H175.252ZM175.368 26.4483C175.445 25.1469 175.533 23.9248 175.63 22.7817L173.637 22.6128C173.538 23.7744 173.45 25.0133 173.371 26.3291L175.368 26.4483ZM175.63 22.7817C175.727 21.6279 175.796 20.7515 175.836 20.1564L173.84 20.0233C173.802 20.6 173.734 21.4619 173.637 22.6128L175.63 22.7817ZM174.003 19.5406L158.944 42.4507L160.615 43.5493L175.674 20.6391L174.003 19.5406ZM159.78 42H149.057V44H159.78V42ZM150.057 43V10.2461H148.057V43H150.057ZM149.057 11.2461H157.7V9.24609H149.057V11.2461ZM201.385 10.2461H202.385V9.24609H201.385V10.2461ZM201.385 22.8438H200.385V23.8438H201.385V22.8438ZM213.865 22.8438V23.8438H214.865V22.8438H213.865ZM213.865 10.2461V9.24609H212.865V10.2461H213.865ZM222.801 10.2461H223.801V9.24609H222.801V10.2461ZM222.801 43V44H223.801V43H222.801ZM213.865 43H212.865V44H213.865V43ZM213.865 29.4941H214.865V28.4941H213.865V29.4941ZM201.385 29.4941V28.4941H200.385V29.4941H201.385ZM201.385 43V44H202.385V43H201.385ZM192.449 43H191.449V44H192.449V43ZM192.449 10.2461V9.24609H191.449V10.2461H192.449ZM200.385 10.2461V22.8438H202.385V10.2461H200.385ZM201.385 23.8438H213.865V21.8438H201.385V23.8438ZM214.865 22.8438V10.2461H212.865V22.8438H214.865ZM213.865 11.2461H222.801V9.24609H213.865V11.2461ZM221.801 10.2461V43H223.801V10.2461H221.801ZM222.801 42H213.865V44H222.801V42ZM214.865 43V29.4941H212.865V43H214.865ZM213.865 28.4941H201.385V30.4941H213.865V28.4941ZM200.385 29.4941V43H202.385V29.4941H200.385ZM201.385 42H192.449V44H201.385V42ZM193.449 43V10.2461H191.449V43H193.449ZM192.449 11.2461H201.385V9.24609H192.449V11.2461ZM259.367 43V44H260.367V43H259.367ZM253.127 43L252.194 43.3619L252.442 44H253.127V43ZM251.398 38.5469L252.33 38.185L252.083 37.5469H251.398V38.5469ZM251.164 38.5469V37.5469H250.683L250.383 37.9222L251.164 38.5469ZM235.08 42.4727L234.642 43.3717L234.646 43.3738L235.08 42.4727ZM231.476 39.0742L230.607 39.5692L230.61 39.5739L231.476 39.0742ZM233.82 25.5391L234.378 26.3691L234.382 26.366L233.82 25.5391ZM244.806 22.7852L244.775 21.7856L244.77 21.7858L244.806 22.7852ZM250.49 22.6094L250.521 23.6089L251.49 23.5789V22.6094H250.49ZM236.164 18.5664L235.266 19.0066L235.691 19.8744L236.573 19.4788L236.164 18.5664ZM233.205 12.5312L232.738 11.647L231.88 12.1001L232.307 12.9715L233.205 12.5312ZM239.035 10.3633L238.798 9.39161L238.796 9.39211L239.035 10.3633ZM250.49 27.8242H251.49V26.7897L250.456 26.8248L250.49 27.8242ZM247.033 27.9414L247.06 28.9411L247.067 28.9408L247.033 27.9414ZM240.998 29.4941L240.352 28.7302L240.346 28.7358L240.998 29.4941ZM240.529 36.2031L239.938 37.0102L239.945 37.0149L239.951 37.0195L240.529 36.2031ZM248.498 35.3535L247.849 34.5927L247.843 34.5975L248.498 35.3535ZM245.744 10.5723C250.009 10.5723 253.119 11.503 255.219 13.2179L256.484 11.6688C253.896 9.55562 250.267 8.57227 245.744 8.57227V10.5723ZM255.219 13.2179C257.265 14.8895 258.367 17.4735 258.367 21.1738H260.367C260.367 17.0617 259.124 13.8254 256.484 11.6688L255.219 13.2179ZM258.367 21.1738V43H260.367V21.1738H258.367ZM259.367 42H253.127V44H259.367V42ZM254.059 42.6381L252.33 38.185L250.466 38.9087L252.194 43.3619L254.059 42.6381ZM251.398 37.5469H251.164V39.5469H251.398V37.5469ZM250.383 37.9222C249.486 39.0436 248.586 39.9389 247.687 40.6218L248.898 42.2141C249.952 41.4126 250.967 40.3939 251.945 39.1716L250.383 37.9222ZM247.687 40.6218C246.819 41.2816 245.813 41.7747 244.657 42.0949L245.19 44.0223C246.573 43.6394 247.813 43.0387 248.898 42.2141L247.687 40.6218ZM244.657 42.0949C243.5 42.4152 242.052 42.5859 240.295 42.5859V44.5859C242.17 44.5859 243.808 44.4051 245.19 44.0223L244.657 42.0949ZM240.295 42.5859C238.492 42.5859 236.904 42.2407 235.513 41.5715L234.646 43.3738C236.341 44.189 238.23 44.5859 240.295 44.5859V42.5859ZM235.518 41.5737C234.181 40.9223 233.126 39.932 232.342 38.5745L230.61 39.5739C231.585 41.2633 232.932 42.5386 234.642 43.3716L235.518 41.5737ZM232.345 38.5793C231.576 37.2289 231.158 35.4601 231.158 33.2148H229.158C229.158 35.6962 229.619 37.8336 230.607 39.5692L232.345 38.5793ZM231.158 33.2148C231.158 30.0015 232.266 27.7881 234.378 26.3691L233.262 24.7091C230.491 26.5713 229.158 29.4751 229.158 33.2148H231.158ZM234.382 26.366C236.597 24.8602 240.037 23.9575 244.842 23.7845L244.77 21.7858C239.81 21.9644 235.926 22.8976 233.258 24.7121L234.382 26.366ZM244.837 23.7847L250.521 23.6089L250.459 21.6099L244.775 21.7856L244.837 23.7847ZM251.49 22.6094V21.1738H249.49V22.6094H251.49ZM251.49 21.1738C251.49 19.2952 250.997 17.7084 249.808 16.648L248.477 18.141C249.084 18.6822 249.49 19.615 249.49 21.1738H251.49ZM249.808 16.648C248.673 15.6364 247.157 15.1934 245.392 15.1934V17.1934C246.831 17.1934 247.815 17.5511 248.477 18.141L249.808 16.648ZM245.392 15.1934C243.714 15.1934 242.066 15.4318 240.451 15.908L241.017 17.8264C242.449 17.4041 243.906 17.1934 245.392 17.1934V15.1934ZM240.451 15.908C238.882 16.3706 237.317 16.953 235.754 17.654L236.573 19.4788C238.057 18.8127 239.539 18.2622 241.017 17.8264L240.451 15.908ZM237.062 18.1262L234.103 12.091L232.307 12.9715L235.266 19.0066L237.062 18.1262ZM233.672 13.4155C235.329 12.5402 237.194 11.8447 239.273 11.3345L238.796 9.39211C236.578 9.93656 234.557 10.6864 232.738 11.647L233.672 13.4155ZM239.271 11.3349C241.359 10.827 243.516 10.5723 245.744 10.5723V8.57227C243.362 8.57227 241.046 8.84484 238.798 9.39161L239.271 11.3349ZM250.456 26.8248L246.999 26.942L247.067 28.9408L250.524 28.8236L250.456 26.8248ZM247.006 26.9418C244.072 27.0211 241.76 27.5409 240.352 28.7303L241.643 30.258C242.501 29.5334 244.212 29.018 247.06 28.941L247.006 26.9418ZM240.346 28.7358C238.996 29.8963 238.328 31.4408 238.328 33.2734H240.328C240.328 31.9811 240.773 31.0061 241.65 30.2525L240.346 28.7358ZM238.328 33.2734C238.328 34.8298 238.791 36.1706 239.938 37.0102L241.119 35.3961C240.665 35.0638 240.328 34.4514 240.328 33.2734H238.328ZM239.951 37.0195C240.967 37.7379 242.232 38.0527 243.664 38.0527V36.0527C242.517 36.0527 241.692 35.8012 241.106 35.3867L239.951 37.0195ZM243.664 38.0527C245.791 38.0527 247.642 37.4167 249.152 36.1096L247.843 34.5975C246.736 35.5559 245.365 36.0527 243.664 36.0527V38.0527ZM249.147 36.1143C250.742 34.7539 251.49 32.8387 251.49 30.5195H249.49C249.49 32.3801 248.91 33.6875 247.849 34.5927L249.147 36.1143ZM251.49 30.5195V27.8242H249.49V30.5195H251.49Z" fill="#F3F4F6"/>
</svg>
