<svg width="446" height="373" viewBox="0 0 446 373" fill="none" xmlns="http://www.w3.org/2000/svg">
<g clip-path="url(#clip0_725_86117)">
<path d="M191.119 51.8776L48.5193 245.456C27.2723 272.68 48.5191 312 81.8877 312H364.092C397.495 312 418.707 272.68 397.494 245.456L254.86 51.8776C242.704 30.7075 206.305 30.7075 191.119 51.8776Z" fill="#F3F4F6"/>
<path d="M20.7256 354.778C26.9121 366.251 40.042 371.176 40.042 371.176C40.042 371.176 43.1417 357.5 36.9552 346.027C30.7687 334.554 17.6388 329.629 17.6388 329.629C17.6388 329.629 14.5392 343.305 20.7256 354.778Z" fill="#2F2E41"/>
<path d="M24.9763 351.004C36.1454 357.723 40.447 371.071 40.447 371.071C40.447 371.071 26.6398 373.523 15.4707 366.803C4.30158 360.083 0 346.736 0 346.736C0 346.736 13.8071 344.284 24.9763 351.004Z" fill="#D92121"/>
<path d="M275.387 17.8733H205.699V18.8688H275.387V17.8733Z" fill="#F2F2F2"/>
<path d="M256.474 18.6206H255.479V27.8293H256.474V18.6206Z" fill="#F2F2F2"/>
<path d="M226.109 18.6206H225.113V27.8293H226.109V18.6206Z" fill="#F2F2F2"/>
<path d="M310.73 65.6597H241.043V66.6552H310.73V65.6597Z" fill="#F2F2F2"/>
<path d="M260.953 56.6989H259.957V65.9076H260.953V56.6989Z" fill="#F2F2F2"/>
<path d="M291.318 56.6989H290.322V65.9076H291.318V56.6989Z" fill="#F2F2F2"/>
<path d="M403.314 88.0582H333.627V89.0538H403.314V88.0582Z" fill="#F2F2F2"/>
<path d="M353.539 79.0997H352.543V88.3084H353.539V79.0997Z" fill="#F2F2F2"/>
<path d="M383.906 79.0997H382.91V88.3084H383.906V79.0997Z" fill="#F2F2F2"/>
<path d="M396.346 319.023H326.658V320.018H396.346V319.023Z" fill="#F2F2F2"/>
<path d="M346.57 310.063H345.574V319.272H346.57V310.063Z" fill="#F2F2F2"/>
<path d="M376.937 310.063H375.941V319.272H376.937V310.063Z" fill="#F2F2F2"/>
<path d="M277.379 159.24H207.691V160.236H277.379V159.24Z" fill="#F2F2F2"/>
<path d="M227.601 150.281H226.605V159.489H227.601V150.281Z" fill="#F2F2F2"/>
<path d="M257.966 150.281H256.971V159.489H257.966V150.281Z" fill="#F2F2F2"/>
<path d="M299.285 279.203H229.598V280.198H299.285V279.203Z" fill="#F2F2F2"/>
<path d="M249.505 270.242H248.51V279.45H249.505V270.242Z" fill="#F2F2F2"/>
<path d="M279.867 270.242H278.871V279.45H279.867V270.242Z" fill="#F2F2F2"/>
<path d="M410.785 242.865H341.098V243.861H410.785V242.865Z" fill="#F2F2F2"/>
<path d="M361.005 233.906H360.01V243.114H361.005V233.906Z" fill="#F2F2F2"/>
<path d="M391.367 233.906H390.371V243.114H391.367V233.906Z" fill="#F2F2F2"/>
<path d="M180.223 349.525H62.3584V348.677H179.375V307.551H72.267L67.0638 296.712L67.8284 296.345L72.8006 306.703H180.223V349.525Z" fill="#2F2E41"/>
<path d="M78.045 370.299C82.9623 370.299 86.9485 366.313 86.9485 361.396C86.9485 356.479 82.9623 352.492 78.045 352.492C73.1278 352.492 69.1416 356.479 69.1416 361.396C69.1416 366.313 73.1278 370.299 78.045 370.299Z" fill="#374151"/>
<path d="M165.806 370.299C170.723 370.299 174.709 366.313 174.709 361.396C174.709 356.479 170.723 352.492 165.806 352.492C160.889 352.492 156.902 356.479 156.902 361.396C156.902 366.313 160.889 370.299 165.806 370.299Z" fill="#374151"/>
<path d="M269.258 177.816C272.302 177.816 274.769 175.348 274.769 172.304C274.769 169.26 272.302 166.792 269.258 166.792C266.214 166.792 263.746 169.26 263.746 172.304C263.746 175.348 266.214 177.816 269.258 177.816Z" fill="#374151"/>
<path d="M192.83 293.56H60.3502L31.6846 199.862H222.352L222.178 200.413L192.83 293.56ZM60.9774 292.712H192.209L221.196 200.71H32.8306L60.9774 292.712Z" fill="#2F2E41"/>
<path d="M182.489 288.685H66.1264L40.9483 205.586H208.418L208.265 206.075L182.489 288.685Z" fill="#F2F2F2"/>
<path d="M224.725 191.491L223.905 191.274L229.501 170.184H262.049V171.032H230.153L224.725 191.491Z" fill="#2F2E41"/>
<path d="M212.822 228.268H40.9463V229.116H212.822V228.268Z" fill="#2F2E41"/>
<path d="M202.978 259.508H50.5029V260.356H202.978V259.508Z" fill="#2F2E41"/>
<path d="M127.439 200.286H126.591V293.136H127.439V200.286Z" fill="#2F2E41"/>
<path d="M165.4 200.259L159.313 293.107L160.16 293.162L166.247 200.314L165.4 200.259Z" fill="#2F2E41"/>
<path d="M88.6432 200.258L87.7969 200.313L93.8484 293.164L94.6947 293.108L88.6432 200.258Z" fill="#2F2E41"/>
<path d="M446 370.837H0V371.833H446V370.837Z" fill="#2F2E41"/>
<path d="M296.376 30.8004C296.376 30.8004 303.652 51.5106 299.175 54.6968C294.697 57.883 314.287 83.9036 314.287 83.9036L337.796 77.5312L324.922 55.7589C324.922 55.7589 323.243 33.9866 323.243 30.8004C323.243 27.6142 296.376 30.8004 296.376 30.8004Z" fill="#FFB8B8"/>
<path opacity="0.1" d="M296.376 30.8004C296.376 30.8004 303.652 51.5106 299.175 54.6968C294.697 57.883 314.287 83.9036 314.287 83.9036L337.796 77.5312L324.922 55.7589C324.922 55.7589 323.243 33.9866 323.243 30.8004C323.243 27.6142 296.376 30.8004 296.376 30.8004Z" fill="black"/>
<path d="M284.162 178.426C284.162 178.426 282.038 204.978 284.162 218.785C286.286 232.592 289.472 270.826 289.472 270.826C289.472 270.826 289.472 343.046 301.155 344.109C312.838 345.171 321.334 346.233 322.396 341.984C323.458 337.736 317.086 335.612 320.272 333.488C323.458 331.364 324.52 323.929 320.272 315.433C316.024 306.936 320.272 220.909 320.272 220.909L340.451 275.074C340.451 275.074 342.575 319.681 344.7 326.053C346.824 332.426 342.575 344.109 350.01 345.171C357.444 346.233 365.941 339.86 370.189 337.736C374.437 335.612 363.817 335.612 365.941 334.55C368.065 333.488 374.437 330.302 372.313 329.24C370.189 328.178 368.065 277.198 368.065 277.198C368.065 277.198 362.224 168.337 354.789 164.089C347.355 159.84 342.575 167.158 342.575 167.158L284.162 178.426Z" fill="#1F2937"/>
<path d="M303.279 339.86V348.357C303.279 348.357 293.72 371.453 303.279 371.453C312.837 371.453 320.272 373.847 320.272 370.66V341.985L303.279 339.86Z" fill="#1F2937"/>
<path d="M365.944 339.846V348.342C365.944 348.342 375.503 371.438 365.944 371.438C356.386 371.438 348.951 373.832 348.951 370.645V341.97L365.944 339.846Z" fill="#1F2937"/>
<path d="M311.248 46.1989C321.806 46.1989 330.365 37.6399 330.365 27.0818C330.365 16.5236 321.806 7.9646 311.248 7.9646C300.69 7.9646 292.131 16.5236 292.131 27.0818C292.131 37.6399 300.69 46.1989 311.248 46.1989Z" fill="#FFB8B8"/>
<path d="M305.402 62.6613C305.402 62.6613 310.713 78.5922 319.209 75.406L327.706 72.2198L342.575 174.178C342.575 174.178 330.892 191.171 313.899 180.55C296.906 169.93 305.402 62.6613 305.402 62.6613Z" fill="#D92121"/>
<path d="M320.273 59.4758L325.053 49.3862C325.053 49.3862 353.197 62.662 357.446 66.9103C361.694 71.1586 361.694 77.5309 361.694 77.5309L354.26 104.083C354.26 104.083 356.384 162.496 356.384 164.62C356.384 166.744 363.818 178.427 358.508 174.179C353.197 169.931 352.135 165.682 347.887 172.055C343.639 178.427 334.08 185.862 334.08 185.862L320.273 59.4758Z" fill="#374151"/>
<path d="M357.445 135.944L354.258 165.682C354.258 165.682 335.141 182.675 339.389 183.737C343.638 184.799 345.762 180.551 345.762 180.551C345.762 180.551 353.196 187.985 357.445 183.737C361.693 179.489 372.313 139.131 372.313 139.131L357.445 135.944Z" fill="#FFB8B8"/>
<path d="M311.653 0.0644015C307.415 -0.0871041 302.879 -0.162049 299.306 2.12178C297.662 3.26794 296.22 4.67954 295.039 6.29882C291.559 10.6983 288.552 16.2339 289.844 21.6925L291.346 21.1069C291.346 22.564 291.022 24.0028 290.398 25.3193C290.609 24.7045 291.317 25.6984 291.128 26.3202L289.474 31.7463C292.192 30.7495 295.575 32.7676 295.988 35.6337C296.178 29.3313 296.831 22.1045 301.944 18.4142C304.522 16.5532 307.785 15.9851 310.924 15.4806C313.82 15.0152 316.857 14.5714 319.631 15.5249C322.405 16.4783 324.767 19.3154 324.138 22.1805C325.417 21.7399 326.848 22.6313 327.48 23.8274C328.112 25.0235 328.145 26.4344 328.164 27.7871C329.528 28.7507 331.079 26.8373 331.635 25.2629C332.939 21.5673 334.099 17.6334 333.396 13.7779C332.693 9.92239 329.552 6.23786 325.633 6.22478C326.108 5.70229 326.362 5.01526 326.34 4.309L323.11 4.03608C323.93 3.91997 324.684 3.52236 325.243 2.91135C323.947 4.33841 313.75 0.13937 311.653 0.0644015Z" fill="#2F2E41"/>
<path d="M310.714 56.2886C310.714 56.2886 302.068 47.8162 298.956 48.3352C295.845 48.8541 291.596 56.2886 291.596 56.2886C291.596 56.2886 266.107 64.7851 267.169 73.2816C268.231 81.7782 279.914 123.199 279.914 123.199C279.914 123.199 289.472 173.116 280.976 178.426C272.479 183.736 321.334 197.543 322.396 191.171C323.458 184.798 325.583 121.075 322.396 111.516C319.21 101.957 310.714 56.2886 310.714 56.2886Z" fill="#374151"/>
<path d="M347.888 73.2828H361.02C361.02 73.2828 370.191 113.641 371.253 117.89C372.315 122.138 374.439 142.317 373.377 142.317C372.315 142.317 351.074 138.069 351.074 141.255L347.888 73.2828Z" fill="#374151"/>
<path d="M347.441 173.223H297.167C292.261 150.654 291.851 128.849 297.167 108.015H347.441C339.328 128.474 338.821 150.13 347.441 173.223Z" fill="#F2F2F2"/>
<path d="M276.726 145.503L291.594 151.875C291.594 151.875 320.27 156.123 320.27 144.441C320.27 132.758 291.594 139.13 291.594 139.13L282.035 136.074L276.726 145.503Z" fill="#FFB8B8"/>
<path d="M279.912 66.9102L267.168 70.0964L257.609 126.386C257.609 126.386 254.423 141.255 259.733 142.317C265.044 143.379 279.912 151.875 279.912 151.875C279.912 151.875 282.037 135.944 286.285 135.944L275.664 127.448L282.037 90.2756L279.912 66.9102Z" fill="#374151"/>
<path d="M99.6758 175.665H29.9883V176.661H99.6758V175.665Z" fill="#F2F2F2"/>
<path d="M49.8979 166.707H48.9023V175.915H49.8979V166.707Z" fill="#F2F2F2"/>
<path d="M80.2631 166.707H79.2676V175.915H80.2631V166.707Z" fill="#F2F2F2"/>
<path d="M124.066 28.3264H54.3789V29.322H124.066V28.3264Z" fill="#F2F2F2"/>
<path d="M105.156 29.0737H104.16V38.2824H105.156V29.0737Z" fill="#F2F2F2"/>
<path d="M74.7885 29.0737H73.793V38.2824H74.7885V29.0737Z" fill="#F2F2F2"/>
<path d="M194.252 126.386H124.564V127.382H194.252V126.386Z" fill="#F2F2F2"/>
<path d="M175.335 127.134H174.34V136.342H175.335V127.134Z" fill="#F2F2F2"/>
<path d="M144.974 127.134H143.979V136.342H144.974V127.134Z" fill="#F2F2F2"/>
<path d="M75.7832 125.89H6.0957V126.886H75.7832V125.89Z" fill="#F2F2F2"/>
<path d="M56.8666 126.636H55.8711V135.845H56.8666V126.636Z" fill="#F2F2F2"/>
<path d="M26.5053 126.636H25.5098V135.845H26.5053V126.636Z" fill="#F2F2F2"/>
<path d="M159.408 76.1128H89.7207V77.1083H159.408V76.1128Z" fill="#F2F2F2"/>
<path d="M109.632 67.152H108.637V76.3607H109.632V67.152Z" fill="#F2F2F2"/>
<path d="M139.999 67.152H139.004V76.3607H139.999V67.152Z" fill="#F2F2F2"/>
</g>
<defs>
<clipPath id="clip0_725_86117">
<rect width="446" height="372.316" fill="white"/>
</clipPath>
</defs>
</svg>
