<svg width="22" height="22" viewBox="0 0 22 22" fill="none" xmlns="http://www.w3.org/2000/svg">
<path d="M12.8335 5.5H15.5835C15.8266 5.5 16.0598 5.59658 16.2317 5.76849C16.4036 5.94039 16.5002 6.17355 16.5002 6.41667V12.8333" stroke="#9CA3AF" stroke-width="1.96364" stroke-linecap="round" stroke-linejoin="round"/>
<path d="M7.33317 5.5H4.58317C4.34006 5.5 4.1069 5.59658 3.93499 5.76849C3.76308 5.94039 3.6665 6.17355 3.6665 6.41667V18.3333C3.6665 18.5764 3.76308 18.8096 3.93499 18.9815C4.1069 19.1534 4.34006 19.25 4.58317 19.25H10.0832" stroke="#9CA3AF" stroke-width="1.96364" stroke-linecap="round" stroke-linejoin="round"/>
<path d="M12.8335 17.4167L14.6668 19.25L18.3335 15.5833M11.9168 4.58333C11.9168 4.0971 11.7237 3.63079 11.3799 3.28697C11.036 2.94315 10.5697 2.75 10.0835 2.75C9.59727 2.75 9.13095 2.94315 8.78713 3.28697C8.44332 3.63079 8.25016 4.0971 8.25016 4.58333V4.58333C8.00705 4.58333 7.77389 4.67991 7.60198 4.85182C7.43007 5.02373 7.3335 5.25688 7.3335 5.5V7.33333H12.8335V5.5C12.8335 5.25688 12.7369 5.02373 12.565 4.85182C12.3931 4.67991 12.1599 4.58333 11.9168 4.58333ZM7.3335 15.5833H10.0835H7.3335ZM7.3335 11.9167H12.8335H7.3335Z" stroke="#9CA3AF" stroke-width="1.96364" stroke-linecap="round" stroke-linejoin="round"/>
</svg>
