<svg width="22" height="22" viewBox="0 0 22 22" fill="none" xmlns="http://www.w3.org/2000/svg">
<path d="M19.25 8.25H2.75M18.3333 17.4167H3.66667C3.42355 17.4167 3.19039 17.3201 3.01849 17.1482C2.84658 16.9763 2.75 16.7431 2.75 16.5V5.5C2.75 5.25689 2.84658 5.02373 3.01849 4.85182C3.19039 4.67991 3.42355 4.58334 3.66667 4.58334H18.3333C18.5764 4.58334 18.8096 4.67991 18.9815 4.85182C19.1534 5.02373 19.25 5.25689 19.25 5.5V16.5C19.25 16.7431 19.1534 16.9763 18.9815 17.1482C18.8096 17.3201 18.5764 17.4167 18.3333 17.4167ZM10.0833 13.75H6.41667H10.0833ZM15.5833 13.75H13.75H15.5833Z" stroke="#9CA3AF" stroke-width="1.8" stroke-linecap="round" stroke-linejoin="round"/>
</svg>
