<svg width="30" height="30" viewBox="0 0 30 30" fill="none" xmlns="http://www.w3.org/2000/svg">
<path d="M23.75 11.25H25C25.3315 11.25 25.6495 11.3817 25.8839 11.6161C26.1183 11.8505 26.25 12.1685 26.25 12.5V25C26.25 25.3315 26.1183 25.6495 25.8839 25.8839C25.6495 26.1183 25.3315 26.25 25 26.25H5C4.66848 26.25 4.35054 26.1183 4.11612 25.8839C3.8817 25.6495 3.75 25.3315 3.75 25V12.5C3.75 12.1685 3.8817 11.8505 4.11612 11.6161C4.35054 11.3817 4.66848 11.25 5 11.25H15" stroke="white" stroke-width="2" stroke-linecap="round" stroke-linejoin="round"/>
<path d="M10 21.25L13.75 11.25L10 21.25ZM26.25 21.25H3.75H26.25ZM18.75 26.25V21.25V26.25ZM23.75 8.125C23.75 6.96468 23.2891 5.85188 22.4686 5.03141C21.6481 4.21094 20.5353 3.75 19.375 3.75C18.2147 3.75 17.1019 4.21094 16.2814 5.03141C15.4609 5.85188 15 6.96468 15 8.125C15 12.5 19.375 16.25 19.375 16.25C19.375 16.25 23.75 12.5 23.75 8.125Z" stroke="white" stroke-width="2" stroke-linecap="round" stroke-linejoin="round"/>
</svg>
