<svg width="22" height="22" viewBox="0 0 22 22" fill="none" xmlns="http://www.w3.org/2000/svg">
<path d="M8.406 15.5833H11.9168V5.5C11.9168 5.25689 11.8203 5.02373 11.6483 4.85182C11.4764 4.67991 11.2433 4.58334 11.0002 4.58334H4.5835" stroke="#9CA3AF" stroke-width="1.8" stroke-linecap="round" stroke-linejoin="round"/>
<path d="M2.75 11.9167V14.6667C2.75 14.9098 2.84658 15.1429 3.01849 15.3148C3.19039 15.4868 3.42355 15.5833 3.66667 15.5833H4.46417" stroke="#9CA3AF" stroke-width="1.8" stroke-linecap="round" stroke-linejoin="round"/>
<path d="M13.6307 15.5833H11.9165V6.41666H15.8123C16.0181 6.40906 16.2204 6.47093 16.3867 6.59233C16.553 6.71372 16.6736 6.88755 16.729 7.08583L17.4165 9.625L18.5532 9.90916C18.7566 9.95935 18.9366 10.0777 19.0634 10.2445C19.1901 10.4113 19.2559 10.6164 19.2498 10.8258V14.6667C19.2498 14.9098 19.1533 15.1429 18.9814 15.3148C18.8094 15.4868 18.5763 15.5833 18.3332 15.5833H17.5173" stroke="#9CA3AF" stroke-width="1.8" stroke-linecap="round" stroke-linejoin="round"/>
<path d="M2.75 8.25H8.25M6.41667 13.75C6.05407 13.75 5.69961 13.8575 5.39812 14.059C5.09663 14.2604 4.86165 14.5467 4.72289 14.8817C4.58413 15.2167 4.54782 15.5854 4.61856 15.941C4.6893 16.2966 4.86391 16.6233 5.1203 16.8797C5.3767 17.1361 5.70337 17.3107 6.059 17.3814C6.41463 17.4522 6.78326 17.4159 7.11825 17.2771C7.45325 17.1384 7.73958 16.9034 7.94103 16.6019C8.14248 16.3004 8.25 15.9459 8.25 15.5833C8.25 15.0971 8.05685 14.6308 7.71303 14.287C7.36921 13.9432 6.9029 13.75 6.41667 13.75ZM15.5833 13.75C15.2207 13.75 14.8663 13.8575 14.5648 14.059C14.2633 14.2604 14.0283 14.5467 13.8896 14.8817C13.7508 15.2167 13.7145 15.5854 13.7852 15.941C13.856 16.2966 14.0306 16.6233 14.287 16.8797C14.5434 17.1361 14.87 17.3107 15.2257 17.3814C15.5813 17.4522 15.9499 17.4159 16.2849 17.2771C16.6199 17.1384 16.9062 16.9034 17.1077 16.6019C17.3091 16.3004 17.4167 15.9459 17.4167 15.5833C17.4167 15.0971 17.2235 14.6308 16.8797 14.287C16.5359 13.9432 16.0696 13.75 15.5833 13.75Z" stroke="#9CA3AF" stroke-width="1.8" stroke-linecap="round" stroke-linejoin="round"/>
</svg>
