<svg width="16" height="19" viewBox="0 0 16 19" fill="none" xmlns="http://www.w3.org/2000/svg">
<path d="M5.99977 11.5L9.99977 7.50001L5.99977 11.5ZM13.4798 7.72001C13.2798 7.11334 13.4131 6.33334 13.0464 5.83334C12.6798 5.33334 11.8931 5.20667 11.3864 4.83334C10.8798 4.46001 10.5331 3.76001 9.92643 3.56667C9.31977 3.37334 8.66643 3.74001 7.99977 3.74001C7.3331 3.74001 6.66643 3.37334 6.0731 3.56667C5.47977 3.76001 5.11977 4.47334 4.6131 4.83334C4.10643 5.19334 3.3331 5.32001 2.9531 5.83334C2.5731 6.34667 2.71977 7.11334 2.51977 7.72001C2.31977 8.32667 1.75977 8.83334 1.75977 9.50001C1.75977 10.1667 2.3331 10.6933 2.51977 11.28C2.70643 11.8667 2.58643 12.6667 2.9531 13.1667C3.31977 13.6667 4.10643 13.7933 4.6131 14.16C5.11977 14.5267 5.46643 15.24 6.0731 15.4333C6.67977 15.6267 7.3331 15.26 7.99977 15.26C8.66643 15.26 9.3331 15.6267 9.92643 15.4333C10.5198 15.24 10.8798 14.5267 11.3864 14.16C11.8931 13.7933 12.6798 13.68 13.0464 13.1667C13.4131 12.6533 13.2798 11.8867 13.4798 11.28C13.6798 10.6733 14.2398 10.1667 14.2398 9.50001C14.2398 8.83334 13.6664 8.30667 13.4798 7.72001Z" stroke="white" stroke-width="1.33333" stroke-linecap="round" stroke-linejoin="round"/>
<path d="M6.30029 7.83334H6.36696" stroke="white" stroke-width="1.33333" stroke-linecap="round" stroke-linejoin="round"/>
<path d="M9.6333 11.1667H9.69997" stroke="white" stroke-width="1.33333" stroke-linecap="round" stroke-linejoin="round"/>
</svg>
