<svg width="343" height="254" viewBox="0 0 343 254" fill="none" xmlns="http://www.w3.org/2000/svg">
<g clip-path="url(#clip0_7538_322936)">
<path d="M292.078 191.223H32.4015C29.6579 191.219 27.0275 190.126 25.0875 188.183C23.1475 186.24 22.0563 183.605 22.0532 180.857V51.4035C22.0563 48.6554 23.1476 46.0206 25.0876 44.0774C27.0276 42.1342 29.6579 41.0411 32.4015 41.038H292.078C294.822 41.0411 297.452 42.1342 299.392 44.0774C301.332 46.0206 302.423 48.6554 302.427 51.4035V180.857C302.424 183.605 301.332 186.24 299.392 188.183C297.452 190.126 294.822 191.219 292.078 191.223Z" fill="#E5E7EB"/>
<rect x="231.402" y="48.4803" width="39.9999" height="39.9999" rx="5.99998" fill="#F3F4F6"/>
<path d="M258.973 61.9203C259.889 62.8405 260.404 64.0864 260.404 65.3853C260.404 66.6841 259.889 67.93 258.973 68.8503L251.403 76.4803L243.833 68.8503C243.152 68.1649 242.688 67.294 242.5 66.3465C242.312 65.399 242.408 64.4171 242.775 63.5236C243.142 62.6301 243.765 61.8648 244.565 61.3235C245.365 60.7822 246.307 60.4889 247.273 60.4803C248.564 60.4881 249.801 61.0056 250.713 61.9203C250.979 62.1835 251.211 62.4792 251.403 62.8003C251.595 62.4792 251.827 62.1835 252.093 61.9203C252.542 61.4643 253.078 61.1023 253.668 60.8551C254.259 60.608 254.893 60.4808 255.533 60.4808C256.173 60.4808 256.807 60.608 257.397 60.8551C257.988 61.1023 258.523 61.4643 258.973 61.9203V61.9203Z" stroke="#D92121" stroke-width="2" stroke-linecap="round" stroke-linejoin="round"/>
<path d="M291.223 254H276.719C276.504 253.609 276.304 253.209 276.119 252.803C274.45 249.224 273.745 245.229 273.071 241.314L271.976 234.956C275.474 237.504 278.971 240.051 282.466 242.596C283.606 243.427 284.77 244.293 285.865 245.229C288.169 247.186 290.158 249.449 290.937 252.323C290.978 252.483 291.018 252.643 291.048 252.803C291.131 253.198 291.189 253.598 291.223 254Z" fill="#F0F0F0"/>
<path d="M293.254 252.803C293.255 252.828 293.253 252.853 293.249 252.878C293.201 253.26 293.11 253.636 292.979 253.999H286.467C286.262 253.615 286.089 253.215 285.948 252.803C285.75 252.253 285.607 251.684 285.523 251.106C285.306 249.141 285.421 247.155 285.862 245.228C285.987 244.603 286.122 243.972 286.257 243.351L287.027 239.807L290.88 246.009C292.17 248.087 293.509 250.375 293.254 252.803Z" fill="#F0F0F0"/>
<path d="M342.505 18.2981H0.497289C0.364655 18.2952 0.238449 18.2403 0.145687 18.1453C0.0529242 18.0503 0.000976562 17.9227 0.000976562 17.7898C0.000976562 17.6569 0.0529242 17.5293 0.145687 17.4343C0.238449 17.3393 0.364655 17.2845 0.497289 17.2815H342.505C342.637 17.2845 342.763 17.3393 342.856 17.4343C342.949 17.5293 343.001 17.6569 343.001 17.7898C343.001 17.9227 342.949 18.0503 342.856 18.1453C342.763 18.2403 342.637 18.2952 342.505 18.2981Z" fill="#CACACA"/>
<path d="M11.6697 11.1824C14.6853 11.1824 17.1299 8.67907 17.1299 5.5911C17.1299 2.50312 14.6853 -0.000183105 11.6697 -0.000183105C8.65409 -0.000183105 6.20947 2.50312 6.20947 5.5911C6.20947 8.67907 8.65409 11.1824 11.6697 11.1824Z" fill="#3F3D56"/>
<path d="M30.532 11.1824C33.5476 11.1824 35.9922 8.67907 35.9922 5.5911C35.9922 2.50312 33.5476 -0.000183105 30.532 -0.000183105C27.5164 -0.000183105 25.0718 2.50312 25.0718 5.5911C25.0718 8.67907 27.5164 11.1824 30.532 11.1824Z" fill="#3F3D56"/>
<path d="M49.3918 11.1824C52.4074 11.1824 54.852 8.67907 54.852 5.5911C54.852 2.50312 52.4074 -0.000183105 49.3918 -0.000183105C46.3763 -0.000183105 43.9316 2.50312 43.9316 5.5911C43.9316 8.67907 46.3763 11.1824 49.3918 11.1824Z" fill="#3F3D56"/>
<path d="M331.203 3.41931H317.8C317.535 3.41344 317.283 3.30376 317.097 3.11375C316.912 2.92374 316.808 2.66851 316.808 2.40271C316.808 2.13691 316.912 1.88168 317.097 1.69167C317.283 1.50166 317.535 1.39198 317.8 1.38611H331.203C331.468 1.39198 331.72 1.50166 331.906 1.69167C332.091 1.88168 332.195 2.13691 332.195 2.40271C332.195 2.66851 332.091 2.92374 331.906 3.11375C331.72 3.30376 331.468 3.41344 331.203 3.41931Z" fill="#3F3D56"/>
<path d="M331.203 7.23186H317.8C317.535 7.22599 317.283 7.11631 317.097 6.9263C316.912 6.73629 316.808 6.48106 316.808 6.21526C316.808 5.94947 316.912 5.69424 317.097 5.50423C317.283 5.31422 317.535 5.20454 317.8 5.19867H331.203C331.468 5.20454 331.72 5.31422 331.906 5.50423C332.091 5.69424 332.195 5.94947 332.195 6.21526C332.195 6.48106 332.091 6.73629 331.906 6.9263C331.72 7.11631 331.468 7.22599 331.203 7.23186Z" fill="#3F3D56"/>
<path d="M331.203 11.044H317.8C317.535 11.0382 317.283 10.9285 317.097 10.7385C316.912 10.5485 316.808 10.2932 316.808 10.0274C316.808 9.76165 316.912 9.50642 317.097 9.31641C317.283 9.1264 317.535 9.01672 317.8 9.01085H331.203C331.468 9.01672 331.72 9.1264 331.906 9.31641C332.091 9.50642 332.195 9.76165 332.195 10.0274C332.195 10.2932 332.091 10.5485 331.906 10.7385C331.72 10.9285 331.468 11.0382 331.203 11.044Z" fill="#3F3D56"/>
<path d="M320.501 245.802H60.8238C58.0802 245.799 55.4499 244.658 53.5099 242.631C51.5699 240.603 50.4787 237.854 50.4756 234.987V99.924C50.4787 97.0567 51.57 94.3078 53.51 92.2804C55.45 90.253 58.0803 89.1125 60.8238 89.1093H320.501C323.244 89.1125 325.875 90.2529 327.815 92.2804C329.755 94.3078 330.846 97.0567 330.849 99.924V234.987C330.846 237.854 329.755 240.603 327.815 242.631C325.875 244.658 323.244 245.799 320.501 245.802Z" fill="white"/>
<path d="M320.501 245.802H60.8238C58.0802 245.799 55.4499 244.658 53.5099 242.631C51.5699 240.603 50.4787 237.854 50.4756 234.987V99.924C50.4787 97.0567 51.57 94.3078 53.51 92.2804C55.45 90.253 58.0803 89.1125 60.8238 89.1093H320.501C323.244 89.1125 325.875 90.2529 327.815 92.2804C329.755 94.3078 330.846 97.0567 330.849 99.924V234.987C330.846 237.854 329.755 240.603 327.815 242.631C325.875 244.658 323.244 245.799 320.501 245.802ZM60.8238 90.6762C58.4778 90.679 56.2286 91.6542 54.5697 93.3879C52.9108 95.1216 51.9776 97.4722 51.9749 99.924V234.987C51.9775 237.439 52.9107 239.79 54.5696 241.523C56.2285 243.257 58.4777 244.232 60.8238 244.235H320.501C322.847 244.232 325.096 243.257 326.755 241.523C328.414 239.79 329.347 237.439 329.35 234.987V99.924C329.347 97.4722 328.414 95.1216 326.755 93.3879C325.096 91.6542 322.847 90.679 320.501 90.6762H60.8238Z" fill="#E4E4E4"/>
<path d="M331.175 163.767C330.721 163.329 330.368 162.797 330.142 162.207C329.916 161.618 329.821 160.986 329.865 160.356C329.909 159.726 330.09 159.113 330.396 158.561C330.702 158.009 331.125 157.53 331.635 157.16L327.202 142.466L334.834 144.743L337.874 158.347C338.439 159.247 338.655 160.324 338.48 161.373C338.306 162.421 337.753 163.37 336.928 164.038C336.102 164.706 335.06 165.047 334 164.997C332.94 164.948 331.935 164.51 331.175 163.767Z" fill="#FFB8B8"/>
<path d="M259.211 76.3877C259.13 77.0139 259.187 77.6504 259.378 78.2521C259.57 78.8539 259.89 79.4064 260.318 79.8706C260.745 80.3348 261.269 80.6995 261.852 80.939C262.436 81.1785 263.064 81.287 263.694 81.2568L269.404 95.5019L273.94 88.9452L267.822 76.4231C267.701 75.3668 267.198 74.3915 266.407 73.6821C265.617 72.9728 264.594 72.5786 263.532 72.5742C262.471 72.5698 261.445 72.9556 260.648 73.6585C259.852 74.3613 259.34 75.3324 259.211 76.3877Z" fill="#FFB8B8"/>
<path d="M323.59 247.71H318.332L315.831 227.396L323.591 227.397L323.59 247.71Z" fill="#FFB8B8"/>
<path d="M324.929 252.815L307.977 252.814V252.6C307.977 250.847 308.672 249.166 309.909 247.926C311.147 246.687 312.825 245.99 314.575 245.99H314.575L324.929 245.991L324.929 252.815Z" fill="#1F2937"/>
<path d="M306.385 247.543L301.373 245.953L305.109 225.831L312.507 228.177L306.385 247.543Z" fill="#FFB8B8"/>
<path d="M306.125 252.815L289.963 247.69L290.028 247.485C290.556 245.814 291.726 244.421 293.279 243.614C294.832 242.806 296.642 242.649 298.31 243.178L298.311 243.178L308.182 246.309L306.125 252.815Z" fill="#1F2937"/>
<path d="M300.16 148.43C300.16 148.43 292.359 160.699 295.116 171.65C297.872 182.6 300.874 203.649 300.874 203.649L315.82 239.279L326.962 238.824L315.898 196.815L316.335 168.727C316.335 168.727 324.025 155.304 322.528 151.125C321.03 146.946 300.16 148.43 300.16 148.43Z" fill="#1F2937"/>
<path d="M325.645 152.817C325.645 152.817 326.605 164.989 323.603 170.143C320.601 175.298 317.402 194.918 317.402 194.918L312.3 234.157L301.731 230.712L310.743 186.749L317.827 152.167L325.645 152.817Z" fill="#1F2937"/>
<path d="M329.391 93.8949L321.145 88.2175L308.597 87.8524L304.227 92.1437L297.558 95.5547L296.941 151.125C296.941 151.125 316.91 160.713 327.653 156.085L332.822 112.796C334.966 104.204 329.391 93.8949 329.391 93.8949Z" fill="#374151"/>
<path d="M299.233 110.405H277.238L262.788 85.4889L272.184 81.7609L280.141 95.94L291.659 94.8958L298.85 94.5474C300.003 94.4916 301.154 94.6887 302.222 95.1249C303.291 95.5611 304.251 96.2258 305.036 97.0727C305.821 97.9195 306.412 98.9279 306.768 100.027C307.123 101.127 307.235 102.291 307.094 103.438C306.856 105.36 305.926 107.128 304.479 108.411C303.031 109.694 301.166 110.403 299.233 110.405Z" fill="#374151"/>
<path d="M315.894 83.2765C321.903 83.2765 326.774 78.3972 326.774 72.3783C326.774 66.3595 321.903 61.4802 315.894 61.4802C309.885 61.4802 305.014 66.3595 305.014 72.3783C305.014 78.3972 309.885 83.2765 315.894 83.2765Z" fill="#FFB8B8"/>
<path d="M329.004 69.8989C328.67 67.5063 327.052 65.2345 324.751 64.5096C323.837 61.8512 321.417 59.894 318.742 59.0409C316.265 58.2498 313.596 58.3047 311.154 59.197C308.712 60.0892 306.634 61.7683 305.247 63.9709C305.043 64.2932 304.413 65.0852 304.431 65.4699C304.453 65.9584 305.2 66.4629 305.574 66.7709C306.503 67.4901 307.505 68.1095 308.564 68.619C312.476 70.6507 311.174 73.8436 311.12 77.4618C311.095 79.2201 311.681 80.7214 313.177 81.7257C315.338 83.1751 318.429 82.5985 320.779 82.0168C323.446 81.3566 325.664 79.0098 327.185 76.747C328.532 74.743 329.338 72.2914 329.004 69.8989Z" fill="#1F2937"/>
<path d="M328.894 107.87L338.12 153.655L324.519 154.401L328.894 107.87Z" fill="#374151"/>
<path d="M338.421 253.399C338.422 253.478 338.407 253.556 338.377 253.628C338.347 253.701 338.303 253.767 338.248 253.823C338.193 253.879 338.127 253.923 338.055 253.954C337.983 253.984 337.905 254 337.827 254H267.209C267.05 254 266.898 253.937 266.786 253.825C266.674 253.713 266.611 253.56 266.611 253.402C266.611 253.243 266.674 253.091 266.786 252.979C266.898 252.867 267.05 252.804 267.209 252.804H337.827C337.984 252.804 338.135 252.867 338.247 252.978C338.358 253.09 338.421 253.241 338.421 253.399Z" fill="#CACACA"/>
<path d="M222.582 170.742L212.835 180.377L190.808 202.15L190.362 202.59L187.879 205.044L182.672 199.891L182.213 199.438L172.694 190.02H172.692L169.641 187L167.839 185.215L162.472 179.906L161.747 179.188L153.192 170.723C151.492 169.021 150.052 167.078 148.916 164.956C148.812 164.766 148.714 164.574 148.618 164.382C146.59 160.331 145.722 155.795 146.111 151.279C146.5 146.763 148.131 142.443 150.822 138.8C153.514 135.156 157.161 132.331 161.359 130.638C165.557 128.945 170.141 128.45 174.602 129.209H174.604C174.684 129.222 174.761 129.234 174.84 129.251C175.677 129.399 176.505 129.592 177.321 129.829C179.457 130.448 181.498 131.356 183.389 132.528C183.587 132.651 183.782 132.776 183.976 132.903C185.362 133.821 186.651 134.876 187.824 136.053L187.897 135.98L187.97 136.053C188.681 135.341 189.435 134.673 190.227 134.053C190.4 133.918 190.575 133.784 190.75 133.655C193.429 131.676 196.484 130.265 199.726 129.509C202.969 128.754 206.331 128.669 209.608 129.259C210.446 129.407 211.275 129.601 212.091 129.84C212.364 129.917 212.635 130 212.904 130.09C213.121 130.161 213.337 130.234 213.552 130.313C215.339 130.953 217.044 131.801 218.634 132.839C218.982 133.066 219.325 133.304 219.663 133.553C222.526 135.637 224.904 138.319 226.633 141.413C228.362 144.506 229.401 147.939 229.678 151.473C229.956 155.008 229.465 158.561 228.24 161.887C227.015 165.213 225.085 168.234 222.582 170.742Z" fill="#F3F4F6"/>
<path d="M228.851 136.455C225.82 133.411 222.047 131.213 217.906 130.079C217.631 130.002 217.358 129.933 217.081 129.869C215.889 129.583 214.678 129.389 213.457 129.286C213.245 129.265 213.032 129.251 212.818 129.24C211.747 129.173 210.673 129.177 209.603 129.253C203.741 129.646 198.212 132.121 194.01 136.234L193.935 136.159L193.86 136.234C191.114 133.551 187.783 131.544 184.13 130.374C183.923 130.307 183.715 130.242 183.507 130.182C180.693 129.364 177.757 129.05 174.835 129.253C174.754 129.257 174.672 129.263 174.593 129.272C169.234 129.683 164.157 131.838 160.133 135.408C159.754 135.742 159.381 136.092 159.019 136.455C155.613 139.873 153.274 144.211 152.289 148.938C151.303 153.665 151.713 158.578 153.468 163.076C153.541 163.272 153.62 163.466 153.704 163.66C154.944 166.622 156.749 169.312 159.019 171.58L167.128 179.599L167.765 180.231L185.313 197.581L185.765 198.029L190.374 202.588L193.935 206.108L228.851 171.578C233.494 166.917 236.101 160.601 236.101 154.017C236.101 147.432 233.494 141.116 228.851 136.455ZM228.411 171.134L193.935 205.228L190.82 202.147L186.309 197.687L185.857 197.241L168.651 180.225L168.024 179.605L159.46 171.136C157.262 168.939 155.51 166.337 154.302 163.472C154.218 163.278 154.139 163.084 154.066 162.89C152.344 158.501 151.937 153.705 152.895 149.088C153.853 144.472 156.135 140.235 159.46 136.898C159.848 136.51 160.245 136.138 160.65 135.783H160.652C164.523 132.39 169.378 130.331 174.504 129.906C175.185 129.848 175.867 129.819 176.55 129.819C176.806 129.819 177.06 129.823 177.316 129.831C179.41 129.896 181.487 130.232 183.494 130.833C183.7 130.893 183.907 130.958 184.111 131.027C186.282 131.736 188.34 132.754 190.222 134.051C191.447 134.892 192.591 135.845 193.641 136.898L193.862 137.119L193.935 137.046L194.008 137.119L194.228 136.898C196.563 134.557 199.353 132.722 202.425 131.506C205.497 130.29 208.785 129.72 212.086 129.831C212.351 129.839 212.616 129.852 212.88 129.871C213.093 129.883 213.305 129.898 213.516 129.919C214.859 130.039 216.189 130.273 217.493 130.618C217.772 130.689 218.05 130.766 218.325 130.852C222.322 132.063 225.938 134.291 228.819 137.319C231.701 140.347 233.75 144.071 234.766 148.129C235.782 152.187 235.73 156.439 234.617 160.471C233.503 164.503 231.365 168.176 228.411 171.134Z" fill="#D1D5DB"/>
<rect x="68.4473" y="62.398" width="150.735" height="12.3256" rx="5.99998" fill="#F3F4F6"/>
</g>
<defs>
<clipPath id="clip0_7538_322936">
<rect width="343" height="254" fill="white"/>
</clipPath>
</defs>
</svg>
