<svg width="20" height="20" viewBox="0 0 20 20" fill="none" xmlns="http://www.w3.org/2000/svg">
<path d="M4.16663 3.33333V5.53333C4.16625 5.72804 4.23406 5.91674 4.35829 6.06667L8.14163 10.6C8.26586 10.7499 8.33367 10.9386 8.33329 11.1333V17.5L11.6666 15.8333V11.1333C11.6662 10.9386 11.7341 10.7499 11.8583 10.6L15.6416 6.06667C15.7659 5.91674 15.8337 5.72804 15.8333 5.53333V3.33333C15.8333 3.11232 15.7455 2.90036 15.5892 2.74408C15.4329 2.5878 15.221 2.5 15 2.5H4.99996C4.77895 2.5 4.56699 2.5878 4.41071 2.74408C4.25443 2.90036 4.16663 3.11232 4.16663 3.33333V3.33333Z" stroke="#013252" stroke-width="1.67" stroke-linecap="round" stroke-linejoin="round"/>
</svg>
