<svg width="25" height="26" viewBox="0 0 25 26" fill="none" xmlns="http://www.w3.org/2000/svg">
<rect x="1.23828" y="14.0317" width="9.90475" height="11.9682" fill="white"/>
<rect x="13.207" y="14.0317" width="9.90475" height="11.9682" fill="white"/>
<rect x="13.207" y="8.25415" width="11.5555" height="4.53968" fill="white"/>
<rect y="8.25403" width="11.1428" height="4.53968" fill="white"/>
<path fill-rule="evenodd" clip-rule="evenodd" d="M12.7107 7.23194C11.8638 5.43278 17.5455 -2.55124 21.8192 0.822243C27.6912 5.45736 13.6103 9.1436 12.7107 7.23194ZM13.497 6.66973C12.977 5.57292 17.7699 0.58619 20.1316 2.3966C23.5052 4.98279 13.9468 7.34443 13.497 6.66973Z" fill="white"/>
<path fill-rule="evenodd" clip-rule="evenodd" d="M11.3596 7.23194C12.2065 5.43278 6.52483 -2.55124 2.25113 0.822243C-3.62088 5.45736 10.46 9.1436 11.3596 7.23194ZM10.5733 6.66973C11.0933 5.57292 6.3004 0.58619 3.93873 2.3966C0.565082 4.98279 10.1235 7.34443 10.5733 6.66973Z" fill="white"/>
</svg>
