<svg width="17" height="26" viewBox="0 0 17 26" fill="none" xmlns="http://www.w3.org/2000/svg">
<path d="M1.5 3.625C1.5 3.12772 1.70695 2.65081 2.07533 2.29917C2.4437 1.94754 2.94333 1.75 3.46429 1.75H13.2857C13.8067 1.75 14.3063 1.94754 14.6747 2.29917C15.043 2.65081 15.25 3.12772 15.25 3.625V22.375C15.25 22.8723 15.043 23.3492 14.6747 23.7008C14.3063 24.0525 13.8067 24.25 13.2857 24.25H3.46429C2.94333 24.25 2.4437 24.0525 2.07533 23.7008C1.70695 23.3492 1.5 22.8723 1.5 22.375V16.75M1.5 3.625V14.875V16.75M1.5 3.625V13V16.75M1.5 18.625V16.75" stroke="#013252" stroke-width="2" stroke-linecap="round" stroke-linejoin="round"/>
</svg>
