<svg width="358" height="123" viewBox="0 0 358 123" fill="none" xmlns="http://www.w3.org/2000/svg">
<path d="M35.2881 96L34.3321 96.2934L34.5489 97H35.2881V96ZM19.8193 45.5947L20.7753 45.3013L20.5585 44.5947H19.8193V45.5947ZM19.4238 45.5947V44.5947H18.3739L18.425 45.6434L19.4238 45.5947ZM19.6875 51.0439L18.6886 51.0921L18.6894 51.1048L19.6875 51.0439ZM20.2588 96V97H21.2588V96H20.2588ZM8.08594 96H7.08594V97H8.08594V96ZM8.08594 31.752V30.752H7.08594V31.752H8.08594ZM26.6309 31.752L27.5862 31.4563L27.3682 30.752H26.6309V31.752ZM41.8359 80.8828L40.8806 81.1785L41.0986 81.8828H41.8359V80.8828ZM42.0996 80.8828V81.8828H42.8238L43.0497 81.1947L42.0996 80.8828ZM58.2275 31.752V30.752H57.5033L57.2774 31.4401L58.2275 31.752ZM76.7725 31.752H77.7725V30.752H76.7725V31.752ZM76.7725 96V97H77.7725V96H76.7725ZM64.0723 96H63.0723V97H64.0723V96ZM64.1602 58.6025L63.1606 58.5692L63.1604 58.5803L64.1602 58.6025ZM64.4678 51.0879L65.4666 51.1372L65.4666 51.1366L64.4678 51.0879ZM64.7314 45.6826L65.7303 45.7313L65.7814 44.6826H64.7314V45.6826ZM64.3359 45.6826V44.6826H63.6124L63.3861 45.3699L64.3359 45.6826ZM47.7686 96V97H48.4921L48.7184 96.3127L47.7686 96ZM36.2441 95.7066L20.7753 45.3013L18.8633 45.8881L34.3321 96.2934L36.2441 95.7066ZM19.8193 44.5947H19.4238V46.5947H19.8193V44.5947ZM18.425 45.6434C18.4836 46.8443 18.5715 48.6605 18.6887 51.0921L20.6863 50.9958C20.5692 48.5641 20.4812 46.7475 20.4226 45.546L18.425 45.6434ZM18.6894 51.1048C18.8354 53.5005 18.967 56.0579 19.0839 58.7773L21.0821 58.6914C20.9647 55.9616 20.8325 53.3921 20.6856 50.9831L18.6894 51.1048ZM19.0839 58.7773C19.2006 61.4909 19.2588 63.9372 19.2588 66.1172H21.2588C21.2588 63.9027 21.1997 61.4271 21.0821 58.6914L19.0839 58.7773ZM19.2588 66.1172V96H21.2588V66.1172H19.2588ZM20.2588 95H8.08594V97H20.2588V95ZM9.08594 96V31.752H7.08594V96H9.08594ZM8.08594 32.752H26.6309V30.752H8.08594V32.752ZM25.6756 32.0476L40.8806 81.1785L42.7912 80.5872L27.5862 31.4563L25.6756 32.0476ZM41.8359 81.8828H42.0996V79.8828H41.8359V81.8828ZM43.0497 81.1947L59.1777 32.0638L57.2774 31.4401L41.1495 80.5709L43.0497 81.1947ZM58.2275 32.752H76.7725V30.752H58.2275V32.752ZM75.7725 31.752V96H77.7725V31.752H75.7725ZM76.7725 95H64.0723V97H76.7725V95ZM65.0723 96V65.5898H63.0723V96H65.0723ZM65.0723 65.5898C65.0723 63.5776 65.1014 61.2562 65.1599 58.6248L63.1604 58.5803C63.1017 61.2224 63.0723 63.5591 63.0723 65.5898H65.0723ZM65.1596 58.6359C65.2473 56.0039 65.3497 53.5044 65.4666 51.1372L63.469 51.0386C63.3515 53.4175 63.2488 55.9277 63.1607 58.5692L65.1596 58.6359ZM65.4666 51.1366C65.4668 51.1319 65.467 51.1272 65.4673 51.1225C65.4675 51.1179 65.4677 51.1132 65.468 51.1085C65.4682 51.1038 65.4684 51.0991 65.4686 51.0944C65.4689 51.0898 65.4691 51.0851 65.4693 51.0804C65.4696 51.0757 65.4698 51.0711 65.47 51.0664C65.4702 51.0617 65.4705 51.0571 65.4707 51.0524C65.4709 51.0477 65.4711 51.0431 65.4714 51.0384C65.4716 51.0338 65.4718 51.0291 65.4721 51.0244C65.4723 51.0198 65.4725 51.0151 65.4727 51.0105C65.473 51.0058 65.4732 51.0012 65.4734 50.9965C65.4736 50.9919 65.4739 50.9872 65.4741 50.9826C65.4743 50.978 65.4745 50.9733 65.4748 50.9687C65.475 50.9641 65.4752 50.9594 65.4755 50.9548C65.4757 50.9501 65.4759 50.9455 65.4761 50.9409C65.4764 50.9363 65.4766 50.9316 65.4768 50.927C65.477 50.9224 65.4773 50.9178 65.4775 50.9132C65.4777 50.9085 65.4779 50.9039 65.4782 50.8993C65.4784 50.8947 65.4786 50.8901 65.4788 50.8855C65.4791 50.8809 65.4793 50.8763 65.4795 50.8716C65.4797 50.867 65.48 50.8624 65.4802 50.8578C65.4804 50.8532 65.4806 50.8486 65.4809 50.844C65.4811 50.8394 65.4813 50.8349 65.4815 50.8303C65.4818 50.8257 65.482 50.8211 65.4822 50.8165C65.4824 50.8119 65.4827 50.8073 65.4829 50.8027C65.4831 50.7982 65.4833 50.7936 65.4835 50.789C65.4838 50.7844 65.484 50.7799 65.4842 50.7753C65.4844 50.7707 65.4847 50.7661 65.4849 50.7616C65.4851 50.757 65.4853 50.7524 65.4855 50.7479C65.4858 50.7433 65.486 50.7387 65.4862 50.7342C65.4864 50.7296 65.4867 50.7251 65.4869 50.7205C65.4871 50.716 65.4873 50.7114 65.4875 50.7069C65.4878 50.7023 65.488 50.6978 65.4882 50.6932C65.4884 50.6887 65.4887 50.6841 65.4889 50.6796C65.4891 50.675 65.4893 50.6705 65.4895 50.666C65.4898 50.6614 65.49 50.6569 65.4902 50.6524C65.4904 50.6478 65.4906 50.6433 65.4909 50.6388C65.4911 50.6343 65.4913 50.6297 65.4915 50.6252C65.4918 50.6207 65.492 50.6162 65.4922 50.6116C65.4924 50.6071 65.4926 50.6026 65.4929 50.5981C65.4931 50.5936 65.4933 50.5891 65.4935 50.5846C65.4937 50.5801 65.494 50.5755 65.4942 50.571C65.4944 50.5665 65.4946 50.562 65.4948 50.5575C65.4951 50.553 65.4953 50.5485 65.4955 50.544C65.4957 50.5395 65.4959 50.5351 65.4961 50.5306C65.4964 50.5261 65.4966 50.5216 65.4968 50.5171C65.497 50.5126 65.4972 50.5081 65.4975 50.5037C65.4977 50.4992 65.4979 50.4947 65.4981 50.4902C65.4983 50.4857 65.4986 50.4813 65.4988 50.4768C65.499 50.4723 65.4992 50.4678 65.4994 50.4634C65.4996 50.4589 65.4999 50.4544 65.5001 50.45C65.5003 50.4455 65.5005 50.4411 65.5007 50.4366C65.501 50.4321 65.5012 50.4277 65.5014 50.4232C65.5016 50.4188 65.5018 50.4143 65.502 50.4099C65.5023 50.4054 65.5025 50.401 65.5027 50.3965C65.5029 50.3921 65.5031 50.3877 65.5033 50.3832C65.5036 50.3788 65.5038 50.3743 65.504 50.3699C65.5042 50.3655 65.5044 50.361 65.5046 50.3566C65.5049 50.3522 65.5051 50.3477 65.5053 50.3433C65.5055 50.3389 65.5057 50.3345 65.5059 50.33C65.5061 50.3256 65.5064 50.3212 65.5066 50.3168C65.5068 50.3124 65.507 50.3079 65.5072 50.3035C65.5074 50.2991 65.5077 50.2947 65.5079 50.2903C65.5081 50.2859 65.5083 50.2815 65.5085 50.2771C65.5087 50.2727 65.5089 50.2683 65.5092 50.2639C65.5094 50.2595 65.5096 50.2551 65.5098 50.2507C65.51 50.2463 65.5102 50.2419 65.5104 50.2375C65.5107 50.2331 65.5109 50.2287 65.5111 50.2244C65.5113 50.22 65.5115 50.2156 65.5117 50.2112C65.5119 50.2068 65.5122 50.2025 65.5124 50.1981C65.5126 50.1937 65.5128 50.1893 65.513 50.185C65.5132 50.1806 65.5134 50.1762 65.5136 50.1718C65.5139 50.1675 65.5141 50.1631 65.5143 50.1588C65.5145 50.1544 65.5147 50.15 65.5149 50.1457C65.5151 50.1413 65.5154 50.137 65.5156 50.1326C65.5158 50.1283 65.516 50.1239 65.5162 50.1196C65.5164 50.1152 65.5166 50.1109 65.5168 50.1065C65.517 50.1022 65.5173 50.0978 65.5175 50.0935C65.5177 50.0892 65.5179 50.0848 65.5181 50.0805C65.5183 50.0761 65.5185 50.0718 65.5187 50.0675C65.519 50.0632 65.5192 50.0588 65.5194 50.0545C65.5196 50.0502 65.5198 50.0459 65.52 50.0415C65.5202 50.0372 65.5204 50.0329 65.5206 50.0286C65.5208 50.0243 65.5211 50.0199 65.5213 50.0156C65.5215 50.0113 65.5217 50.007 65.5219 50.0027C65.5221 49.9984 65.5223 49.9941 65.5225 49.9898C65.5227 49.9855 65.5229 49.9812 65.5232 49.9769C65.5234 49.9726 65.5236 49.9683 65.5238 49.964C65.524 49.9597 65.5242 49.9554 65.5244 49.9511C65.5246 49.9468 65.5248 49.9426 65.525 49.9383C65.5253 49.934 65.5255 49.9297 65.5257 49.9254C65.5259 49.9211 65.5261 49.9169 65.5263 49.9126C65.5265 49.9083 65.5267 49.904 65.5269 49.8998C65.5271 49.8955 65.5273 49.8912 65.5275 49.887C65.5278 49.8827 65.528 49.8784 65.5282 49.8742C65.5284 49.8699 65.5286 49.8657 65.5288 49.8614C65.529 49.8571 65.5292 49.8529 65.5294 49.8486C65.5296 49.8444 65.5298 49.8401 65.53 49.8359C65.5302 49.8316 65.5304 49.8274 65.5307 49.8232C65.5309 49.8189 65.5311 49.8147 65.5313 49.8104C65.5315 49.8062 65.5317 49.802 65.5319 49.7977C65.5321 49.7935 65.5323 49.7893 65.5325 49.785C65.5327 49.7808 65.5329 49.7766 65.5331 49.7723C65.5333 49.7681 65.5335 49.7639 65.5338 49.7597C65.534 49.7555 65.5342 49.7512 65.5344 49.747C65.5346 49.7428 65.5348 49.7386 65.535 49.7344C65.5352 49.7302 65.5354 49.726 65.5356 49.7218C65.5358 49.7176 65.536 49.7133 65.5362 49.7091C65.5364 49.7049 65.5366 49.7007 65.5368 49.6965C65.537 49.6924 65.5372 49.6882 65.5374 49.684C65.5377 49.6798 65.5379 49.6756 65.5381 49.6714C65.5383 49.6672 65.5385 49.663 65.5387 49.6588C65.5389 49.6547 65.5391 49.6505 65.5393 49.6463C65.5395 49.6421 65.5397 49.6379 65.5399 49.6338C65.5401 49.6296 65.5403 49.6254 65.5405 49.6212C65.5407 49.6171 65.5409 49.6129 65.5411 49.6087C65.5413 49.6046 65.5415 49.6004 65.5417 49.5963C65.5419 49.5921 65.5421 49.5879 65.5423 49.5838C65.5425 49.5796 65.5427 49.5755 65.5429 49.5713C65.5431 49.5672 65.5434 49.563 65.5435 49.5589C65.5438 49.5547 65.544 49.5506 65.5442 49.5464C65.5444 49.5423 65.5446 49.5382 65.5448 49.534C65.545 49.5299 65.5452 49.5257 65.5454 49.5216C65.5456 49.5175 65.5458 49.5133 65.546 49.5092C65.5462 49.5051 65.5464 49.501 65.5466 49.4968C65.5468 49.4927 65.547 49.4886 65.5472 49.4845C65.5474 49.4804 65.5476 49.4762 65.5478 49.4721C65.548 49.468 65.5482 49.4639 65.5484 49.4598C65.5486 49.4557 65.5488 49.4516 65.549 49.4475C65.5492 49.4434 65.5494 49.4393 65.5496 49.4352C65.5498 49.4311 65.55 49.427 65.5502 49.4229C65.5504 49.4188 65.5506 49.4147 65.5508 49.4106C65.551 49.4065 65.5512 49.4024 65.5514 49.3983C65.5516 49.3942 65.5518 49.3901 65.552 49.3861C65.5522 49.382 65.5524 49.3779 65.5526 49.3738C65.5528 49.3697 65.553 49.3657 65.5532 49.3616C65.5534 49.3575 65.5536 49.3534 65.5538 49.3494C65.554 49.3453 65.5542 49.3412 65.5544 49.3372C65.5546 49.3331 65.5548 49.329 65.555 49.325C65.5552 49.3209 65.5554 49.3169 65.5555 49.3128C65.5557 49.3088 65.5559 49.3047 65.5561 49.3007C65.5563 49.2966 65.5565 49.2926 65.5567 49.2885C65.5569 49.2845 65.5571 49.2804 65.5573 49.2764C65.5575 49.2723 65.5577 49.2683 65.5579 49.2643C65.5581 49.2602 65.5583 49.2562 65.5585 49.2522C65.5587 49.2481 65.5589 49.2441 65.5591 49.2401C65.5593 49.236 65.5595 49.232 65.5597 49.228C65.5599 49.224 65.5601 49.2199 65.5603 49.2159C65.5605 49.2119 65.5607 49.2079 65.5609 49.2039C65.5611 49.1999 65.5613 49.1959 65.5615 49.1918C65.5616 49.1878 65.5618 49.1838 65.562 49.1798C65.5622 49.1758 65.5624 49.1718 65.5626 49.1678C65.5628 49.1638 65.563 49.1598 65.5632 49.1558C65.5634 49.1518 65.5636 49.1478 65.5638 49.1438C65.564 49.1399 65.5642 49.1359 65.5644 49.1319C65.5646 49.1279 65.5648 49.1239 65.565 49.1199C65.5652 49.1159 65.5653 49.112 65.5655 49.108C65.5657 49.104 65.5659 49.1 65.5661 49.0961C65.5663 49.0921 65.5665 49.0881 65.5667 49.0841C65.5669 49.0802 65.5671 49.0762 65.5673 49.0723C65.5675 49.0683 65.5677 49.0643 65.5679 49.0604C65.5681 49.0564 65.5683 49.0525 65.5684 49.0485C65.5686 49.0445 65.5688 49.0406 65.569 49.0366C65.5692 49.0327 65.5694 49.0287 65.5696 49.0248C65.5698 49.0209 65.57 49.0169 65.5702 49.013C65.5704 49.009 65.5706 49.0051 65.5708 49.0012C65.5709 48.9972 65.5711 48.9933 65.5713 48.9894C65.5715 48.9854 65.5717 48.9815 65.5719 48.9776C65.5721 48.9736 65.5723 48.9697 65.5725 48.9658C65.5727 48.9619 65.5729 48.958 65.5731 48.954C65.5732 48.9501 65.5734 48.9462 65.5736 48.9423C65.5738 48.9384 65.574 48.9345 65.5742 48.9306C65.5744 48.9266 65.5746 48.9227 65.5748 48.9188C65.575 48.9149 65.5751 48.911 65.5753 48.9071C65.5755 48.9032 65.5757 48.8993 65.5759 48.8954C65.5761 48.8915 65.5763 48.8877 65.5765 48.8838C65.5767 48.8799 65.5769 48.876 65.577 48.8721C65.5772 48.8682 65.5774 48.8643 65.5776 48.8605C65.5778 48.8566 65.578 48.8527 65.5782 48.8488C65.5784 48.8449 65.5786 48.8411 65.5788 48.8372C65.5789 48.8333 65.5791 48.8294 65.5793 48.8256C65.5795 48.8217 65.5797 48.8178 65.5799 48.814C65.5801 48.8101 65.5803 48.8063 65.5805 48.8024C65.5806 48.7985 65.5808 48.7947 65.581 48.7908C65.5812 48.787 65.5814 48.7831 65.5816 48.7793C65.5818 48.7754 65.582 48.7716 65.5821 48.7677C65.5823 48.7639 65.5825 48.7601 65.5827 48.7562C65.5829 48.7524 65.5831 48.7485 65.5833 48.7447C65.5835 48.7409 65.5836 48.737 65.5838 48.7332C65.584 48.7294 65.5842 48.7255 65.5844 48.7217C65.5846 48.7179 65.5848 48.7141 65.5849 48.7103C65.5851 48.7064 65.5853 48.7026 65.5855 48.6988C65.5857 48.695 65.5859 48.6912 65.5861 48.6873C65.5863 48.6835 65.5864 48.6797 65.5866 48.6759C65.5868 48.6721 65.587 48.6683 65.5872 48.6645C65.5874 48.6607 65.5875 48.6569 65.5877 48.6531C65.5879 48.6493 65.5881 48.6455 65.5883 48.6417C65.5885 48.6379 65.5887 48.6341 65.5888 48.6303C65.589 48.6265 65.5892 48.6228 65.5894 48.619C65.5896 48.6152 65.5898 48.6114 65.59 48.6076C65.5901 48.6038 65.5903 48.6001 65.5905 48.5963C65.5907 48.5925 65.5909 48.5887 65.5911 48.585C65.5912 48.5812 65.5914 48.5774 65.5916 48.5737C65.5918 48.5699 65.592 48.5661 65.5922 48.5624C65.5923 48.5586 65.5925 48.5549 65.5927 48.5511C65.5929 48.5473 65.5931 48.5436 65.5933 48.5398C65.5934 48.5361 65.5936 48.5323 65.5938 48.5286C65.594 48.5248 65.5942 48.5211 65.5944 48.5173C65.5945 48.5136 65.5947 48.5099 65.5949 48.5061C65.5951 48.5024 65.5953 48.4986 65.5955 48.4949C65.5956 48.4912 65.5958 48.4874 65.596 48.4837C65.5962 48.48 65.5964 48.4763 65.5965 48.4725C65.5967 48.4688 65.5969 48.4651 65.5971 48.4614C65.5973 48.4576 65.5975 48.4539 65.5976 48.4502C65.5978 48.4465 65.598 48.4428 65.5982 48.4391C65.5984 48.4354 65.5985 48.4316 65.5987 48.4279C65.5989 48.4242 65.5991 48.4205 65.5993 48.4168C65.5994 48.4131 65.5996 48.4094 65.5998 48.4057C65.6 48.402 65.6002 48.3983 65.6003 48.3946C65.6005 48.3909 65.6007 48.3872 65.6009 48.3836C65.6011 48.3799 65.6012 48.3762 65.6014 48.3725C65.6016 48.3688 65.6018 48.3651 65.602 48.3615C65.6021 48.3578 65.6023 48.3541 65.6025 48.3504C65.6027 48.3468 65.6029 48.3431 65.603 48.3394C65.6032 48.3357 65.6034 48.3321 65.6036 48.3284C65.6038 48.3247 65.6039 48.3211 65.6041 48.3174C65.6043 48.3138 65.6045 48.3101 65.6046 48.3064C65.6048 48.3028 65.605 48.2991 65.6052 48.2955C65.6054 48.2918 65.6055 48.2882 65.6057 48.2845C65.6059 48.2809 65.6061 48.2772 65.6062 48.2736C65.6064 48.2699 65.6066 48.2663 65.6068 48.2627C65.607 48.259 65.6071 48.2554 65.6073 48.2518C65.6075 48.2481 65.6077 48.2445 65.6078 48.2409C65.608 48.2372 65.6082 48.2336 65.6084 48.23C65.6086 48.2264 65.6087 48.2227 65.6089 48.2191C65.6091 48.2155 65.6093 48.2119 65.6094 48.2083C65.6096 48.2047 65.6098 48.201 65.61 48.1974C65.6101 48.1938 65.6103 48.1902 65.6105 48.1866C65.6107 48.183 65.6108 48.1794 65.611 48.1758C65.6112 48.1722 65.6114 48.1686 65.6115 48.165C65.6117 48.1614 65.6119 48.1578 65.6121 48.1542C65.6122 48.1506 65.6124 48.147 65.6126 48.1434C65.6128 48.1399 65.6129 48.1363 65.6131 48.1327C65.6133 48.1291 65.6135 48.1255 65.6136 48.1219C65.6138 48.1184 65.614 48.1148 65.6142 48.1112C65.6143 48.1076 65.6145 48.1041 65.6147 48.1005C65.6149 48.0969 65.615 48.0934 65.6152 48.0898C65.6154 48.0862 65.6156 48.0827 65.6157 48.0791C65.6159 48.0755 65.6161 48.072 65.6163 48.0684C65.6164 48.0649 65.6166 48.0613 65.6168 48.0578C65.6169 48.0542 65.6171 48.0507 65.6173 48.0471C65.6175 48.0436 65.6176 48.04 65.6178 48.0365C65.618 48.033 65.6182 48.0294 65.6183 48.0259C65.6185 48.0223 65.6187 48.0188 65.6188 48.0153C65.619 48.0117 65.6192 48.0082 65.6194 48.0047C65.6195 48.0012 65.6197 47.9976 65.6199 47.9941C65.62 47.9906 65.6202 47.9871 65.6204 47.9835C65.6206 47.98 65.6207 47.9765 65.6209 47.973C65.6211 47.9695 65.6213 47.966 65.6214 47.9625C65.6216 47.9589 65.6218 47.9554 65.6219 47.9519C65.6221 47.9484 65.6223 47.9449 65.6225 47.9414C65.6226 47.9379 65.6228 47.9344 65.623 47.9309C65.6231 47.9274 65.6233 47.9239 65.6235 47.9204C65.6236 47.917 65.6238 47.9135 65.624 47.91C65.6242 47.9065 65.6243 47.903 65.6245 47.8995C65.6247 47.896 65.6248 47.8926 65.625 47.8891C65.6252 47.8856 65.6253 47.8821 65.6255 47.8787C65.6257 47.8752 65.6258 47.8717 65.626 47.8682C65.6262 47.8648 65.6264 47.8613 65.6265 47.8578C65.6267 47.8544 65.6269 47.8509 65.627 47.8475C65.6272 47.844 65.6274 47.8405 65.6275 47.8371C65.6277 47.8336 65.6279 47.8302 65.628 47.8267C65.6282 47.8233 65.6284 47.8198 65.6285 47.8164C65.6287 47.8129 65.6289 47.8095 65.6291 47.8061C65.6292 47.8026 65.6294 47.7992 65.6296 47.7957C65.6297 47.7923 65.6299 47.7889 65.6301 47.7854C65.6302 47.782 65.6304 47.7786 65.6306 47.7751C65.6307 47.7717 65.6309 47.7683 65.6311 47.7649C65.6312 47.7614 65.6314 47.758 65.6316 47.7546C65.6317 47.7512 65.6319 47.7478 65.6321 47.7444C65.6322 47.7409 65.6324 47.7375 65.6326 47.7341C65.6327 47.7307 65.6329 47.7273 65.6331 47.7239C65.6332 47.7205 65.6334 47.7171 65.6336 47.7137C65.6337 47.7103 65.6339 47.7069 65.6341 47.7035C65.6342 47.7001 65.6344 47.6967 65.6346 47.6933C65.6347 47.6899 65.6349 47.6865 65.635 47.6832C65.6352 47.6798 65.6354 47.6764 65.6355 47.673C65.6357 47.6696 65.6359 47.6662 65.636 47.6629C65.6362 47.6595 65.6364 47.6561 65.6365 47.6527C65.6367 47.6494 65.6369 47.646 65.637 47.6426C65.6372 47.6393 65.6374 47.6359 65.6375 47.6325C65.6377 47.6292 65.6378 47.6258 65.638 47.6225C65.6382 47.6191 65.6383 47.6157 65.6385 47.6124C65.6387 47.609 65.6388 47.6057 65.639 47.6023C65.6392 47.599 65.6393 47.5956 65.6395 47.5923C65.6396 47.5889 65.6398 47.5856 65.64 47.5823C65.6401 47.5789 65.6403 47.5756 65.6405 47.5722C65.6406 47.5689 65.6408 47.5656 65.6409 47.5622C65.6411 47.5589 65.6413 47.5556 65.6414 47.5523C65.6416 47.5489 65.6418 47.5456 65.6419 47.5423C65.6421 47.539 65.6422 47.5356 65.6424 47.5323C65.6426 47.529 65.6427 47.5257 65.6429 47.5224C65.6431 47.5191 65.6432 47.5158 65.6434 47.5125C65.6435 47.5091 65.6437 47.5058 65.6439 47.5025C65.644 47.4992 65.6442 47.4959 65.6443 47.4926C65.6445 47.4893 65.6447 47.486 65.6448 47.4827C65.645 47.4794 65.6451 47.4762 65.6453 47.4729C65.6455 47.4696 65.6456 47.4663 65.6458 47.463C65.646 47.4597 65.6461 47.4564 65.6463 47.4531C65.6464 47.4499 65.6466 47.4466 65.6467 47.4433C65.6469 47.44 65.6471 47.4368 65.6472 47.4335C65.6474 47.4302 65.6475 47.427 65.6477 47.4237C65.6479 47.4204 65.648 47.4172 65.6482 47.4139C65.6483 47.4106 65.6485 47.4074 65.6487 47.4041C65.6488 47.4009 65.649 47.3976 65.6491 47.3943C65.6493 47.3911 65.6495 47.3878 65.6496 47.3846C65.6498 47.3813 65.6499 47.3781 65.6501 47.3749C65.6502 47.3716 65.6504 47.3684 65.6506 47.3651C65.6507 47.3619 65.6509 47.3586 65.651 47.3554C65.6512 47.3522 65.6514 47.3489 65.6515 47.3457C65.6517 47.3425 65.6518 47.3393 65.652 47.336C65.6521 47.3328 65.6523 47.3296 65.6525 47.3264C65.6526 47.3231 65.6528 47.3199 65.6529 47.3167C65.6531 47.3135 65.6532 47.3103 65.6534 47.3071C65.6535 47.3038 65.6537 47.3006 65.6539 47.2974C65.654 47.2942 65.6542 47.291 65.6543 47.2878C65.6545 47.2846 65.6546 47.2814 65.6548 47.2782C65.655 47.275 65.6551 47.2718 65.6553 47.2686C65.6554 47.2654 65.6556 47.2622 65.6557 47.2591C65.6559 47.2559 65.656 47.2527 65.6562 47.2495C65.6564 47.2463 65.6565 47.2431 65.6567 47.2399C65.6568 47.2368 65.657 47.2336 65.6571 47.2304C65.6573 47.2272 65.6574 47.2241 65.6576 47.2209C65.6578 47.2177 65.6579 47.2146 65.6581 47.2114C65.6582 47.2082 65.6584 47.2051 65.6585 47.2019C65.6587 47.1987 65.6588 47.1956 65.659 47.1924C65.6591 47.1893 65.6593 47.1861 65.6594 47.183C65.6596 47.1798 65.6598 47.1766 65.6599 47.1735C65.6601 47.1704 65.6602 47.1672 65.6604 47.1641C65.6605 47.1609 65.6607 47.1578 65.6608 47.1546C65.661 47.1515 65.6611 47.1484 65.6613 47.1452C65.6614 47.1421 65.6616 47.139 65.6617 47.1358C65.6619 47.1327 65.662 47.1296 65.6622 47.1265C65.6624 47.1233 65.6625 47.1202 65.6627 47.1171C65.6628 47.114 65.663 47.1108 65.6631 47.1077C65.6633 47.1046 65.6634 47.1015 65.6636 47.0984C65.6637 47.0953 65.6639 47.0922 65.664 47.0891C65.6642 47.086 65.6643 47.0829 65.6645 47.0798C65.6646 47.0766 65.6648 47.0735 65.6649 47.0704C65.6651 47.0674 65.6652 47.0643 65.6654 47.0612C65.6655 47.0581 65.6657 47.055 65.6658 47.0519C65.666 47.0488 65.6661 47.0457 65.6663 47.0426C65.6664 47.0396 65.6666 47.0365 65.6667 47.0334C65.6669 47.0303 65.667 47.0272 65.6672 47.0242C65.6673 47.0211 65.6675 47.018 65.6676 47.0149C65.6678 47.0119 65.6679 47.0088 65.6681 47.0057C65.6682 47.0027 65.6684 46.9996 65.6685 46.9966C65.6687 46.9935 65.6688 46.9904 65.669 46.9874C65.6691 46.9843 65.6693 46.9813 65.6694 46.9782C65.6696 46.9752 65.6697 46.9721 65.6699 46.9691C65.67 46.966 65.6702 46.963 65.6703 46.9599C65.6705 46.9569 65.6706 46.9538 65.6708 46.9508C65.6709 46.9478 65.6711 46.9447 65.6712 46.9417C65.6714 46.9387 65.6715 46.9356 65.6717 46.9326C65.6718 46.9296 65.672 46.9266 65.6721 46.9235C65.6722 46.9205 65.6724 46.9175 65.6725 46.9145C65.6727 46.9114 65.6728 46.9084 65.673 46.9054C65.6731 46.9024 65.6733 46.8994 65.6734 46.8964C65.6736 46.8934 65.6737 46.8904 65.6739 46.8874C65.674 46.8843 65.6742 46.8813 65.6743 46.8783C65.6745 46.8753 65.6746 46.8723 65.6747 46.8693C65.6749 46.8663 65.675 46.8633 65.6752 46.8604C65.6753 46.8574 65.6755 46.8544 65.6756 46.8514C65.6758 46.8484 65.6759 46.8454 65.6761 46.8424C65.6762 46.8395 65.6763 46.8365 65.6765 46.8335C65.6766 46.8305 65.6768 46.8275 65.6769 46.8246C65.6771 46.8216 65.6772 46.8186 65.6774 46.8157C65.6775 46.8127 65.6777 46.8097 65.6778 46.8067C65.6779 46.8038 65.6781 46.8008 65.6782 46.7979C65.6784 46.7949 65.6785 46.7919 65.6787 46.789C65.6788 46.786 65.679 46.7831 65.6791 46.7801C65.6792 46.7772 65.6794 46.7742 65.6795 46.7713C65.6797 46.7683 65.6798 46.7654 65.68 46.7625C65.6801 46.7595 65.6802 46.7566 65.6804 46.7536C65.6805 46.7507 65.6807 46.7478 65.6808 46.7448C65.681 46.7419 65.6811 46.739 65.6813 46.736C65.6814 46.7331 65.6815 46.7302 65.6817 46.7273C65.6818 46.7243 65.682 46.7214 65.6821 46.7185C65.6822 46.7156 65.6824 46.7127 65.6825 46.7097C65.6827 46.7068 65.6828 46.7039 65.683 46.701C65.6831 46.6981 65.6832 46.6952 65.6834 46.6923C65.6835 46.6894 65.6837 46.6865 65.6838 46.6836C65.6839 46.6807 65.6841 46.6778 65.6842 46.6749C65.6844 46.672 65.6845 46.6691 65.6847 46.6662C65.6848 46.6633 65.6849 46.6604 65.6851 46.6575C65.6852 46.6547 65.6854 46.6518 65.6855 46.6489C65.6856 46.646 65.6858 46.6431 65.6859 46.6402C65.6861 46.6374 65.6862 46.6345 65.6863 46.6316C65.6865 46.6287 65.6866 46.6259 65.6868 46.623C65.6869 46.6201 65.687 46.6173 65.6872 46.6144C65.6873 46.6115 65.6875 46.6087 65.6876 46.6058C65.6877 46.603 65.6879 46.6001 65.688 46.5973C65.6882 46.5944 65.6883 46.5915 65.6884 46.5887C65.6886 46.5858 65.6887 46.583 65.6889 46.5802C65.689 46.5773 65.6891 46.5745 65.6893 46.5716C65.6894 46.5688 65.6895 46.5659 65.6897 46.5631C65.6898 46.5603 65.69 46.5574 65.6901 46.5546C65.6902 46.5518 65.6904 46.5489 65.6905 46.5461C65.6907 46.5433 65.6908 46.5405 65.6909 46.5376C65.6911 46.5348 65.6912 46.532 65.6913 46.5292C65.6915 46.5264 65.6916 46.5235 65.6917 46.5207C65.6919 46.5179 65.692 46.5151 65.6922 46.5123C65.6923 46.5095 65.6924 46.5067 65.6926 46.5039C65.6927 46.5011 65.6928 46.4983 65.693 46.4955C65.6931 46.4927 65.6933 46.4899 65.6934 46.4871C65.6935 46.4843 65.6937 46.4815 65.6938 46.4787C65.6939 46.4759 65.6941 46.4731 65.6942 46.4703C65.6943 46.4676 65.6945 46.4648 65.6946 46.462C65.6948 46.4592 65.6949 46.4564 65.695 46.4537C65.6952 46.4509 65.6953 46.4481 65.6954 46.4453C65.6956 46.4426 65.6957 46.4398 65.6958 46.437C65.696 46.4343 65.6961 46.4315 65.6962 46.4287C65.6964 46.426 65.6965 46.4232 65.6966 46.4204C65.6968 46.4177 65.6969 46.4149 65.697 46.4122C65.6972 46.4094 65.6973 46.4067 65.6974 46.4039C65.6976 46.4012 65.6977 46.3984 65.6979 46.3957C65.698 46.3929 65.6981 46.3902 65.6982 46.3875C65.6984 46.3847 65.6985 46.382 65.6987 46.3792C65.6988 46.3765 65.6989 46.3738 65.6991 46.371C65.6992 46.3683 65.6993 46.3656 65.6995 46.3629C65.6996 46.3601 65.6997 46.3574 65.6999 46.3547C65.7 46.352 65.7001 46.3492 65.7002 46.3465C65.7004 46.3438 65.7005 46.3411 65.7006 46.3384C65.7008 46.3357 65.7009 46.333 65.701 46.3302C65.7012 46.3275 65.7013 46.3248 65.7014 46.3221C65.7016 46.3194 65.7017 46.3167 65.7018 46.314C65.702 46.3113 65.7021 46.3086 65.7022 46.3059C65.7024 46.3032 65.7025 46.3005 65.7026 46.2979C65.7028 46.2952 65.7029 46.2925 65.703 46.2898C65.7031 46.2871 65.7033 46.2844 65.7034 46.2817C65.7035 46.2791 65.7037 46.2764 65.7038 46.2737C65.7039 46.271 65.7041 46.2684 65.7042 46.2657C65.7043 46.263 65.7045 46.2604 65.7046 46.2577C65.7047 46.255 65.7048 46.2524 65.705 46.2497C65.7051 46.247 65.7052 46.2444 65.7054 46.2417C65.7055 46.2391 65.7056 46.2364 65.7057 46.2337C65.7059 46.2311 65.706 46.2284 65.7061 46.2258C65.7063 46.2231 65.7064 46.2205 65.7065 46.2179C65.7067 46.2152 65.7068 46.2126 65.7069 46.2099C65.707 46.2073 65.7072 46.2047 65.7073 46.202C65.7074 46.1994 65.7076 46.1968 65.7077 46.1941C65.7078 46.1915 65.7079 46.1889 65.7081 46.1862C65.7082 46.1836 65.7083 46.181 65.7085 46.1784C65.7086 46.1758 65.7087 46.1731 65.7088 46.1705C65.709 46.1679 65.7091 46.1653 65.7092 46.1627C65.7093 46.1601 65.7095 46.1575 65.7096 46.1548C65.7097 46.1522 65.7099 46.1496 65.71 46.147C65.7101 46.1444 65.7102 46.1418 65.7104 46.1392C65.7105 46.1366 65.7106 46.134 65.7107 46.1314C65.7109 46.1288 65.711 46.1263 65.7111 46.1237C65.7112 46.1211 65.7114 46.1185 65.7115 46.1159C65.7116 46.1133 65.7118 46.1107 65.7119 46.1082C65.712 46.1056 65.7121 46.103 65.7122 46.1004C65.7124 46.0979 65.7125 46.0953 65.7126 46.0927C65.7128 46.0901 65.7129 46.0876 65.713 46.085C65.7131 46.0824 65.7133 46.0799 65.7134 46.0773C65.7135 46.0748 65.7136 46.0722 65.7138 46.0696C65.7139 46.0671 65.714 46.0645 65.7141 46.062C65.7143 46.0594 65.7144 46.0569 65.7145 46.0543C65.7146 46.0518 65.7148 46.0492 65.7149 46.0467C65.715 46.0441 65.7151 46.0416 65.7152 46.0391C65.7154 46.0365 65.7155 46.034 65.7156 46.0315C65.7157 46.0289 65.7159 46.0264 65.716 46.0239C65.7161 46.0213 65.7162 46.0188 65.7164 46.0163C65.7165 46.0138 65.7166 46.0112 65.7167 46.0087C65.7169 46.0062 65.717 46.0037 65.7171 46.0012C65.7172 45.9986 65.7173 45.9961 65.7175 45.9936C65.7176 45.9911 65.7177 45.9886 65.7178 45.9861C65.718 45.9836 65.7181 45.9811 65.7182 45.9786C65.7183 45.9761 65.7184 45.9736 65.7186 45.9711C65.7187 45.9686 65.7188 45.9661 65.7189 45.9636C65.719 45.9611 65.7192 45.9586 65.7193 45.9561C65.7194 45.9536 65.7195 45.9512 65.7197 45.9487C65.7198 45.9462 65.7199 45.9437 65.72 45.9412C65.7201 45.9387 65.7203 45.9363 65.7204 45.9338C65.7205 45.9313 65.7206 45.9288 65.7207 45.9264C65.7209 45.9239 65.721 45.9214 65.7211 45.919C65.7212 45.9165 65.7213 45.914 65.7215 45.9116C65.7216 45.9091 65.7217 45.9067 65.7218 45.9042C65.7219 45.9018 65.7221 45.8993 65.7222 45.8969C65.7223 45.8944 65.7224 45.892 65.7225 45.8895C65.7227 45.8871 65.7228 45.8846 65.7229 45.8822C65.723 45.8797 65.7231 45.8773 65.7233 45.8749C65.7234 45.8724 65.7235 45.87 65.7236 45.8675C65.7237 45.8651 65.7239 45.8627 65.724 45.8603C65.7241 45.8578 65.7242 45.8554 65.7243 45.853C65.7244 45.8506 65.7246 45.8481 65.7247 45.8457C65.7248 45.8433 65.7249 45.8409 65.725 45.8385C65.7252 45.836 65.7253 45.8336 65.7254 45.8312C65.7255 45.8288 65.7256 45.8264 65.7257 45.824C65.7259 45.8216 65.726 45.8192 65.7261 45.8168C65.7262 45.8144 65.7263 45.812 65.7264 45.8096C65.7266 45.8072 65.7267 45.8048 65.7268 45.8024C65.7269 45.8 65.727 45.7976 65.7271 45.7952C65.7273 45.7929 65.7274 45.7905 65.7275 45.7881C65.7276 45.7857 65.7277 45.7833 65.7278 45.7809C65.728 45.7786 65.7281 45.7762 65.7282 45.7738C65.7283 45.7714 65.7284 45.7691 65.7285 45.7667C65.7286 45.7643 65.7288 45.762 65.7289 45.7596C65.729 45.7572 65.7291 45.7549 65.7292 45.7525C65.7293 45.7502 65.7295 45.7478 65.7296 45.7454C65.7297 45.7431 65.7298 45.7407 65.7299 45.7384C65.73 45.736 65.7301 45.7337 65.7303 45.7313L63.7326 45.6339C63.7325 45.6362 63.7324 45.6386 63.7323 45.6409C63.7322 45.6433 63.7321 45.6456 63.7319 45.648C63.7318 45.6504 63.7317 45.6527 63.7316 45.6551C63.7315 45.6574 63.7314 45.6598 63.7313 45.6622C63.7311 45.6645 63.731 45.6669 63.7309 45.6693C63.7308 45.6716 63.7307 45.674 63.7306 45.6764C63.7304 45.6787 63.7303 45.6811 63.7302 45.6835C63.7301 45.6859 63.73 45.6883 63.7299 45.6906C63.7297 45.693 63.7296 45.6954 63.7295 45.6978C63.7294 45.7002 63.7293 45.7026 63.7292 45.705C63.729 45.7074 63.7289 45.7097 63.7288 45.7121C63.7287 45.7145 63.7286 45.7169 63.7285 45.7193C63.7283 45.7217 63.7282 45.7241 63.7281 45.7266C63.728 45.729 63.7279 45.7314 63.7278 45.7338C63.7276 45.7362 63.7275 45.7386 63.7274 45.741C63.7273 45.7434 63.7272 45.7458 63.7271 45.7483C63.7269 45.7507 63.7268 45.7531 63.7267 45.7555C63.7266 45.758 63.7265 45.7604 63.7263 45.7628C63.7262 45.7652 63.7261 45.7677 63.726 45.7701C63.7259 45.7725 63.7257 45.775 63.7256 45.7774C63.7255 45.7798 63.7254 45.7823 63.7253 45.7847C63.7252 45.7872 63.725 45.7896 63.7249 45.7921C63.7248 45.7945 63.7247 45.797 63.7246 45.7994C63.7244 45.8019 63.7243 45.8043 63.7242 45.8068C63.7241 45.8092 63.724 45.8117 63.7238 45.8141C63.7237 45.8166 63.7236 45.8191 63.7235 45.8215C63.7234 45.824 63.7232 45.8265 63.7231 45.8289C63.723 45.8314 63.7229 45.8339 63.7228 45.8363C63.7226 45.8388 63.7225 45.8413 63.7224 45.8438C63.7223 45.8463 63.7222 45.8487 63.722 45.8512C63.7219 45.8537 63.7218 45.8562 63.7217 45.8587C63.7215 45.8612 63.7214 45.8637 63.7213 45.8662C63.7212 45.8686 63.7211 45.8711 63.7209 45.8736C63.7208 45.8761 63.7207 45.8786 63.7206 45.8811C63.7205 45.8836 63.7203 45.8861 63.7202 45.8886C63.7201 45.8912 63.72 45.8937 63.7198 45.8962C63.7197 45.8987 63.7196 45.9012 63.7195 45.9037C63.7193 45.9062 63.7192 45.9087 63.7191 45.9113C63.719 45.9138 63.7189 45.9163 63.7187 45.9188C63.7186 45.9214 63.7185 45.9239 63.7184 45.9264C63.7182 45.9289 63.7181 45.9315 63.718 45.934C63.7179 45.9365 63.7177 45.9391 63.7176 45.9416C63.7175 45.9442 63.7174 45.9467 63.7173 45.9492C63.7171 45.9518 63.717 45.9543 63.7169 45.9569C63.7168 45.9594 63.7166 45.962 63.7165 45.9645C63.7164 45.9671 63.7163 45.9696 63.7161 45.9722C63.716 45.9747 63.7159 45.9773 63.7158 45.9799C63.7156 45.9824 63.7155 45.985 63.7154 45.9876C63.7153 45.9901 63.7151 45.9927 63.715 45.9953C63.7149 45.9978 63.7148 46.0004 63.7146 46.003C63.7145 46.0056 63.7144 46.0081 63.7143 46.0107C63.7141 46.0133 63.714 46.0159 63.7139 46.0185C63.7137 46.021 63.7136 46.0236 63.7135 46.0262C63.7134 46.0288 63.7132 46.0314 63.7131 46.034C63.713 46.0366 63.7129 46.0392 63.7127 46.0418C63.7126 46.0444 63.7125 46.047 63.7124 46.0496C63.7122 46.0522 63.7121 46.0548 63.712 46.0574C63.7118 46.06 63.7117 46.0626 63.7116 46.0652C63.7115 46.0678 63.7113 46.0705 63.7112 46.0731C63.7111 46.0757 63.711 46.0783 63.7108 46.0809C63.7107 46.0835 63.7106 46.0862 63.7104 46.0888C63.7103 46.0914 63.7102 46.094 63.7101 46.0967C63.7099 46.0993 63.7098 46.1019 63.7097 46.1046C63.7095 46.1072 63.7094 46.1098 63.7093 46.1125C63.7092 46.1151 63.709 46.1178 63.7089 46.1204C63.7088 46.1231 63.7086 46.1257 63.7085 46.1283C63.7084 46.131 63.7083 46.1336 63.7081 46.1363C63.708 46.139 63.7079 46.1416 63.7077 46.1443C63.7076 46.1469 63.7075 46.1496 63.7073 46.1522C63.7072 46.1549 63.7071 46.1576 63.707 46.1602C63.7068 46.1629 63.7067 46.1656 63.7066 46.1682C63.7064 46.1709 63.7063 46.1736 63.7062 46.1763C63.706 46.1789 63.7059 46.1816 63.7058 46.1843C63.7057 46.187 63.7055 46.1897 63.7054 46.1924C63.7053 46.195 63.7051 46.1977 63.705 46.2004C63.7049 46.2031 63.7047 46.2058 63.7046 46.2085C63.7045 46.2112 63.7043 46.2139 63.7042 46.2166C63.7041 46.2193 63.7039 46.222 63.7038 46.2247C63.7037 46.2274 63.7035 46.2301 63.7034 46.2328C63.7033 46.2355 63.7032 46.2382 63.703 46.2409C63.7029 46.2436 63.7028 46.2464 63.7026 46.2491C63.7025 46.2518 63.7024 46.2545 63.7022 46.2572C63.7021 46.26 63.702 46.2627 63.7018 46.2654C63.7017 46.2681 63.7016 46.2709 63.7014 46.2736C63.7013 46.2763 63.7012 46.2791 63.701 46.2818C63.7009 46.2845 63.7008 46.2873 63.7006 46.29C63.7005 46.2927 63.7004 46.2955 63.7002 46.2982C63.7001 46.301 63.7 46.3037 63.6998 46.3065C63.6997 46.3092 63.6996 46.312 63.6994 46.3147C63.6993 46.3175 63.6992 46.3202 63.699 46.323C63.6989 46.3258 63.6987 46.3285 63.6986 46.3313C63.6985 46.334 63.6983 46.3368 63.6982 46.3396C63.6981 46.3423 63.6979 46.3451 63.6978 46.3479C63.6977 46.3507 63.6975 46.3534 63.6974 46.3562C63.6973 46.359 63.6971 46.3618 63.697 46.3645C63.6969 46.3673 63.6967 46.3701 63.6966 46.3729C63.6964 46.3757 63.6963 46.3785 63.6962 46.3813C63.696 46.3841 63.6959 46.3868 63.6958 46.3896C63.6956 46.3924 63.6955 46.3952 63.6954 46.398C63.6952 46.4008 63.6951 46.4036 63.6949 46.4064C63.6948 46.4092 63.6947 46.412 63.6945 46.4149C63.6944 46.4177 63.6943 46.4205 63.6941 46.4233C63.694 46.4261 63.6939 46.4289 63.6937 46.4317C63.6936 46.4346 63.6934 46.4374 63.6933 46.4402C63.6932 46.443 63.693 46.4458 63.6929 46.4487C63.6927 46.4515 63.6926 46.4543 63.6925 46.4572C63.6923 46.46 63.6922 46.4628 63.6921 46.4657C63.6919 46.4685 63.6918 46.4713 63.6916 46.4742C63.6915 46.477 63.6914 46.4799 63.6912 46.4827C63.6911 46.4856 63.6909 46.4884 63.6908 46.4913C63.6907 46.4941 63.6905 46.497 63.6904 46.4998C63.6903 46.5027 63.6901 46.5055 63.69 46.5084C63.6898 46.5112 63.6897 46.5141 63.6896 46.517C63.6894 46.5198 63.6893 46.5227 63.6891 46.5256C63.689 46.5284 63.6889 46.5313 63.6887 46.5342C63.6886 46.537 63.6884 46.5399 63.6883 46.5428C63.6882 46.5457 63.688 46.5486 63.6879 46.5514C63.6877 46.5543 63.6876 46.5572 63.6875 46.5601C63.6873 46.563 63.6872 46.5659 63.687 46.5688C63.6869 46.5717 63.6867 46.5745 63.6866 46.5774C63.6865 46.5803 63.6863 46.5832 63.6862 46.5861C63.686 46.589 63.6859 46.5919 63.6858 46.5948C63.6856 46.5978 63.6855 46.6007 63.6853 46.6036C63.6852 46.6065 63.685 46.6094 63.6849 46.6123C63.6848 46.6152 63.6846 46.6181 63.6845 46.6211C63.6843 46.624 63.6842 46.6269 63.6841 46.6298C63.6839 46.6327 63.6838 46.6357 63.6836 46.6386C63.6835 46.6415 63.6833 46.6445 63.6832 46.6474C63.6831 46.6503 63.6829 46.6533 63.6828 46.6562C63.6826 46.6591 63.6825 46.6621 63.6823 46.665C63.6822 46.6679 63.682 46.6709 63.6819 46.6738C63.6818 46.6768 63.6816 46.6797 63.6815 46.6827C63.6813 46.6856 63.6812 46.6886 63.681 46.6915C63.6809 46.6945 63.6808 46.6975 63.6806 46.7004C63.6805 46.7034 63.6803 46.7063 63.6802 46.7093C63.68 46.7123 63.6799 46.7152 63.6797 46.7182C63.6796 46.7212 63.6795 46.7241 63.6793 46.7271C63.6792 46.7301 63.679 46.7331 63.6789 46.736C63.6787 46.739 63.6786 46.742 63.6784 46.745C63.6783 46.748 63.6781 46.751 63.678 46.7539C63.6778 46.7569 63.6777 46.7599 63.6776 46.7629C63.6774 46.7659 63.6773 46.7689 63.6771 46.7719C63.677 46.7749 63.6768 46.7779 63.6767 46.7809C63.6765 46.7839 63.6764 46.7869 63.6762 46.7899C63.6761 46.7929 63.6759 46.7959 63.6758 46.7989C63.6757 46.8019 63.6755 46.805 63.6754 46.808C63.6752 46.811 63.6751 46.814 63.6749 46.817C63.6748 46.82 63.6746 46.8231 63.6745 46.8261C63.6743 46.8291 63.6742 46.8321 63.674 46.8352C63.6739 46.8382 63.6737 46.8412 63.6736 46.8443C63.6734 46.8473 63.6733 46.8503 63.6731 46.8534C63.673 46.8564 63.6729 46.8594 63.6727 46.8625C63.6726 46.8655 63.6724 46.8686 63.6723 46.8716C63.6721 46.8747 63.672 46.8777 63.6718 46.8808C63.6717 46.8838 63.6715 46.8869 63.6714 46.8899C63.6712 46.893 63.6711 46.896 63.6709 46.8991C63.6708 46.9022 63.6706 46.9052 63.6705 46.9083C63.6703 46.9114 63.6702 46.9144 63.67 46.9175C63.6699 46.9206 63.6697 46.9236 63.6696 46.9267C63.6694 46.9298 63.6693 46.9329 63.6691 46.9359C63.669 46.939 63.6688 46.9421 63.6687 46.9452C63.6685 46.9483 63.6684 46.9514 63.6682 46.9544C63.6681 46.9575 63.6679 46.9606 63.6678 46.9637C63.6676 46.9668 63.6675 46.9699 63.6673 46.973C63.6672 46.9761 63.667 46.9792 63.6669 46.9823C63.6667 46.9854 63.6666 46.9885 63.6664 46.9916C63.6663 46.9947 63.6661 46.9978 63.6659 47.0009C63.6658 47.0041 63.6656 47.0072 63.6655 47.0103C63.6653 47.0134 63.6652 47.0165 63.665 47.0196C63.6649 47.0228 63.6647 47.0259 63.6646 47.029C63.6644 47.0321 63.6643 47.0353 63.6641 47.0384C63.664 47.0415 63.6638 47.0447 63.6637 47.0478C63.6635 47.0509 63.6634 47.0541 63.6632 47.0572C63.6631 47.0603 63.6629 47.0635 63.6627 47.0666C63.6626 47.0698 63.6624 47.0729 63.6623 47.0761C63.6621 47.0792 63.662 47.0824 63.6618 47.0855C63.6617 47.0887 63.6615 47.0918 63.6614 47.095C63.6612 47.0981 63.6611 47.1013 63.6609 47.1045C63.6607 47.1076 63.6606 47.1108 63.6604 47.1139C63.6603 47.1171 63.6601 47.1203 63.66 47.1234C63.6598 47.1266 63.6597 47.1298 63.6595 47.133C63.6594 47.1361 63.6592 47.1393 63.659 47.1425C63.6589 47.1457 63.6587 47.1489 63.6586 47.152C63.6584 47.1552 63.6583 47.1584 63.6581 47.1616C63.658 47.1648 63.6578 47.168 63.6576 47.1712C63.6575 47.1744 63.6573 47.1776 63.6572 47.1808C63.657 47.184 63.6569 47.1872 63.6567 47.1904C63.6566 47.1936 63.6564 47.1968 63.6562 47.2C63.6561 47.2032 63.6559 47.2064 63.6558 47.2096C63.6556 47.2128 63.6555 47.216 63.6553 47.2193C63.6551 47.2225 63.655 47.2257 63.6548 47.2289C63.6547 47.2321 63.6545 47.2354 63.6544 47.2386C63.6542 47.2418 63.654 47.245 63.6539 47.2483C63.6537 47.2515 63.6536 47.2547 63.6534 47.258C63.6533 47.2612 63.6531 47.2644 63.6529 47.2677C63.6528 47.2709 63.6526 47.2742 63.6525 47.2774C63.6523 47.2806 63.6521 47.2839 63.652 47.2871C63.6518 47.2904 63.6517 47.2936 63.6515 47.2969C63.6514 47.3002 63.6512 47.3034 63.651 47.3067C63.6509 47.3099 63.6507 47.3132 63.6506 47.3164C63.6504 47.3197 63.6502 47.323 63.6501 47.3262C63.6499 47.3295 63.6498 47.3328 63.6496 47.336C63.6494 47.3393 63.6493 47.3426 63.6491 47.3459C63.649 47.3491 63.6488 47.3524 63.6486 47.3557C63.6485 47.359 63.6483 47.3623 63.6482 47.3656C63.648 47.3688 63.6478 47.3721 63.6477 47.3754C63.6475 47.3787 63.6474 47.382 63.6472 47.3853C63.647 47.3886 63.6469 47.3919 63.6467 47.3952C63.6466 47.3985 63.6464 47.4018 63.6462 47.4051C63.6461 47.4084 63.6459 47.4117 63.6457 47.415C63.6456 47.4183 63.6454 47.4216 63.6453 47.4249C63.6451 47.4282 63.6449 47.4316 63.6448 47.4349C63.6446 47.4382 63.6445 47.4415 63.6443 47.4448C63.6441 47.4482 63.644 47.4515 63.6438 47.4548C63.6436 47.4581 63.6435 47.4615 63.6433 47.4648C63.6432 47.4681 63.643 47.4715 63.6428 47.4748C63.6427 47.4781 63.6425 47.4815 63.6423 47.4848C63.6422 47.4882 63.642 47.4915 63.6419 47.4948C63.6417 47.4982 63.6415 47.5015 63.6414 47.5049C63.6412 47.5082 63.641 47.5116 63.6409 47.5149C63.6407 47.5183 63.6405 47.5217 63.6404 47.525C63.6402 47.5284 63.6401 47.5317 63.6399 47.5351C63.6397 47.5385 63.6396 47.5418 63.6394 47.5452C63.6392 47.5486 63.6391 47.5519 63.6389 47.5553C63.6387 47.5587 63.6386 47.562 63.6384 47.5654C63.6382 47.5688 63.6381 47.5722 63.6379 47.5756C63.6378 47.5789 63.6376 47.5823 63.6374 47.5857C63.6373 47.5891 63.6371 47.5925 63.6369 47.5959C63.6368 47.5993 63.6366 47.6027 63.6364 47.6061C63.6363 47.6095 63.6361 47.6129 63.6359 47.6163C63.6358 47.6197 63.6356 47.6231 63.6354 47.6265C63.6353 47.6299 63.6351 47.6333 63.6349 47.6367C63.6348 47.6401 63.6346 47.6435 63.6344 47.6469C63.6343 47.6503 63.6341 47.6537 63.6339 47.6572C63.6338 47.6606 63.6336 47.664 63.6334 47.6674C63.6333 47.6708 63.6331 47.6743 63.6329 47.6777C63.6328 47.6811 63.6326 47.6846 63.6324 47.688C63.6323 47.6914 63.6321 47.6949 63.6319 47.6983C63.6318 47.7017 63.6316 47.7052 63.6314 47.7086C63.6313 47.712 63.6311 47.7155 63.6309 47.7189C63.6308 47.7224 63.6306 47.7258 63.6304 47.7293C63.6302 47.7327 63.6301 47.7362 63.6299 47.7396C63.6297 47.7431 63.6296 47.7466 63.6294 47.75C63.6292 47.7535 63.6291 47.7569 63.6289 47.7604C63.6287 47.7639 63.6286 47.7673 63.6284 47.7708C63.6282 47.7743 63.6281 47.7777 63.6279 47.7812C63.6277 47.7847 63.6275 47.7882 63.6274 47.7916C63.6272 47.7951 63.627 47.7986 63.6269 47.8021C63.6267 47.8056 63.6265 47.809 63.6264 47.8125C63.6262 47.816 63.626 47.8195 63.6258 47.823C63.6257 47.8265 63.6255 47.83 63.6253 47.8335C63.6252 47.837 63.625 47.8405 63.6248 47.844C63.6247 47.8475 63.6245 47.851 63.6243 47.8545C63.6241 47.858 63.624 47.8615 63.6238 47.865C63.6236 47.8685 63.6235 47.872 63.6233 47.8755C63.6231 47.8791 63.6229 47.8826 63.6228 47.8861C63.6226 47.8896 63.6224 47.8931 63.6223 47.8967C63.6221 47.9002 63.6219 47.9037 63.6217 47.9072C63.6216 47.9108 63.6214 47.9143 63.6212 47.9178C63.621 47.9214 63.6209 47.9249 63.6207 47.9284C63.6205 47.932 63.6204 47.9355 63.6202 47.939C63.62 47.9426 63.6198 47.9461 63.6197 47.9497C63.6195 47.9532 63.6193 47.9568 63.6191 47.9603C63.619 47.9639 63.6188 47.9674 63.6186 47.971C63.6185 47.9745 63.6183 47.9781 63.6181 47.9817C63.6179 47.9852 63.6178 47.9888 63.6176 47.9924C63.6174 47.9959 63.6172 47.9995 63.6171 48.0031C63.6169 48.0066 63.6167 48.0102 63.6165 48.0138C63.6164 48.0173 63.6162 48.0209 63.616 48.0245C63.6158 48.0281 63.6157 48.0317 63.6155 48.0352C63.6153 48.0388 63.6151 48.0424 63.615 48.046C63.6148 48.0496 63.6146 48.0532 63.6144 48.0568C63.6143 48.0604 63.6141 48.064 63.6139 48.0676C63.6137 48.0711 63.6136 48.0747 63.6134 48.0783C63.6132 48.082 63.613 48.0856 63.6129 48.0892C63.6127 48.0928 63.6125 48.0964 63.6123 48.1C63.6122 48.1036 63.612 48.1072 63.6118 48.1108C63.6116 48.1144 63.6115 48.1181 63.6113 48.1217C63.6111 48.1253 63.6109 48.1289 63.6107 48.1325C63.6106 48.1362 63.6104 48.1398 63.6102 48.1434C63.61 48.1471 63.6099 48.1507 63.6097 48.1543C63.6095 48.158 63.6093 48.1616 63.6092 48.1652C63.609 48.1689 63.6088 48.1725 63.6086 48.1761C63.6084 48.1798 63.6083 48.1834 63.6081 48.1871C63.6079 48.1907 63.6077 48.1944 63.6076 48.198C63.6074 48.2017 63.6072 48.2053 63.607 48.209C63.6068 48.2127 63.6067 48.2163 63.6065 48.22C63.6063 48.2236 63.6061 48.2273 63.6059 48.231C63.6058 48.2346 63.6056 48.2383 63.6054 48.242C63.6052 48.2456 63.6051 48.2493 63.6049 48.253C63.6047 48.2567 63.6045 48.2603 63.6043 48.264C63.6042 48.2677 63.604 48.2714 63.6038 48.2751C63.6036 48.2787 63.6034 48.2824 63.6033 48.2861C63.6031 48.2898 63.6029 48.2935 63.6027 48.2972C63.6025 48.3009 63.6024 48.3046 63.6022 48.3083C63.602 48.312 63.6018 48.3157 63.6016 48.3194C63.6015 48.3231 63.6013 48.3268 63.6011 48.3305C63.6009 48.3342 63.6007 48.3379 63.6005 48.3416C63.6004 48.3453 63.6002 48.349 63.6 48.3528C63.5998 48.3565 63.5996 48.3602 63.5995 48.3639C63.5993 48.3676 63.5991 48.3714 63.5989 48.3751C63.5987 48.3788 63.5986 48.3825 63.5984 48.3863C63.5982 48.39 63.598 48.3937 63.5978 48.3975C63.5976 48.4012 63.5975 48.4049 63.5973 48.4087C63.5971 48.4124 63.5969 48.4162 63.5967 48.4199C63.5965 48.4236 63.5964 48.4274 63.5962 48.4311C63.596 48.4349 63.5958 48.4386 63.5956 48.4424C63.5955 48.4461 63.5953 48.4499 63.5951 48.4537C63.5949 48.4574 63.5947 48.4612 63.5945 48.4649C63.5943 48.4687 63.5942 48.4725 63.594 48.4762C63.5938 48.48 63.5936 48.4838 63.5934 48.4875C63.5932 48.4913 63.5931 48.4951 63.5929 48.4988C63.5927 48.5026 63.5925 48.5064 63.5923 48.5102C63.5921 48.514 63.592 48.5177 63.5918 48.5215C63.5916 48.5253 63.5914 48.5291 63.5912 48.5329C63.591 48.5367 63.5908 48.5405 63.5907 48.5443C63.5905 48.5481 63.5903 48.5519 63.5901 48.5557C63.5899 48.5595 63.5897 48.5633 63.5896 48.5671C63.5894 48.5709 63.5892 48.5747 63.589 48.5785C63.5888 48.5823 63.5886 48.5861 63.5884 48.5899C63.5883 48.5937 63.5881 48.5975 63.5879 48.6013C63.5877 48.6052 63.5875 48.609 63.5873 48.6128C63.5871 48.6166 63.5869 48.6204 63.5868 48.6243C63.5866 48.6281 63.5864 48.6319 63.5862 48.6358C63.586 48.6396 63.5858 48.6434 63.5856 48.6473C63.5855 48.6511 63.5853 48.6549 63.5851 48.6588C63.5849 48.6626 63.5847 48.6665 63.5845 48.6703C63.5843 48.6741 63.5841 48.678 63.584 48.6818C63.5838 48.6857 63.5836 48.6895 63.5834 48.6934C63.5832 48.6972 63.583 48.7011 63.5828 48.705C63.5826 48.7088 63.5824 48.7127 63.5823 48.7165C63.5821 48.7204 63.5819 48.7243 63.5817 48.7281C63.5815 48.732 63.5813 48.7359 63.5811 48.7397C63.5809 48.7436 63.5807 48.7475 63.5806 48.7514C63.5804 48.7552 63.5802 48.7591 63.58 48.763C63.5798 48.7669 63.5796 48.7708 63.5794 48.7747C63.5792 48.7785 63.579 48.7824 63.5789 48.7863C63.5787 48.7902 63.5785 48.7941 63.5783 48.798C63.5781 48.8019 63.5779 48.8058 63.5777 48.8097C63.5775 48.8136 63.5773 48.8175 63.5771 48.8214C63.577 48.8253 63.5768 48.8292 63.5766 48.8331C63.5764 48.837 63.5762 48.8409 63.576 48.8448C63.5758 48.8488 63.5756 48.8527 63.5754 48.8566C63.5752 48.8605 63.575 48.8644 63.5749 48.8683C63.5747 48.8723 63.5745 48.8762 63.5743 48.8801C63.5741 48.884 63.5739 48.888 63.5737 48.8919C63.5735 48.8958 63.5733 48.8998 63.5731 48.9037C63.5729 48.9076 63.5727 48.9116 63.5726 48.9155C63.5724 48.9195 63.5722 48.9234 63.572 48.9274C63.5718 48.9313 63.5716 48.9352 63.5714 48.9392C63.5712 48.9431 63.571 48.9471 63.5708 48.9511C63.5706 48.955 63.5704 48.959 63.5702 48.9629C63.57 48.9669 63.5699 48.9708 63.5697 48.9748C63.5695 48.9788 63.5693 48.9827 63.5691 48.9867C63.5689 48.9907 63.5687 48.9946 63.5685 48.9986C63.5683 49.0026 63.5681 49.0066 63.5679 49.0105C63.5677 49.0145 63.5675 49.0185 63.5673 49.0225C63.5671 49.0265 63.5669 49.0304 63.5668 49.0344C63.5666 49.0384 63.5664 49.0424 63.5662 49.0464C63.566 49.0504 63.5658 49.0544 63.5656 49.0584C63.5654 49.0624 63.5652 49.0664 63.565 49.0704C63.5648 49.0744 63.5646 49.0784 63.5644 49.0824C63.5642 49.0864 63.564 49.0904 63.5638 49.0944C63.5636 49.0984 63.5634 49.1024 63.5632 49.1064C63.563 49.1105 63.5628 49.1145 63.5627 49.1185C63.5625 49.1225 63.5623 49.1265 63.5621 49.1305C63.5619 49.1346 63.5617 49.1386 63.5615 49.1426C63.5613 49.1466 63.5611 49.1507 63.5609 49.1547C63.5607 49.1587 63.5605 49.1628 63.5603 49.1668C63.5601 49.1709 63.5599 49.1749 63.5597 49.1789C63.5595 49.183 63.5593 49.187 63.5591 49.1911C63.5589 49.1951 63.5587 49.1992 63.5585 49.2032C63.5583 49.2073 63.5581 49.2113 63.5579 49.2154C63.5577 49.2194 63.5575 49.2235 63.5573 49.2275C63.5571 49.2316 63.5569 49.2357 63.5567 49.2397C63.5565 49.2438 63.5563 49.2479 63.5561 49.2519C63.5559 49.256 63.5557 49.2601 63.5555 49.2641C63.5553 49.2682 63.5551 49.2723 63.555 49.2764C63.5548 49.2804 63.5546 49.2845 63.5544 49.2886C63.5542 49.2927 63.554 49.2968 63.5538 49.3009C63.5536 49.305 63.5534 49.309 63.5532 49.3131C63.553 49.3172 63.5528 49.3213 63.5526 49.3254C63.5524 49.3295 63.5522 49.3336 63.552 49.3377C63.5518 49.3418 63.5516 49.3459 63.5514 49.35C63.5512 49.3541 63.551 49.3582 63.5508 49.3623C63.5506 49.3665 63.5504 49.3706 63.5502 49.3747C63.55 49.3788 63.5498 49.3829 63.5496 49.387C63.5494 49.3912 63.5492 49.3953 63.549 49.3994C63.5487 49.4035 63.5485 49.4076 63.5483 49.4118C63.5481 49.4159 63.5479 49.42 63.5477 49.4242C63.5475 49.4283 63.5473 49.4324 63.5471 49.4366C63.5469 49.4407 63.5467 49.4449 63.5465 49.449C63.5463 49.4531 63.5461 49.4573 63.5459 49.4614C63.5457 49.4656 63.5455 49.4697 63.5453 49.4739C63.5451 49.478 63.5449 49.4822 63.5447 49.4863C63.5445 49.4905 63.5443 49.4946 63.5441 49.4988C63.5439 49.503 63.5437 49.5071 63.5435 49.5113C63.5433 49.5155 63.5431 49.5196 63.5429 49.5238C63.5427 49.528 63.5425 49.5321 63.5423 49.5363C63.5421 49.5405 63.5419 49.5447 63.5417 49.5488C63.5415 49.553 63.5413 49.5572 63.541 49.5614C63.5408 49.5656 63.5406 49.5698 63.5404 49.5739C63.5402 49.5781 63.54 49.5823 63.5398 49.5865C63.5396 49.5907 63.5394 49.5949 63.5392 49.5991C63.539 49.6033 63.5388 49.6075 63.5386 49.6117C63.5384 49.6159 63.5382 49.6201 63.538 49.6243C63.5378 49.6285 63.5376 49.6327 63.5374 49.6369C63.5372 49.6412 63.537 49.6454 63.5367 49.6496C63.5365 49.6538 63.5363 49.658 63.5361 49.6622C63.5359 49.6665 63.5357 49.6707 63.5355 49.6749C63.5353 49.6791 63.5351 49.6834 63.5349 49.6876C63.5347 49.6918 63.5345 49.696 63.5343 49.7003C63.5341 49.7045 63.5339 49.7087 63.5337 49.713C63.5334 49.7172 63.5332 49.7215 63.533 49.7257C63.5328 49.7299 63.5326 49.7342 63.5324 49.7384C63.5322 49.7427 63.532 49.7469 63.5318 49.7512C63.5316 49.7554 63.5314 49.7597 63.5312 49.764C63.531 49.7682 63.5308 49.7725 63.5305 49.7767C63.5303 49.781 63.5301 49.7853 63.5299 49.7895C63.5297 49.7938 63.5295 49.7981 63.5293 49.8023C63.5291 49.8066 63.5289 49.8109 63.5287 49.8151C63.5285 49.8194 63.5283 49.8237 63.528 49.828C63.5278 49.8323 63.5276 49.8365 63.5274 49.8408C63.5272 49.8451 63.527 49.8494 63.5268 49.8537C63.5266 49.858 63.5264 49.8623 63.5262 49.8666C63.526 49.8709 63.5257 49.8751 63.5255 49.8794C63.5253 49.8837 63.5251 49.888 63.5249 49.8923C63.5247 49.8966 63.5245 49.901 63.5243 49.9053C63.5241 49.9096 63.5239 49.9139 63.5236 49.9182C63.5234 49.9225 63.5232 49.9268 63.523 49.9311C63.5228 49.9354 63.5226 49.9398 63.5224 49.9441C63.5222 49.9484 63.522 49.9527 63.5217 49.9571C63.5215 49.9614 63.5213 49.9657 63.5211 49.97C63.5209 49.9744 63.5207 49.9787 63.5205 49.983C63.5203 49.9874 63.5201 49.9917 63.5198 49.996C63.5196 50.0004 63.5194 50.0047 63.5192 50.0091C63.519 50.0134 63.5188 50.0178 63.5186 50.0221C63.5184 50.0265 63.5182 50.0308 63.5179 50.0352C63.5177 50.0395 63.5175 50.0439 63.5173 50.0482C63.5171 50.0526 63.5169 50.0569 63.5167 50.0613C63.5164 50.0657 63.5162 50.07 63.516 50.0744C63.5158 50.0788 63.5156 50.0831 63.5154 50.0875C63.5152 50.0919 63.515 50.0963 63.5147 50.1006C63.5145 50.105 63.5143 50.1094 63.5141 50.1138C63.5139 50.1181 63.5137 50.1225 63.5135 50.1269C63.5132 50.1313 63.513 50.1357 63.5128 50.1401C63.5126 50.1445 63.5124 50.1489 63.5122 50.1533C63.512 50.1576 63.5117 50.162 63.5115 50.1664C63.5113 50.1708 63.5111 50.1752 63.5109 50.1796C63.5107 50.184 63.5105 50.1885 63.5102 50.1929C63.51 50.1973 63.5098 50.2017 63.5096 50.2061C63.5094 50.2105 63.5092 50.2149 63.509 50.2193C63.5087 50.2238 63.5085 50.2282 63.5083 50.2326C63.5081 50.237 63.5079 50.2414 63.5077 50.2459C63.5074 50.2503 63.5072 50.2547 63.507 50.2592C63.5068 50.2636 63.5066 50.268 63.5064 50.2725C63.5061 50.2769 63.5059 50.2813 63.5057 50.2858C63.5055 50.2902 63.5053 50.2946 63.5051 50.2991C63.5048 50.3035 63.5046 50.308 63.5044 50.3124C63.5042 50.3169 63.504 50.3213 63.5038 50.3258C63.5035 50.3302 63.5033 50.3347 63.5031 50.3392C63.5029 50.3436 63.5027 50.3481 63.5025 50.3525C63.5022 50.357 63.502 50.3615 63.5018 50.3659C63.5016 50.3704 63.5014 50.3749 63.5011 50.3793C63.5009 50.3838 63.5007 50.3883 63.5005 50.3928C63.5003 50.3972 63.5001 50.4017 63.4998 50.4062C63.4996 50.4107 63.4994 50.4152 63.4992 50.4197C63.499 50.4241 63.4987 50.4286 63.4985 50.4331C63.4983 50.4376 63.4981 50.4421 63.4979 50.4466C63.4976 50.4511 63.4974 50.4556 63.4972 50.4601C63.497 50.4646 63.4968 50.4691 63.4966 50.4736C63.4963 50.4781 63.4961 50.4826 63.4959 50.4871C63.4957 50.4916 63.4954 50.4961 63.4952 50.5006C63.495 50.5052 63.4948 50.5097 63.4946 50.5142C63.4944 50.5187 63.4941 50.5232 63.4939 50.5278C63.4937 50.5323 63.4935 50.5368 63.4932 50.5413C63.493 50.5459 63.4928 50.5504 63.4926 50.5549C63.4924 50.5595 63.4921 50.564 63.4919 50.5685C63.4917 50.5731 63.4915 50.5776 63.4913 50.5821C63.491 50.5867 63.4908 50.5912 63.4906 50.5958C63.4904 50.6003 63.4901 50.6049 63.4899 50.6094C63.4897 50.614 63.4895 50.6185 63.4893 50.6231C63.489 50.6276 63.4888 50.6322 63.4886 50.6367C63.4884 50.6413 63.4881 50.6459 63.4879 50.6504C63.4877 50.655 63.4875 50.6596 63.4873 50.6641C63.487 50.6687 63.4868 50.6733 63.4866 50.6778C63.4864 50.6824 63.4861 50.687 63.4859 50.6916C63.4857 50.6961 63.4855 50.7007 63.4852 50.7053C63.485 50.7099 63.4848 50.7145 63.4846 50.7191C63.4844 50.7236 63.4841 50.7282 63.4839 50.7328C63.4837 50.7374 63.4835 50.742 63.4832 50.7466C63.483 50.7512 63.4828 50.7558 63.4826 50.7604C63.4823 50.765 63.4821 50.7696 63.4819 50.7742C63.4817 50.7788 63.4814 50.7834 63.4812 50.788C63.481 50.7926 63.4808 50.7972 63.4805 50.8019C63.4803 50.8065 63.4801 50.8111 63.4799 50.8157C63.4796 50.8203 63.4794 50.8249 63.4792 50.8296C63.479 50.8342 63.4787 50.8388 63.4785 50.8434C63.4783 50.8481 63.4781 50.8527 63.4778 50.8573C63.4776 50.862 63.4774 50.8666 63.4772 50.8712C63.4769 50.8759 63.4767 50.8805 63.4765 50.8852C63.4762 50.8898 63.476 50.8944 63.4758 50.8991C63.4756 50.9037 63.4753 50.9084 63.4751 50.913C63.4749 50.9177 63.4747 50.9223 63.4744 50.927C63.4742 50.9317 63.474 50.9363 63.4738 50.941C63.4735 50.9456 63.4733 50.9503 63.4731 50.955C63.4728 50.9596 63.4726 50.9643 63.4724 50.969C63.4722 50.9736 63.4719 50.9783 63.4717 50.983C63.4715 50.9876 63.4712 50.9923 63.471 50.997C63.4708 51.0017 63.4706 51.0064 63.4703 51.011C63.4701 51.0157 63.4699 51.0204 63.4696 51.0251C63.4694 51.0298 63.4692 51.0345 63.469 51.0392L65.4666 51.1366ZM64.7314 44.6826H64.3359V46.6826H64.7314V44.6826ZM63.3861 45.3699L46.8187 95.6873L48.7184 96.3127L65.2858 45.9954L63.3861 45.3699ZM47.7686 95H35.2881V97H47.7686V95ZM135.062 82.2451L134.119 81.9132L134.116 81.921L135.062 82.2451ZM130.272 90.2871L129.551 89.5946L129.55 89.5948L130.272 90.2871ZM122.713 95.209L122.361 94.273L122.358 94.2742L122.713 95.209ZM103.246 95.209L102.884 96.1413L102.887 96.1426L103.246 95.209ZM95.7311 90.2871L95.0096 90.9797L95.0192 90.9894L95.7311 90.2871ZM90.8092 82.2451L89.8686 82.5848L89.8714 82.5924L90.8092 82.2451ZM125.262 48.8906L124.778 49.7655L124.781 49.7671L125.262 48.8906ZM133.656 57.5039L132.774 57.9756L132.777 57.9808L133.656 57.5039ZM118.714 84.4424L118.117 83.6405L118.109 83.6462L118.714 84.4424ZM121.966 79.4766L121.014 79.1718L121.01 79.1834L121.966 79.4766ZM121.966 63.2607L121.011 63.5575L121.014 63.5653L121.016 63.5731L121.966 63.2607ZM105.135 60.4043L104.302 59.8519L104.297 59.859L105.135 60.4043ZM135.732 71.3467C135.732 75.3595 135.187 78.8765 134.119 81.9132L136.005 82.577C137.164 79.2856 137.732 75.537 137.732 71.3467H135.732ZM134.116 81.921C133.075 84.961 131.55 87.5122 129.551 89.5946L130.993 90.9796C133.213 88.6674 134.882 85.8573 136.008 82.5692L134.116 81.921ZM129.55 89.5948C127.579 91.6493 125.188 93.2095 122.361 94.273L123.066 96.1449C126.157 94.9819 128.805 93.2608 130.994 90.9794L129.55 89.5948ZM122.358 94.2742C119.56 95.3374 116.373 95.8789 112.782 95.8789V97.8789C116.573 97.8789 120.007 97.3071 123.069 96.1438L122.358 94.2742ZM112.782 95.8789C109.434 95.8789 106.378 95.3401 103.604 94.2754L102.887 96.1426C105.914 97.3044 109.216 97.8789 112.782 97.8789V95.8789ZM103.607 94.2766C100.866 93.2138 98.4813 91.6511 96.443 89.5848L95.0192 90.9894C97.2582 93.2591 99.8829 94.9776 102.884 96.1413L103.607 94.2766ZM96.4524 89.5946C94.4479 87.5065 92.8763 84.9471 91.7469 81.8978L89.8714 82.5924C91.0858 85.8713 92.7955 88.6732 95.0097 90.9796L96.4524 89.5946ZM91.7497 81.9055C90.654 78.8713 90.0953 75.357 90.0953 71.3467H88.0953C88.0953 75.5395 88.6792 79.2909 89.8686 82.5848L91.7497 81.9055ZM90.0953 71.3467C90.0953 66.0123 91.042 61.5634 92.886 57.9594L91.1055 57.0484C89.0822 61.003 88.0953 65.7827 88.0953 71.3467H90.0953ZM92.886 57.9594C94.7324 54.3504 97.3474 51.6296 100.739 49.7671L99.7761 48.0141C96.019 50.0774 93.1262 53.0988 91.1055 57.0484L92.886 57.9594ZM100.739 49.7671C104.137 47.9009 108.227 46.9463 113.046 46.9463V44.9463C107.962 44.9463 103.526 45.9546 99.7761 48.0141L100.739 49.7671ZM113.046 46.9463C117.499 46.9463 121.4 47.8952 124.778 49.7655L125.747 48.0158C122.034 45.9602 117.791 44.9463 113.046 44.9463V46.9463ZM124.781 49.7671C128.176 51.6318 130.839 54.358 132.774 57.9756L134.538 57.0323C132.43 53.0912 129.497 50.0752 125.744 48.0141L124.781 49.7671ZM132.777 57.9808C134.73 61.5797 135.732 66.0205 135.732 71.3467H137.732C137.732 65.7745 136.684 60.9867 134.535 57.027L132.777 57.9808ZM101.762 71.3467C101.762 74.635 102.12 77.4551 102.865 79.7813L104.769 79.1718C104.108 77.1035 103.762 74.5037 103.762 71.3467H101.762ZM102.865 79.7813C103.616 82.1294 104.818 83.9793 106.515 85.2443L107.71 83.6405C106.42 82.6789 105.424 81.2183 104.769 79.1718L102.865 79.7813ZM106.515 85.2443C108.226 86.5191 110.403 87.1123 112.958 87.1123V85.1123C110.708 85.1123 108.988 84.5922 107.71 83.6405L106.515 85.2443ZM112.958 87.1123C115.485 87.1123 117.636 86.518 119.32 85.2385L118.109 83.6462C116.863 84.5933 115.176 85.1123 112.958 85.1123V87.1123ZM119.312 85.2443C121.013 83.9767 122.201 82.1221 122.922 79.7698L121.01 79.1834C120.384 81.2255 119.404 82.6815 118.117 83.6405L119.312 85.2443ZM122.919 79.7813C123.663 77.4551 124.021 74.635 124.021 71.3467H122.021C122.021 74.5037 121.676 77.1035 121.014 79.1718L122.919 79.7813ZM124.021 71.3467C124.021 68.0315 123.664 65.2218 122.916 62.9484L121.016 63.5731C121.675 65.577 122.021 68.1579 122.021 71.3467H124.021ZM122.921 62.9639C122.198 60.6382 121.007 58.8109 119.302 57.5734L118.127 59.1922C119.41 60.1227 120.387 61.5473 121.011 63.5575L122.921 62.9639ZM119.302 57.5734C117.592 56.3329 115.42 55.7568 112.87 55.7568V57.7568C115.125 57.7568 116.849 58.2648 118.127 59.1922L119.302 57.5734ZM112.87 55.7568C109.072 55.7568 106.14 57.0782 104.302 59.8519L105.969 60.9567C107.354 58.8671 109.577 57.7568 112.87 57.7568V55.7568ZM104.297 59.859C102.56 62.529 101.762 66.4069 101.762 71.3467H103.762C103.762 66.5599 104.547 63.1428 105.974 60.9496L104.297 59.859ZM192.121 46.8691H193.121V45.8691H192.121V46.8691ZM192.121 86.2002H191.121V87.2002H192.121V86.2002ZM199.328 86.2002H200.328V85.2002H199.328V86.2002ZM199.328 113.622V114.622H200.328V113.622H199.328ZM187.287 113.622H186.287V114.622H187.287V113.622ZM187.287 96H188.287V95H187.287V96ZM154.24 96V95H153.24V96H154.24ZM154.24 113.622V114.622H155.24V113.622H154.24ZM142.199 113.622H141.199V114.622H142.199V113.622ZM142.199 86.2002V85.2002H141.199V86.2002H142.199ZM146.33 86.2002V87.2002H146.871L147.167 86.748L146.33 86.2002ZM151.779 74.8623L150.836 74.5305L150.834 74.5363L151.779 74.8623ZM155.383 61.3711L154.402 61.1785L154.401 61.1831L155.383 61.3711ZM157.404 46.8691V45.8691H156.485L156.408 46.7856L157.404 46.8691ZM178.718 56.9326H179.718V55.9326H178.718V56.9326ZM168.654 56.9326V55.9326H167.775L167.663 56.8046L168.654 56.9326ZM166.853 67.4795L165.875 67.2688L165.874 67.2752L166.853 67.4795ZM164.216 77.2354L165.163 77.5569L165.164 77.5542L164.216 77.2354ZM160.349 86.2002L159.465 85.7315L158.686 87.2002H160.349V86.2002ZM178.718 86.2002V87.2002H179.718V86.2002H178.718ZM191.121 46.8691V86.2002H193.121V46.8691H191.121ZM192.121 87.2002H199.328V85.2002H192.121V87.2002ZM198.328 86.2002V113.622H200.328V86.2002H198.328ZM199.328 112.622H187.287V114.622H199.328V112.622ZM188.287 113.622V96H186.287V113.622H188.287ZM187.287 95H154.24V97H187.287V95ZM153.24 96V113.622H155.24V96H153.24ZM154.24 112.622H142.199V114.622H154.24V112.622ZM143.199 113.622V86.2002H141.199V113.622H143.199ZM142.199 87.2002H146.33V85.2002H142.199V87.2002ZM147.167 86.748C149.386 83.3597 151.237 79.5042 152.725 75.1883L150.834 74.5363C149.393 78.7166 147.611 82.4196 145.494 85.6524L147.167 86.748ZM152.723 75.1941C154.235 70.8959 155.448 66.3505 156.365 61.559L154.401 61.1831C153.501 65.8839 152.313 70.3326 150.836 74.5305L152.723 75.1941ZM156.364 61.5637C157.309 56.752 157.988 51.8816 158.401 46.9527L156.408 46.7856C156.001 51.6419 155.332 56.4394 154.402 61.1785L156.364 61.5637ZM157.404 47.8691H192.121V45.8691H157.404V47.8691ZM178.718 55.9326H168.654V57.9326H178.718V55.9326ZM167.663 56.8046C167.197 60.4112 166.601 63.8991 165.875 67.2688L167.83 67.6902C168.569 64.263 169.174 60.7197 169.646 57.0606L167.663 56.8046ZM165.874 67.2752C165.178 70.6071 164.31 73.8207 163.268 76.9165L165.164 77.5542C166.232 74.3804 167.121 71.0901 167.832 67.6838L165.874 67.2752ZM163.269 76.9138C162.232 79.969 160.964 82.9081 159.465 85.7315L161.232 86.6689C162.781 83.7501 164.091 80.7126 165.163 77.5569L163.269 76.9138ZM160.349 87.2002H178.718V85.2002H160.349V87.2002ZM179.718 86.2002V56.9326H177.718V86.2002H179.718ZM239.864 48.583L239.392 49.4645L239.398 49.4678L239.864 48.583ZM250.147 74.7744V75.7744H251.147V74.7744H250.147ZM218.463 74.7744V73.7744H217.423L217.463 74.8131L218.463 74.7744ZM221.846 83.6953L221.13 84.3927L221.139 84.4024L221.846 83.6953ZM247.379 83.0361H248.379V81.4639L246.955 82.1304L247.379 83.0361ZM247.379 93.4072L247.822 94.3038L248.379 94.0286V93.4072H247.379ZM239.732 96.0439L239.528 95.0651L239.526 95.0655L239.732 96.0439ZM217.012 94.1543L216.579 95.0556L216.582 95.0569L217.012 94.1543ZM208.092 85.8486L207.225 86.347L207.228 86.3521L208.092 85.8486ZM207.784 57.46L206.894 57.0046L206.892 57.0073L207.784 57.46ZM215.958 48.8467L216.437 49.7243L216.443 49.7212L215.958 48.8467ZM221.715 57.9873L221.02 57.2681L221.014 57.2741L221.715 57.9873ZM218.77 65.8535L217.773 65.7799L217.694 66.8535H218.77V65.8535ZM237.579 65.8535V66.8535H238.594L238.579 65.8388L237.579 65.8535ZM236.48 60.5361L235.563 60.9342L235.566 60.9415L235.569 60.9486L236.48 60.5361ZM233.404 56.8447L232.845 57.674L232.854 57.6795L233.404 56.8447ZM228.131 46.9463C232.543 46.9463 236.284 47.7998 239.392 49.4645L240.336 47.7015C236.881 45.8506 232.801 44.9463 228.131 44.9463V46.9463ZM239.398 49.4678C242.501 51.1024 244.892 53.478 246.587 56.6166L248.347 55.6666C246.467 52.1841 243.79 49.5207 240.33 47.6983L239.398 49.4678ZM246.587 56.6166C248.277 59.7471 249.147 63.6173 249.147 68.2705H251.147C251.147 63.3729 250.231 59.1572 248.347 55.6666L246.587 56.6166ZM249.147 68.2705V74.7744H251.147V68.2705H249.147ZM250.147 73.7744H218.463V75.7744H250.147V73.7744ZM217.463 74.8131C217.617 78.7751 218.808 82.0064 221.13 84.3927L222.563 82.998C220.666 81.0483 219.601 78.3323 219.462 74.7357L217.463 74.8131ZM221.139 84.4024C223.51 86.7729 226.749 87.9033 230.723 87.9033V85.9033C227.139 85.9033 224.46 84.8951 222.554 82.9882L221.139 84.4024ZM230.723 87.9033C233.926 87.9033 236.879 87.5742 239.577 86.9073L239.097 84.9657C236.58 85.588 233.79 85.9033 230.723 85.9033V87.9033ZM239.577 86.9073C242.255 86.2452 244.997 85.255 247.803 83.9418L246.955 82.1304C244.252 83.3954 241.633 84.3388 239.097 84.9657L239.577 86.9073ZM246.379 83.0361V93.4072H248.379V83.0361H246.379ZM246.936 92.5107C244.58 93.6743 242.112 94.5256 239.528 95.0651L239.937 97.0228C242.685 96.449 245.314 95.5425 247.822 94.3038L246.936 92.5107ZM239.526 95.0655C236.978 95.6034 233.843 95.8789 230.108 95.8789V97.8789C233.932 97.8789 237.213 97.5978 239.939 97.0224L239.526 95.0655ZM230.108 95.8789C225.311 95.8789 221.096 94.9941 217.443 93.2517L216.582 95.0569C220.546 96.9473 225.062 97.8789 230.108 97.8789V95.8789ZM217.446 93.253C213.852 91.5256 211.026 88.8981 208.956 85.3452L207.228 86.3521C209.493 90.2405 212.615 93.1502 216.579 95.0556L217.446 93.253ZM208.959 85.3503C206.93 81.8219 205.884 77.3194 205.884 71.7861H203.884C203.884 77.5614 204.975 82.4339 207.225 86.347L208.959 85.3503ZM205.884 71.7861C205.884 66.1496 206.833 61.5412 208.676 57.9127L206.892 57.0073C204.867 60.9959 203.884 65.9383 203.884 71.7861H205.884ZM208.674 57.9153C210.554 54.2403 213.142 51.5241 216.437 49.7243L215.478 47.9691C211.801 49.9779 208.94 53.0038 206.894 57.0046L208.674 57.9153ZM216.443 49.7212C219.758 47.8823 223.644 46.9463 228.131 46.9463V44.9463C223.36 44.9463 219.13 45.9439 215.473 47.9722L216.443 49.7212ZM228.219 54.4824C225.376 54.4824 222.951 55.402 221.02 57.2681L222.409 58.7065C223.935 57.2328 225.846 56.4824 228.219 56.4824V54.4824ZM221.014 57.2741C219.072 59.1821 218.046 62.0819 217.773 65.7799L219.768 65.9271C220.022 62.4767 220.959 60.1323 222.416 58.7005L221.014 57.2741ZM218.77 66.8535H237.579V64.8535H218.77V66.8535ZM238.579 65.8388C238.548 63.7323 238.16 61.8208 237.391 60.1236L235.569 60.9486C236.207 62.357 236.551 63.9904 236.579 65.8682L238.579 65.8388ZM237.398 60.138C236.649 58.4122 235.498 57.028 233.955 56.01L232.854 57.6795C234.064 58.4779 234.964 59.5546 235.563 60.9342L237.398 60.138ZM233.963 56.0155C232.407 54.9671 230.468 54.4824 228.219 54.4824V56.4824C230.188 56.4824 231.706 56.9059 232.845 57.674L233.963 56.0155ZM305.185 96V97H306.185V96H305.185ZM291.782 96H290.782V97H291.782V96ZM291.782 56.9326H292.782V55.9326H291.782V56.9326ZM279.433 56.9326V55.9326H278.515L278.437 56.8476L279.433 56.9326ZM273.984 87.7383L274.907 88.1229L274.908 88.1199L273.984 87.7383ZM257.548 96.5273L257.361 97.5097L257.365 97.5105L257.548 96.5273ZM254.164 95.4727H253.164V96.1151L253.749 96.3821L254.164 95.4727ZM254.164 84.75L254.543 83.8245L253.164 83.2605V84.75H254.164ZM256.23 85.4092L255.997 86.3816L256.015 86.386L256.034 86.3898L256.23 85.4092ZM263.041 81.1465L263.966 81.5264L263.969 81.5207L263.041 81.1465ZM264.931 74.2471L263.952 74.0415L263.95 74.051L264.931 74.2471ZM268.007 46.8691V45.8691H267.074L267.01 46.8002L268.007 46.8691ZM305.185 46.8691H306.185V45.8691H305.185V46.8691ZM305.185 95H291.782V97H305.185V95ZM292.782 96V56.9326H290.782V96H292.782ZM291.782 55.9326H279.433V57.9326H291.782V55.9326ZM278.437 56.8476C277.823 64.0376 277.093 70.1469 276.25 75.1804L278.222 75.511C279.077 70.4078 279.813 64.2417 280.429 57.0177L278.437 56.8476ZM276.25 75.1804C275.407 80.2068 274.339 84.2577 273.059 87.3567L274.908 88.1199C276.265 84.8322 277.365 80.6213 278.222 75.511L276.25 75.1804ZM273.061 87.3537C271.785 90.4152 270.237 92.5572 268.464 93.8802L269.66 95.4831C271.813 93.8764 273.546 91.3895 274.907 88.1229L273.061 87.3537ZM268.464 93.8802C266.702 95.1949 264.505 95.8789 261.811 95.8789V97.8789C264.859 97.8789 267.496 97.0981 269.66 95.4831L268.464 93.8802ZM261.811 95.8789C260.277 95.8789 258.919 95.7651 257.731 95.5442L257.365 97.5105C258.698 97.7583 260.181 97.8789 261.811 97.8789V95.8789ZM257.735 95.545C256.575 95.324 255.525 94.9951 254.58 94.5632L253.749 96.3821C254.855 96.8877 256.06 97.2619 257.361 97.5097L257.735 95.545ZM255.164 95.4727V84.75H253.164V95.4727H255.164ZM253.786 85.6755C254.481 85.96 255.219 86.1948 255.997 86.3816L256.463 84.4368C255.776 84.2719 255.137 84.0673 254.543 83.8245L253.786 85.6755ZM256.034 86.3898C256.832 86.5494 257.645 86.6289 258.471 86.6289V84.6289C257.774 84.6289 257.093 84.5619 256.426 84.4286L256.034 86.3898ZM258.471 86.6289C259.611 86.6289 260.644 86.1692 261.551 85.3672L260.226 83.8692C259.609 84.4148 259.03 84.6289 258.471 84.6289V86.6289ZM261.551 85.3672C262.483 84.5427 263.272 83.2181 263.966 81.5264L262.116 80.7666C261.464 82.3562 260.817 83.346 260.226 83.8692L261.551 85.3672ZM263.969 81.5207C264.676 79.768 265.32 77.3996 265.912 74.4432L263.95 74.051C263.37 76.9539 262.755 79.1851 262.114 80.7723L263.969 81.5207ZM265.91 74.4526C266.534 71.48 267.095 67.7394 267.595 63.2393L265.607 63.0185C265.111 67.4832 264.559 71.1547 263.952 74.0415L265.91 74.4526ZM267.595 63.2393C268.095 58.7388 268.565 53.3042 269.005 46.9381L267.01 46.8002C266.571 53.1489 266.103 58.5542 265.607 63.0185L267.595 63.2393ZM268.007 47.8691H305.185V45.8691H268.007V47.8691ZM304.185 46.8691V96H306.185V46.8691H304.185ZM332.845 65.8535H331.845V66.8535H332.845V65.8535ZM362.112 72.2695L361.31 72.8661L361.314 72.8713L362.112 72.2695ZM319.441 96H318.441V97H319.441V96ZM319.441 46.8691V45.8691H318.441V46.8691H319.441ZM332.845 46.8691H333.845V45.8691H332.845V46.8691ZM332.845 75.126V74.126H331.845V75.126H332.845ZM332.845 86.7275H331.845V87.7275H332.845V86.7275ZM348.621 85.3213L349.111 86.1934L349.122 86.1867L348.621 85.3213ZM332.845 66.8535H342.293V64.8535H332.845V66.8535ZM342.293 66.8535C347.272 66.8535 351.319 67.3757 354.467 68.3876L355.079 66.4835C351.665 65.386 347.392 64.8535 342.293 64.8535V66.8535ZM354.467 68.3876C357.605 69.3961 359.853 70.9065 361.31 72.8661L362.915 71.673C361.149 69.2966 358.504 67.5844 355.079 66.4835L354.467 68.3876ZM361.314 72.8713C362.768 74.8019 363.529 77.2729 363.529 80.3555H365.529C365.529 76.9341 364.679 74.0145 362.911 71.6678L361.314 72.8713ZM363.529 80.3555C363.529 83.3599 362.836 85.9244 361.484 88.0872L363.18 89.1472C364.758 86.6225 365.529 83.6792 365.529 80.3555H363.529ZM361.484 88.0872C360.156 90.2118 358.017 91.9094 354.97 93.1391L355.719 94.9937C359.06 93.6453 361.578 91.7101 363.18 89.1472L361.484 88.0872ZM354.97 93.1391C351.94 94.3625 347.906 95 342.82 95V97C348.047 97 352.363 96.3485 355.719 94.9937L354.97 93.1391ZM342.82 95H319.441V97H342.82V95ZM320.441 96V46.8691H318.441V96H320.441ZM319.441 47.8691H332.845V45.8691H319.441V47.8691ZM331.845 46.8691V65.8535H333.845V46.8691H331.845ZM352.126 80.5312C352.126 78.305 351.202 76.5722 349.328 75.527L348.354 77.2738C349.527 77.9278 350.126 78.9489 350.126 80.5312H352.126ZM349.328 75.527C347.583 74.5541 345.109 74.126 342.029 74.126V76.126C344.985 76.126 347.052 76.5475 348.354 77.2738L349.328 75.527ZM342.029 74.126H332.845V76.126H342.029V74.126ZM331.845 75.126V86.7275H333.845V75.126H331.845ZM332.845 87.7275H342.205V85.7275H332.845V87.7275ZM342.205 87.7275C344.925 87.7275 347.247 87.2396 349.111 86.1933L348.132 84.4493C346.656 85.2779 344.7 85.7275 342.205 85.7275V87.7275ZM349.122 86.1867C351.154 85.0105 352.126 83.049 352.126 80.5312H350.126C350.126 82.4666 349.428 83.6985 348.12 84.4559L349.122 86.1867Z" fill="#E5E7EB"/>
</svg>
