<svg width="48" height="48" viewBox="0 0 48 48" fill="none" xmlns="http://www.w3.org/2000/svg"><path d="M24 20.5C24 21.8807 22.8807 23 21.5 23C20.1193 23 19 21.8807 19 20.5C19 19.1193 20.1193 18 21.5 18C22.8807 18 24 19.1193 24 20.5ZM20.6982 20.5C20.6982 20.9428 21.0572 21.3018 21.5 21.3018C21.9428 21.3018 22.3018 20.9428 22.3018 20.5C22.3018 20.0572 21.9428 19.6982 21.5 19.6982C21.0572 19.6982 20.6982 20.0572 20.6982 20.5Z" fill="#B2B2D8"/><path d="M29 28.5C29 29.8807 27.8807 31 26.5 31C25.1193 31 24 29.8807 24 28.5C24 27.1193 25.1193 26 26.5 26C27.8807 26 29 27.1193 29 28.5ZM25.6853 28.5C25.6853 28.95 26.05 29.3147 26.5 29.3147C26.95 29.3147 27.3147 28.95 27.3147 28.5C27.3147 28.05 26.95 27.6853 26.5 27.6853C26.05 27.6853 25.6853 28.05 25.6853 28.5Z" fill="#B2B2D8"/><path d="M28 20.5L19.5 28.5985M14.8642 15.1816L14.634 17.0164C14.5441 17.7324 14.0756 18.3444 13.4079 18.618L12.1507 19.1332C11.0187 19.5971 10.5648 20.9596 11.1923 22.0098L11.9907 23.3458C12.3475 23.9427 12.3685 24.6822 12.0462 25.2985L11.2474 26.8262C10.6957 27.8813 11.1823 29.1818 12.2911 29.6155L13.8083 30.209C14.491 30.4761 14.9729 31.0952 15.0641 31.8225L15.2701 33.4639C15.4217 34.6714 16.6076 35.4649 17.7816 35.1441L19.0237 34.8048C19.663 34.6301 20.3473 34.7835 20.8509 35.2144L22.6897 36.7875C23.4879 37.4704 24.6783 37.4194 25.4152 36.6708L26.7914 35.2726C27.2519 34.8047 27.9127 34.5926 28.5594 34.7051L30.3756 35.0208C31.4171 35.2019 32.4196 34.5413 32.664 33.5129L33.0767 31.7764C33.2165 31.1885 33.6146 30.6952 34.1599 30.4345L35.9473 29.5799C37.0357 29.0596 37.4191 27.7013 36.7635 26.6886L35.9089 25.3686C35.489 24.72 35.4803 23.8876 35.8865 23.2303L36.72 21.8815C37.3827 20.8092 36.9001 19.3987 35.7195 18.9569L34.173 18.3783C33.4997 18.1264 33.0135 17.5325 32.8993 16.8228L32.5931 14.9198C32.4005 13.7229 31.196 12.9712 30.0363 13.3241L28.7524 13.7147C28.0054 13.942 27.1943 13.7137 26.6755 13.13L25.4338 11.7332C24.6222 10.8202 23.1889 10.8417 22.4051 11.7786L21.2279 13.1857C20.7621 13.7424 20.0312 14.0031 19.3183 13.8667L17.2243 13.4663C16.0899 13.2493 15.008 14.0356 14.8642 15.1816Z" stroke="#B2B2D8" stroke-width="2" stroke-linecap="round"/></svg>