<svg width="40" height="40" viewBox="0 0 40 40" fill="none" xmlns="http://www.w3.org/2000/svg"><path d="M20 14.5833C21.4366 14.5833 22.8143 15.1539 23.8302 16.1698C24.846 17.1856 25.4167 18.5633 25.4167 19.9999" stroke="#7CB2D3" stroke-width="1.625" stroke-linecap="round" stroke-linejoin="round"/><path d="M23.2518 29.7498C21.5726 29.3493 19.9798 28.6483 18.5502 27.6807L20.5218 24.8532C20.846 24.4107 21.3259 24.1076 21.8647 24.0051C22.4035 23.9025 22.9612 24.0082 23.4252 24.3007C23.7827 24.5282 24.151 24.734 24.5085 24.9398C24.7776 25.0714 25.0165 25.2573 25.2101 25.4859C25.4038 25.7145 25.5479 25.9807 25.6334 26.2678C25.7189 26.5549 25.744 26.8566 25.707 27.1538C25.67 27.4511 25.5718 27.7375 25.4185 27.9948L24.7468 29.024C24.6269 29.3048 24.4096 29.5328 24.1349 29.6661C23.8602 29.7995 23.5467 29.8292 23.2518 29.7498V29.7498ZM10.9777 15.309L12.061 14.6373C12.3122 14.4743 12.5945 14.3651 12.8901 14.3167C13.1856 14.2682 13.488 14.2816 13.7781 14.3559C14.0683 14.4302 14.3398 14.5639 14.5757 14.7484C14.8116 14.933 15.0066 15.1644 15.1485 15.4282C15.3543 15.8182 15.5602 16.1865 15.7877 16.5115C16.0802 16.9755 16.1858 17.5332 16.0833 18.072C15.9807 18.6108 15.6777 19.0907 15.2352 19.4148L12.3535 21.419C11.378 20.0016 10.666 18.4199 10.2518 16.7498C10.1867 16.4628 10.2235 16.1619 10.3559 15.899C10.4884 15.6361 10.7082 15.4275 10.9777 15.309V15.309Z" stroke="#7CB2D3" stroke-width="1.625" stroke-linecap="round" stroke-linejoin="round"/><path d="M12.3532 21.4193C13.1493 22.6679 14.0872 23.8203 15.1482 24.8534C16.1813 25.9144 17.3337 26.8523 18.5824 27.6484" stroke="#7CB2D3" stroke-width="1.625" stroke-linecap="round" stroke-linejoin="round"/><path d="M18.9167 10.315C19.2762 10.2714 19.6379 10.2497 20 10.25C22.5859 10.25 25.0658 11.2772 26.8943 13.1057C28.7228 14.9342 29.75 17.4141 29.75 20C29.7503 20.3621 29.7286 20.7239 29.685 21.0833" stroke="#7CB2D3" stroke-width="1.625" stroke-linecap="round" stroke-linejoin="round"/></svg>