<svg width="28" height="28" viewBox="0 0 32 32" fill="none" xmlns="http://www.w3.org/2000/svg">
<path d="M16.0001 9.49988C17.724 9.49988 19.3773 10.1847 20.5963 11.4037C21.8152 12.6227 22.5001 14.276 22.5001 15.9999" stroke="#B2B2D8" stroke-width="1.625" stroke-linecap="round" stroke-linejoin="round"/>
<path d="M19.9022 27.6998C17.8872 27.2192 15.9757 26.378 14.2602 25.2168L16.6262 21.8238C17.0152 21.2928 17.591 20.9291 18.2376 20.8061C18.8842 20.683 19.5534 20.8098 20.1102 21.1608C20.5392 21.4338 20.9812 21.6808 21.4102 21.9278C21.7331 22.0857 22.0198 22.3088 22.2522 22.5831C22.4845 22.8574 22.6574 23.1768 22.76 23.5213C22.8627 23.8658 22.8927 24.2279 22.8484 24.5846C22.804 24.9413 22.6861 25.2849 22.5022 25.5938L21.6962 26.8288C21.5522 27.1657 21.2915 27.4393 20.9619 27.5993C20.6323 27.7593 20.256 27.795 19.9022 27.6998V27.6998ZM5.1732 10.3708L6.4732 9.56478C6.77467 9.36914 7.11342 9.23811 7.46808 9.17999C7.82273 9.12186 8.18559 9.13789 8.53374 9.22706C8.88189 9.31624 9.20777 9.47662 9.49081 9.69809C9.77385 9.91956 10.0079 10.1973 10.1782 10.5138C10.4252 10.9818 10.6722 11.4238 10.9452 11.8138C11.2962 12.3706 11.423 13.0398 11.2999 13.6864C11.1769 14.333 10.8132 14.9088 10.2822 15.2978L6.8242 17.7028C5.65353 16.0019 4.79919 14.1039 4.3022 12.0998C4.224 11.7553 4.26816 11.3943 4.42709 11.0788C4.58602 10.7633 4.84982 10.513 5.1732 10.3708V10.3708Z" stroke="#B2B2D8" stroke-width="1.625" stroke-linecap="round" stroke-linejoin="round"/>
<path d="M6.82385 17.7031C7.77916 19.2016 8.90464 20.5844 10.1779 21.8241C11.4176 23.0973 12.8004 24.2228 14.2989 25.1781" stroke="#B2B2D8" stroke-width="1.625" stroke-linecap="round" stroke-linejoin="round"/>
<path d="M14.7 4.37805C15.1314 4.32577 15.5655 4.29973 16 4.30005C19.103 4.30005 22.079 5.53273 24.2732 7.7269C26.4673 9.92108 27.7 12.897 27.7 16.0001C27.7003 16.4346 27.6743 16.8687 27.622 17.3001" stroke="#B2B2D8" stroke-width="1.625" stroke-linecap="round" stroke-linejoin="round"/>
</svg>
