<svg viewBox="0 0 41 98" fill="none" xmlns="http://www.w3.org/2000/svg">
<g clip-path="url(#clip0_7501_325081)">
<path d="M50.4037 57.9345L63.6285 45.0986L45.3903 42.4191L37.2221 25.9097L29.0538 42.4191L10.8157 45.0986L24.0405 57.9345L20.8855 76.1294L37.2221 67.529L53.5154 76.1294L50.4037 57.9345ZM73.1797 42.5055C73.1797 43.1394 72.8052 43.8309 72.056 44.58L56.3678 59.8793L60.0846 81.4885C60.1134 81.6902 60.1278 81.9783 60.1278 82.3529C60.1278 83.7935 59.5371 84.5138 58.3558 84.5138C57.8084 84.5138 57.2322 84.3409 56.6271 83.9952L37.2221 73.7956L17.817 83.9952C17.1832 84.3409 16.6069 84.5138 16.0883 84.5138C15.4832 84.5138 15.0294 84.3049 14.7269 83.8871C14.4244 83.4693 14.2731 82.9579 14.2731 82.3529C14.2731 82.18 14.3019 81.8919 14.3596 81.4885L18.0763 59.8793L2.34486 44.58C1.62456 43.8021 1.2644 43.1106 1.2644 42.5055C1.2644 41.4395 2.07115 40.7768 3.68463 40.5175L25.3802 37.3626L35.1044 17.6982C35.6518 16.5169 36.3577 15.9263 37.2221 15.9263C38.0864 15.9263 38.7923 16.5169 39.3398 17.6982L49.0639 37.3626L70.7595 40.5175C72.373 40.7768 73.1797 41.4395 73.1797 42.5055Z" fill="#F3F4F6"/>
<path d="M19.6555 22.2018C19.6555 22.3191 19.5862 22.4471 19.4475 22.5858L16.5436 25.4177L17.2316 29.4175C17.2369 29.4549 17.2396 29.5082 17.2396 29.5775C17.2396 29.6895 17.2116 29.7842 17.1556 29.8615C17.0996 29.9388 17.0183 29.9775 16.9116 29.9775C16.8103 29.9775 16.7036 29.9455 16.5916 29.8815L12.9997 27.9936L9.40788 29.8815C9.29055 29.9455 9.18389 29.9775 9.08789 29.9775C8.97589 29.9775 8.8919 29.9388 8.8359 29.8615C8.7799 29.7842 8.7519 29.6895 8.7519 29.5775C8.7519 29.5455 8.75723 29.4922 8.7679 29.4175L9.45587 25.4177L6.54399 22.5858C6.41066 22.4418 6.34399 22.3138 6.34399 22.2018C6.34399 22.0045 6.49332 21.8818 6.79198 21.8338L10.8078 21.2498L12.6078 17.61C12.7091 17.3913 12.8397 17.282 12.9997 17.282C13.1597 17.282 13.2904 17.3913 13.3917 17.61L15.1917 21.2498L19.2075 21.8338C19.5062 21.8818 19.6555 22.0045 19.6555 22.2018Z" fill="#F3F4F6"/>
<path d="M32.3279 8.10102C32.3279 8.15968 32.2932 8.22368 32.2239 8.29301L30.7719 9.70896L31.1159 11.7089C31.1186 11.7275 31.1199 11.7542 31.1199 11.7889C31.1199 11.8449 31.1059 11.8922 31.0779 11.9309C31.0499 11.9695 31.0092 11.9889 30.9559 11.9889C30.9053 11.9889 30.8519 11.9729 30.7959 11.9409L29 10.9969L27.2041 11.9409C27.1454 11.9729 27.0921 11.9889 27.0441 11.9889C26.9881 11.9889 26.9461 11.9695 26.9181 11.9309C26.8901 11.8922 26.8761 11.8449 26.8761 11.7889C26.8761 11.7729 26.8787 11.7462 26.8841 11.7089L27.2281 9.70896L25.7721 8.29301C25.7055 8.22101 25.6721 8.15702 25.6721 8.10102C25.6721 8.00236 25.7468 7.94103 25.8961 7.91703L27.904 7.62504L28.804 5.80511C28.8547 5.69578 28.92 5.64111 29 5.64111C29.08 5.64111 29.1453 5.69578 29.196 5.80511L30.0959 7.62504L32.1039 7.91703C32.2532 7.94103 32.3279 8.00236 32.3279 8.10102Z" fill="#F3F4F6"/>
<path d="M10.3279 64.101C10.3279 64.1597 10.2932 64.2237 10.2239 64.293L8.77192 65.709L9.11591 67.7089C9.11858 67.7275 9.11991 67.7542 9.11991 67.7889C9.11991 67.8449 9.10591 67.8922 9.07791 67.9309C9.04991 67.9695 9.00925 67.9889 8.95592 67.9889C8.90525 67.9889 8.85192 67.9729 8.79592 67.9409L6.99999 66.9969L5.20406 67.9409C5.1454 67.9729 5.09206 67.9889 5.04407 67.9889C4.98807 67.9889 4.94607 67.9695 4.91807 67.9309C4.89007 67.8922 4.87607 67.8449 4.87607 67.7889C4.87607 67.7729 4.87874 67.7462 4.88407 67.7089L5.22806 65.709L3.77212 64.293C3.70545 64.221 3.67212 64.157 3.67212 64.101C3.67212 64.0024 3.74678 63.941 3.89611 63.917L5.90403 63.625L6.804 61.8051C6.85466 61.6958 6.91999 61.6411 6.99999 61.6411C7.07999 61.6411 7.14532 61.6958 7.19598 61.8051L8.09595 63.625L10.1039 63.917C10.2532 63.941 10.3279 64.0024 10.3279 64.101Z" fill="#F3F4F6"/>
<path d="M35.4787 89.4344C35.4787 89.5183 35.4291 89.6098 35.3299 89.709L33.2537 91.7338L33.7456 94.5937C33.7494 94.6203 33.7513 94.6585 33.7513 94.7081C33.7513 94.7881 33.7313 94.8558 33.6912 94.9111C33.6512 94.9664 33.593 94.994 33.5168 94.994C33.4443 94.994 33.3681 94.9712 33.288 94.9254L30.7198 93.5755L28.1516 94.9254C28.0677 94.9712 27.9915 94.994 27.9228 94.994C27.8427 94.994 27.7827 94.9664 27.7426 94.9111C27.7026 94.8558 27.6826 94.7881 27.6826 94.7081C27.6826 94.6852 27.6864 94.647 27.694 94.5937L28.1859 91.7338L26.1039 89.709C26.0086 89.606 25.9609 89.5145 25.9609 89.4344C25.9609 89.2933 26.0677 89.2056 26.2812 89.1713L29.1526 88.7538L30.4395 86.1513C30.512 85.9949 30.6054 85.9167 30.7198 85.9167C30.8342 85.9167 30.9276 85.9949 31.0001 86.1513L32.287 88.7538L35.1583 89.1713C35.3719 89.2056 35.4787 89.2933 35.4787 89.4344Z" fill="#F3F4F6"/>
</g>
<defs>
<clipPath id="clip0_7501_325081">
<rect fill="white"/>
</clipPath>
</defs>
</svg>
