<svg width="28" height="28" viewBox="0 0 28 28" fill="none" xmlns="http://www.w3.org/2000/svg"><path d="M23.3333 23.3333L17.5 17.5M19.8333 11.6667C19.8333 13.2819 19.3544 14.8608 18.457 16.2038C17.5596 17.5468 16.2842 18.5936 14.7919 19.2117C13.2997 19.8298 11.6576 19.9915 10.0734 19.6764C8.48925 19.3613 7.03409 18.5835 5.89196 17.4414C4.74984 16.2992 3.97204 14.8441 3.65692 13.2599C3.34181 11.6757 3.50354 10.0337 4.12165 8.54142C4.73977 7.04916 5.78651 5.7737 7.12951 4.87633C8.47251 3.97897 10.0515 3.5 11.6667 3.5C13.8326 3.5 15.9098 4.36041 17.4414 5.89196C18.9729 7.42351 19.8333 9.50073 19.8333 11.6667V11.6667Z" stroke="#B2B2D8" stroke-width="2" stroke-linecap="round" stroke-linejoin="round"/><path d="M23.9167 23.9167L19.8333 19.8333" stroke="#B2B2D8" stroke-width="2" stroke-linecap="round" stroke-linejoin="round"/></svg>