<svg width="303" height="73" viewBox="0 0 303 73" fill="none" xmlns="http://www.w3.org/2000/svg">
<path d="M102.07 27.0016C104.07 20.001 97.7158 2.71367 92.5702 5.0002C88.0701 6.99992 98.0692 8.82427 102.07 27.0016Z" fill="#E5E7EB"/>
<path d="M280.737 50.0955C283.197 43.2428 298.445 32.9116 301.289 37.771C303.777 42.0208 294.592 37.6678 280.737 50.0955Z" fill="#E5E7EB"/>
<path d="M195.379 26C193.744 17.8042 198.935 -2.43491 203.139 0.24204C206.815 2.5832 198.647 4.71905 195.379 26Z" fill="#E5E7EB"/>
<path d="M31.5386 54.6653C25.5736 45.7283 2.45464 32.0478 1.067 38.3027C-0.146581 43.7731 9.22087 38.2892 31.5386 54.6653Z" fill="#E5E7EB"/>
<g clip-path="url(#clip0_7538_323339)">
<path d="M176.25 45.4195L176.323 37.7029L170.154 42.276L162.832 39.7656L165.343 47.0869L160.77 53.2558L168.486 53.1832L172.975 59.5301L175.225 52.1583L182.584 49.9209L176.25 45.4195ZM178.363 34.118C178.552 34.3067 178.648 34.6229 178.65 35.0666L178.586 44.2422L186.115 49.5821C186.183 49.6337 186.273 49.7152 186.385 49.8267C186.814 50.2557 186.854 50.6441 186.506 50.992C186.345 51.1532 186.124 51.2714 185.843 51.3467L177.091 54.0242L174.414 62.7759C174.33 63.0655 174.212 63.2867 174.059 63.4394C173.881 63.6176 173.685 63.6891 173.471 63.6537C173.258 63.6184 173.061 63.5107 172.881 63.3305C172.829 63.2791 172.752 63.1848 172.649 63.0477L167.309 55.5187L158.121 55.5959C157.677 55.5764 157.365 55.4766 157.185 55.2964C156.867 54.979 156.908 54.5441 157.306 53.9917L162.755 46.6631L159.764 37.9441C159.573 37.4312 159.605 37.0474 159.86 36.7928C160.114 36.5383 160.498 36.5063 161.011 36.6968L169.73 39.6885L177.059 34.2387C177.611 33.8408 178.046 33.8005 178.363 34.118Z" fill="#E5E7EB"/>
</g>
<g clip-path="url(#clip1_7538_323339)">
<path d="M64.4879 34.0602L65.8652 29.1065L61.1065 30.9858L56.8276 28.1077L57.1807 33.2524L53.1738 36.4339L58.1525 37.7179L59.9468 42.5766L62.6661 38.2203L67.7881 38.0495L64.4879 34.0602ZM67.7967 27.1513C67.8856 27.3053 67.8926 27.5253 67.8177 27.8112L66.1939 33.7053L70.1185 38.4402C70.1537 38.4852 70.1976 38.5532 70.2502 38.6442C70.4523 38.9942 70.4114 39.2512 70.1275 39.4151C69.9959 39.4911 69.8332 39.529 69.6393 39.5289L63.5453 39.743L60.3129 44.9136C60.2091 45.0855 60.0948 45.2075 59.9702 45.2794C59.8248 45.3634 59.6864 45.3756 59.5551 45.316C59.4238 45.2565 59.3157 45.1532 59.2309 45.0062C59.2066 44.9642 59.1731 44.8902 59.1304 44.7842L56.9921 39.0179L51.0654 37.4831C50.7832 37.394 50.5997 37.276 50.5148 37.129C50.3652 36.87 50.4661 36.597 50.8175 36.3101L55.5886 32.5334L55.1668 26.4063C55.1326 26.0433 55.2194 25.8018 55.4271 25.6819C55.6348 25.562 55.8873 25.6075 56.1846 25.8186L61.28 29.2475L66.9362 27.004C67.3603 26.8431 67.6472 26.8922 67.7967 27.1513Z" fill="#E5E7EB"/>
</g>
<g clip-path="url(#clip2_7538_323339)">
<path d="M261.67 30.3148L266.147 27.786L261.453 25.75L260.463 20.6892L257.074 24.5767L251.991 23.9931L254.604 28.4215L252.437 33.1259L257.44 31.9683L261.183 35.4693L261.67 30.3148ZM268.895 27.7692C268.849 27.941 268.699 28.1015 268.443 28.2507L263.127 31.2702L262.554 37.3934C262.548 37.4502 262.531 37.5293 262.503 37.6308C262.399 38.0212 262.188 38.174 261.871 38.0892C261.725 38.0498 261.583 37.9616 261.446 37.8244L256.985 33.6666L251.043 35.0372C250.848 35.0853 250.681 35.0908 250.542 35.0536C250.38 35.0101 250.274 34.9209 250.223 34.786C250.172 34.651 250.169 34.5015 250.213 34.3376C250.225 34.2907 250.254 34.2147 250.299 34.1095L252.864 28.5202L249.759 23.2441C249.622 22.9816 249.576 22.7683 249.62 22.6043C249.697 22.3154 249.961 22.1938 250.413 22.2394L256.457 22.9425L260.491 18.3117C260.724 18.0309 260.956 17.9215 261.188 17.9836C261.419 18.0456 261.566 18.2564 261.626 18.6159L262.805 24.6434L268.391 27.0566C268.805 27.2428 268.973 27.4803 268.895 27.7692Z" fill="#E5E7EB"/>
</g>
<g clip-path="url(#clip3_7538_323339)">
<path d="M149.831 9.34098C149.862 9.45431 149.828 9.59589 149.73 9.76572L147.658 13.2527L149.358 16.9382C149.373 16.9729 149.389 17.0237 149.407 17.0907C149.436 17.1988 149.433 17.2975 149.399 17.3867C149.365 17.4759 149.297 17.5343 149.194 17.5619C149.096 17.5881 148.984 17.5848 148.86 17.552L144.902 16.658L141.921 19.4113C141.824 19.5035 141.729 19.562 141.636 19.5868C141.528 19.6158 141.437 19.6002 141.363 19.54C141.289 19.4798 141.237 19.3956 141.208 19.2874C141.2 19.2565 141.191 19.2036 141.182 19.1287L140.812 15.0871L137.266 13.1054C137.1 13.0008 137.003 12.8944 136.974 12.7862C136.922 12.5956 137.035 12.4385 137.311 12.3149L141.039 10.7114L141.835 6.72971C141.877 6.49227 141.975 6.35285 142.129 6.31144C142.284 6.27003 142.438 6.34182 142.593 6.5268L145.273 9.57678L149.303 9.10148C149.604 9.07055 149.78 9.15038 149.831 9.34098Z" fill="#F3F4F6"/>
</g>
<g clip-path="url(#clip4_7538_323339)">
<path d="M223.053 37.6741C223.036 37.7364 222.981 37.7945 222.888 37.8483L220.944 38.9384L220.74 41.1591C220.738 41.1797 220.732 41.2083 220.722 41.2451C220.706 41.3046 220.677 41.3508 220.637 41.3839C220.596 41.417 220.547 41.4259 220.491 41.4108C220.437 41.3964 220.385 41.3642 220.335 41.3143L218.697 39.8015L216.522 40.2927C216.45 40.31 216.389 40.3118 216.338 40.2982C216.279 40.2822 216.24 40.2498 216.221 40.2008C216.202 40.1518 216.201 40.0975 216.217 40.0381C216.221 40.0211 216.232 39.9936 216.248 39.9554L217.182 37.9304L216.039 36.0133C215.989 35.9179 215.972 35.8405 215.988 35.7811C216.016 35.6763 216.113 35.6325 216.278 35.6495L218.492 35.9106L219.965 34.2348C220.05 34.1331 220.135 34.0937 220.22 34.1164C220.305 34.1392 220.359 34.2158 220.381 34.3463L220.819 36.5341L222.867 37.4151C223.019 37.483 223.081 37.5694 223.053 37.6741Z" fill="#F3F4F6"/>
</g>
<g clip-path="url(#clip5_7538_323339)">
<path d="M118.581 44.4358C118.607 44.533 118.578 44.6543 118.494 44.7999L116.717 47.7888L118.174 50.9479C118.187 50.9776 118.201 51.0212 118.217 51.0786C118.241 51.1713 118.239 51.2559 118.21 51.3323C118.181 51.4088 118.122 51.4588 118.034 51.4825C117.95 51.505 117.854 51.5022 117.748 51.474L114.355 50.7077L111.8 53.0677C111.717 53.1467 111.636 53.1969 111.556 53.2182C111.463 53.243 111.385 53.2297 111.322 53.1781C111.258 53.1265 111.214 53.0543 111.189 52.9616C111.182 52.9351 111.175 52.8897 111.167 52.8255L110.849 49.3612L107.81 47.6625C107.668 47.5729 107.584 47.4817 107.559 47.389C107.515 47.2256 107.612 47.0909 107.849 46.9849L111.044 45.6105L111.727 42.1976C111.762 41.994 111.846 41.8745 111.978 41.839C112.111 41.8035 112.243 41.8651 112.376 42.0236L114.674 44.638L118.128 44.2305C118.386 44.204 118.537 44.2725 118.581 44.4358Z" fill="#F3F4F6"/>
</g>
<defs>
<clipPath id="clip0_7538_323339">
<rect width="36" height="35" fill="white" transform="translate(145.07 47.459) rotate(-45)"/>
</clipPath>
<clipPath id="clip1_7538_323339">
<rect width="23.9858" height="23.3196" fill="white" transform="translate(44.0703 29.9956) rotate(-30)"/>
</clipPath>
<clipPath id="clip2_7538_323339">
<rect width="23.9858" height="23.3196" fill="white" transform="translate(250.105 13.0025) rotate(15)"/>
</clipPath>
<clipPath id="clip3_7538_323339">
<rect width="16" height="15.3846" fill="white" transform="translate(134.07 7.14359) rotate(-15)"/>
</clipPath>
<clipPath id="clip4_7538_323339">
<rect width="8.79141" height="8.45328" fill="white" transform="translate(216.156 32.2984) rotate(15)"/>
</clipPath>
<clipPath id="clip5_7538_323339">
<rect width="13.7146" height="13.1871" fill="white" transform="translate(105.07 42.5523) rotate(-15)"/>
</clipPath>
</defs>
</svg>
