<svg width="86" height="65" viewBox="0 0 86 65" fill="none" xmlns="http://www.w3.org/2000/svg">
<path d="M84.5095 59.3474C78.3819 49.0204 72.3864 39.3008 61.8217 21.7105C61.5312 21.1823 53.4755 7.18402 53.1322 6.62937C50.4382 2.32424 46.6877 0 43.0165 0L42.5939 0C38.8962 0 35.1985 2.40348 32.4781 6.62937C32.1348 7.18402 27.0901 15.9792 25.0828 19.3599C21.4115 25.5403 7.54532 48.9148 1.44418 58.8456C0.572592 60.2454 -1.64601 63.0187 2.13088 63.9431C8.28485 65.4486 14.3068 63.9431 19.0345 60.1662C21.0682 58.6079 22.8642 56.5214 24.3433 54.0915C26.1128 51.1069 27.8296 48.0432 29.5728 45.0586C33.4818 38.4557 37.3379 31.7999 41.511 24.7743C41.9071 24.0348 42.3826 23.2953 42.8051 22.5557C43.2277 23.2953 43.7296 24.0348 44.0993 24.7743C48.2724 31.7735 52.2342 38.4292 56.1431 45.0058C57.8863 47.9903 59.4975 51.0805 61.2406 54.0915C62.7197 56.5478 64.5421 58.6079 66.5758 60.1662C71.3035 63.9431 77.299 65.3165 83.4794 63.9431C87.362 63.0451 85.3811 60.7737 84.5095 59.3474Z" fill="#F3F4F6"/>
<path d="M40.4027 38.3235L29.5738 53.1933C28.0419 55.3063 29.5474 58.2644 32.1622 58.2644H53.8199C56.4347 58.2644 57.9401 55.3063 56.4082 53.1933L45.5794 38.3235C44.3116 36.5803 41.6968 36.5803 40.4027 38.3235Z" fill="#F9FAFB"/>
<path d="M57.0743 30.5911C57.139 31.1253 57.1713 31.663 57.1709 32.2011C57.1709 35.0671 56.321 37.8687 54.7288 40.2516C53.1366 42.6345 50.8735 44.4918 48.2257 45.5886C45.5779 46.6853 42.6643 46.9723 39.8535 46.4132C37.0426 45.8541 34.4606 44.474 32.4341 42.4474C30.4076 40.4209 29.0275 37.839 28.4684 35.0281C27.9093 32.2172 28.1962 29.3036 29.293 26.6559C30.3897 24.0081 32.247 21.745 34.6299 20.1527C37.0129 18.5605 39.8145 17.7106 42.6804 17.7106C44.9241 17.7316 47.131 18.2833 49.1206 19.3207" stroke="#45A143" stroke-width="4" stroke-linecap="round" stroke-linejoin="round"/>
<path d="M57.1714 20.9307L42.6809 35.4212L36.2407 28.981" stroke="#45A143" stroke-width="4" stroke-linecap="round" stroke-linejoin="round"/>
</svg>
