<svg width="28" height="28" viewBox="0 0 28 28" fill="none" xmlns="http://www.w3.org/2000/svg">
<path d="M19.8333 9.33333C19.8333 10.4871 19.4912 11.6149 18.8502 12.5742C18.2093 13.5334 17.2982 14.2811 16.2323 14.7226C15.1664 15.1641 13.9935 15.2797 12.862 15.0546C11.7304 14.8295 10.691 14.2739 9.87522 13.4581C9.05941 12.6423 8.50384 11.6029 8.27876 10.4714C8.05368 9.3398 8.1692 8.16692 8.61071 7.10101C9.05222 6.03511 9.79989 5.12407 10.7592 4.48309C11.7185 3.84212 12.8463 3.5 14 3.5C15.5471 3.5 17.0308 4.11458 18.1248 5.20854C19.2188 6.30251 19.8333 7.78624 19.8333 9.33333ZM10.5 15.1667C8.95291 15.1667 7.46918 15.7812 6.37522 16.8752C5.28125 17.9692 4.66667 19.4529 4.66667 21V21V22.1667C4.66667 22.1667 7.00001 24.5 14 24.5C21 24.5 23.3333 22.1667 23.3333 22.1667V21C23.3333 19.4529 22.7188 17.9692 21.6248 16.8752C20.5308 15.7812 19.0471 15.1667 17.5 15.1667H10.5Z" stroke="white" stroke-width="2.33333" stroke-linecap="round" stroke-linejoin="round"/>
</svg>
